<svg xmlns="http://www.w3.org/2000/svg" width="74.812" height="40" viewBox="0 0 74.812 40"><g transform="translate(-3.8 -12.1)"><path d="M3.8,58.35V53.222c0-2.655,1.629-3.922,4.827-3.922h5.732c1.508,0,2.232.664,2.232,2.051V58.41H13.936V51.955c0-.784-.362-1.146-1.086-1.146h-.9V58.35H8.868v-7.6h-.06c-1.267,0-1.931.664-1.931,2.051V58.35Z" transform="translate(0 -14.757)" fill="#94cfe5" fill-rule="evenodd"/><path d="M27,54.328V53.122c0-2.655,1.629-3.922,4.827-3.922h6.4v7.059c0,1.388-.724,2.051-2.232,2.051H31.827C28.629,58.31,27,56.983,27,54.328ZM35.205,55.6V50.769h-3.2c-1.267,0-1.87.664-1.87,2.051v1.991c0,1.388.6,2.051,1.87,2.051h2.112A1.13,1.13,0,0,0,35.205,55.6Z" transform="translate(-9.203 -14.717)" fill="#94cfe5" fill-rule="evenodd"/><path d="M47.822,57.827A1.323,1.323,0,0,1,47.4,56.8a1.783,1.783,0,0,1,.784-1.448c1.81-1.207,3.68-2.474,5.732-3.861a.365.365,0,0,0,.181-.362c0-.3-.121-.422-.422-.422H47.7V49.2h9.231a1.5,1.5,0,0,1,1.146.422,1.323,1.323,0,0,1,.422,1.026,1.706,1.706,0,0,1-.784,1.448c-1.81,1.207-3.68,2.534-5.732,3.861a.43.43,0,0,0-.181.362c0,.3.121.483.422.483H58.2V58.31H48.969A1.545,1.545,0,0,1,47.822,57.827Z" transform="translate(-17.295 -14.717)" fill="#94cfe5" fill-rule="evenodd"/><path d="M67.6,54.328V53.122c0-2.655,1.629-3.922,4.827-3.922h1.81a6.45,6.45,0,0,1,3.62.784A2.381,2.381,0,0,1,79.063,52.1a2.424,2.424,0,0,1-.6,1.689,2.066,2.066,0,0,1-1.629.724H70.677v.241c0,1.388.664,2.051,1.931,2.051h5.008V58.31H72.487C69.169,58.31,67.6,56.983,67.6,54.328Zm8.386-2.293a1.172,1.172,0,0,0-.483-.965,2.365,2.365,0,0,0-1.388-.362H72.608c-1.267,0-1.87.664-1.931,2.051V53h4.1C75.564,53,75.986,52.639,75.986,52.036Z" transform="translate(-25.308 -14.717)" fill="#94cfe5" fill-rule="evenodd"/><path d="M88.4,54.328V53.122c0-2.655,1.629-3.922,4.827-3.922h1.81a6.45,6.45,0,0,1,3.62.784A2.381,2.381,0,0,1,99.863,52.1a2.424,2.424,0,0,1-.6,1.689,2.066,2.066,0,0,1-1.629.724H91.477v.241c0,1.388.6,2.051,1.87,2.051h5.008V58.31H93.227C90.029,58.31,88.4,56.983,88.4,54.328Zm8.386-2.293a1.172,1.172,0,0,0-.483-.965,2.241,2.241,0,0,0-1.388-.362H93.408c-1.267,0-1.87.664-1.87,2.051V53h4.1C96.424,53,96.786,52.639,96.786,52.036Z" transform="translate(-33.559 -14.717)" fill="#94cfe5" fill-rule="evenodd"/><path d="M109.2,52.583V51.376c0-2.655,1.629-3.922,4.827-3.922h3.318V44.8h3.077v9.713c0,1.388-.724,2.051-2.232,2.051h-4.163C110.829,56.565,109.2,55.237,109.2,52.583Zm8.205,1.267V49.023h-3.2c-1.267,0-1.87.664-1.87,2.051v1.991c0,1.388.664,2.051,1.87,2.051h2.112A1.13,1.13,0,0,0,117.405,53.85Z" transform="translate(-41.81 -12.971)" fill="#94cfe5" fill-rule="evenodd"/><g transform="translate(24.735 12.1)"><path d="M38.5,30.562V22.116q0-6.516,7.964-6.516H63.055c1.689,0,2.775.543,3.318,1.569h-.483v1.448H64.443v.965h1.448V21.03h.845v2.112H65.348V20.97H63.839v2.172H61.607V24.65h2.232v2.172h1.508V24.65h1.327v5.913H55.152v-10.5c0-1.267-.6-1.931-1.75-1.931H51.894V30.562H46.826V18.074h-.121c-2.112,0-3.137,1.146-3.137,3.318V30.5H38.5Zm22.262-4.585v-.6h.6v-.422h-.6v-.6H60.34v.6h-.6v.422h.6v.6Zm1.026-3.258V21.271h1.448v-.965H61.788V18.858h-.965v1.448H59.375v.965h1.448v1.448Zm1.991-4.163v-.845h.845v-.543h-.845v-.845h-.543v.845h-.845v.543h.845v.845Zm-2.9-1.207v-.6h.6v-.422h-.6v-.6h-.422v.6h-.6v.422h.6v.6Z" transform="translate(-38.5 -13.488)" fill="#94cfe5" fill-rule="evenodd"/><g transform="translate(27.149)"><g transform="translate(5.913 8.326)"><path d="M94.567,29.339V28.072H93.3v-.9h1.267V25.9h.9v1.267h1.267v.9H95.472v1.267Z" transform="translate(-93.3 -25.9)" fill="#94cfe5"/></g><g transform="translate(8.869 5.068)"><path d="M99.527,23.939V22.672H98.2v-.9h1.327V20.5h.845v1.267H101.7v.9h-1.327v1.267Z" transform="translate(-98.2 -20.5)" fill="#94cfe5"/></g><g transform="translate(11.885 8.989)"><path d="M103.984,29.172v-.784H103.2v-.543h.784V27h.543v.845h.784v.543h-.784v.784Z" transform="translate(-103.2 -27)" fill="#94cfe5" fill-rule="evenodd"/></g><g transform="translate(1.267 3.861)"><path d="M88.013,24.9V22.542H85.6V20.913h2.413V18.5h1.629v2.413h2.413v1.629H89.642V24.9Z" transform="translate(-85.6 -18.5)" fill="#94cfe5"/></g><g transform="translate(6.576 3.258)"><path d="M95.184,19.672v-.845H94.4v-.483h.784V17.5h.543v.845h.784v.483h-.784v.845Z" transform="translate(-94.4 -17.5)" fill="#94cfe5"/></g><g transform="translate(5.249 0.241)"><path d="M93.346,15.517V14.431H92.2v-.784h1.146V12.5h.784v1.146h1.146v.784H94.131v1.086Z" transform="translate(-92.2 -12.5)" fill="#94cfe5" fill-rule="evenodd"/></g><path d="M85.129,16.5V14.875H83.5V13.729h1.629V12.1h1.146v1.629H87.9v1.146H86.275V16.5Z" transform="translate(-83.5 -12.1)" fill="#94cfe5"/><g transform="translate(8.808 1.931)"><path d="M98.884,17.412v-.784H98.1v-.543h.784V15.3h.543v.784h.784v.543h-.784v.784Z" transform="translate(-98.1 -15.3)" fill="#94cfe5"/></g><g transform="translate(0.905 10.739)"><path d="M86.327,33.339V32.072H85v-.845h1.327V29.9h.845v1.327H88.5v.845H87.172v1.267Z" transform="translate(-85 -29.9)" fill="#94cfe5"/></g><g transform="translate(4.042 13.092)"><path d="M91.467,37.3V35.972H90.2v-.845h1.267V33.8h.9v1.327h1.267v.845H92.372V37.3Z" transform="translate(-90.2 -33.8)" fill="#94cfe5"/></g><g transform="translate(8.688 14.661)"><path d="M98.865,38.874v-.9H97.9v-.6h.965V36.4h.6v.965h.9v.6h-.9v.9Z" transform="translate(-97.9 -36.4)" fill="#94cfe5"/></g><g transform="translate(9.834 11.222)"><path d="M100.584,32.812v-.784H99.8v-.543h.784V30.7h.543v.784h.784v.543h-.784v.784Z" transform="translate(-99.8 -30.7)" fill="#94cfe5"/></g><g transform="translate(1.508 14.238)"><path d="M87.75,40.406v-1.75H86V37.45h1.75V35.7h1.207v1.75h1.81v1.207h-1.81v1.75Z" transform="translate(-86 -35.7)" fill="#94cfe5"/></g><g transform="translate(6.818 17.014)"><g transform="translate(0 0)"><path d="M95.4,41.929v-.6h-.6V40.9h.6v-.6h.422v.6h.6v.422h-.6v.6Z" transform="translate(-94.8 -40.3)" fill="#94cfe5" fill-rule="evenodd"/></g></g><g transform="translate(7.662 13.454)"><path d="M96.622,35.426v-.362H96.2v-.3h.422V34.4h.241v.362h.422v.3h-.422v.362Z" transform="translate(-96.2 -34.4)" fill="#94cfe5"/></g></g></g><g transform="translate(4.102 45.162)"><path d="M4.421,68.388l.181-.543a1.806,1.806,0,0,1,.241-.483L5.024,67h.483a.872.872,0,0,0-.121.422c-.06.121-.06.3-.121.483s-.06.3-.121.483a1.328,1.328,0,0,0-.06.483l-.784.06A1.762,1.762,0,0,1,4.421,68.388Zm1.207,0,.181-.543c.06-.181.121-.3.181-.483L6.17,67h.543a3.845,3.845,0,0,0-.121.422c-.06.121-.06.3-.121.483s-.06.3-.121.483-.06.3-.121.483l-.784.06Z" transform="translate(-4.3 -66.94)" fill="#94cfe5"/><path d="M12.586,74.87a1.119,1.119,0,0,1-.422-.121l-.362-.181.181-.6a2.941,2.941,0,0,0,.422.181,1.86,1.86,0,0,0,.6.06,1.762,1.762,0,0,0,.543-.121.544.544,0,0,0,.362-.362,1.193,1.193,0,0,0,.121-.664V72.7h0c-.06.121-.181.181-.241.3l-.362.181a1.027,1.027,0,0,1-.422.06,1.785,1.785,0,0,1-.6-.121,1.452,1.452,0,0,1-.483-.362,1.887,1.887,0,0,1-.3-.6,3.028,3.028,0,0,1-.121-.724,3.561,3.561,0,0,1,.121-.845,1.026,1.026,0,0,1,.362-.6,1.265,1.265,0,0,1,.483-.362,1.785,1.785,0,0,1,.6-.121,1.176,1.176,0,0,1,.483.06l.362.181c.06.121.181.181.181.3h0V69.56h.724v3.68a1.762,1.762,0,0,1-.121.543,2.445,2.445,0,0,1-.3.543.879.879,0,0,1-.543.362,1.927,1.927,0,0,1-.845.181Zm1.026-2.293a.727.727,0,0,0,.3-.3,1.2,1.2,0,0,0,.121-.543v-.724a1.42,1.42,0,0,0-.121-.483.727.727,0,0,0-.3-.3.872.872,0,0,0-.422-.121.685.685,0,0,0-.483.181.952.952,0,0,0-.3.483,2.25,2.25,0,0,0-.121.724,2.169,2.169,0,0,0,.121.664.77.77,0,0,0,.3.422.685.685,0,0,0,.483.181A2.19,2.19,0,0,1,13.612,72.577Z" transform="translate(-7.156 -67.931)" fill="#94cfe5"/><path d="M19.145,73.041a1.605,1.605,0,0,1-.6-.664,2.567,2.567,0,0,1-.241-1.026,3.057,3.057,0,0,1,.121-.784,2.23,2.23,0,0,1,.3-.664,1.314,1.314,0,0,1,.543-.422,1.287,1.287,0,0,1,.724-.181,1.216,1.216,0,0,1,.664.181,1.626,1.626,0,0,1,.483.422,2.143,2.143,0,0,1,.241.543,2.475,2.475,0,0,1,.06.664v.362H19.084a1.084,1.084,0,0,0,.181.664.811.811,0,0,0,.422.362,1.762,1.762,0,0,0,.543.121,1.67,1.67,0,0,0,.543-.06,3.845,3.845,0,0,0,.422-.121l.121.543a4.158,4.158,0,0,1-.483.181,2.262,2.262,0,0,1-.664.06A1.322,1.322,0,0,1,19.145,73.041Zm1.569-2.413a.461.461,0,0,0-.121-.3.471.471,0,0,0-.241-.241.6.6,0,0,0-.724,0,.471.471,0,0,0-.241.241c-.06.121-.121.181-.181.3a.765.765,0,0,0-.06.362h1.629A.765.765,0,0,1,20.713,70.627Z" transform="translate(-9.854 -67.852)" fill="#94cfe5"/><path d="M25.346,72.746a1.319,1.319,0,0,1-.3-.181.972.972,0,0,1-.241-.422,1.86,1.86,0,0,1-.06-.6V69.608H24.2V69h.543v-.664l.784-.241V69h.9v.6h-.9v1.87a1.2,1.2,0,0,0,.121.543.365.365,0,0,0,.362.181h.181a.222.222,0,0,0,.181-.06v.6c-.06,0-.181.06-.241.06h-.362A.9.9,0,0,1,25.346,72.746Z" transform="translate(-12.194 -67.376)" fill="#94cfe5"/><path d="M29.041,75.126l-.181-.181a.452.452,0,0,1-.06-.3.544.544,0,0,1,.06-.3c.06-.06.121-.181.181-.181a.473.473,0,0,1,.6.121.858.858,0,0,1,.121.362.544.544,0,0,1-.06.3l-.181.181a.363.363,0,0,1-.241.06C29.162,75.186,29.1,75.186,29.041,75.126Z" transform="translate(-14.019 -69.756)" fill="#94cfe5"/><path d="M31.6,73.182v-3.8h.845l.06.483h0a1.059,1.059,0,0,1,.241-.3c.121-.06.181-.181.362-.241a1.137,1.137,0,0,1,.483-.121,1.019,1.019,0,0,1,.6.181.749.749,0,0,1,.362.483h0a1.307,1.307,0,0,1,.543-.483.992.992,0,0,1,.6-.121,1.019,1.019,0,0,1,.6.181,1.626,1.626,0,0,1,.422.483,2.015,2.015,0,0,1,.181.9v2.293h-.965V71.01a1.176,1.176,0,0,0-.06-.483,1.319,1.319,0,0,0-.181-.3.461.461,0,0,0-.3-.121.544.544,0,0,0-.3.06c-.06.06-.181.121-.241.241a.872.872,0,0,0-.121.422v2.293h-.965V70.889a.9.9,0,0,0-.06-.422,1.319,1.319,0,0,0-.181-.3.461.461,0,0,0-.3-.121.544.544,0,0,0-.3.06.471.471,0,0,0-.241.241.872.872,0,0,0-.121.422v2.293H31.6Z" transform="translate(-15.129 -67.812)" fill="#94cfe5"/><path d="M42.245,73.12a1.605,1.605,0,0,1-.6-.664,1.983,1.983,0,0,1-.241-1.026,3.561,3.561,0,0,1,.121-.845,1.463,1.463,0,0,1,.362-.6,1.425,1.425,0,0,1,.543-.362,1.53,1.53,0,0,1,.724-.121,1.454,1.454,0,0,1,.9.241,1.605,1.605,0,0,1,.6.664,2.6,2.6,0,0,1,.181,1.026,2.015,2.015,0,0,1-.181.9,1.54,1.54,0,0,1-.422.6,1.425,1.425,0,0,1-.543.362,2.144,2.144,0,0,1-.6.121A2.027,2.027,0,0,1,42.245,73.12Zm1.267-.6c.121-.06.181-.181.241-.241a.872.872,0,0,0,.121-.422c0-.121.06-.3.06-.483a1.027,1.027,0,0,0-.06-.422,1.118,1.118,0,0,0-.121-.422,1.059,1.059,0,0,0-.241-.3.461.461,0,0,0-.3-.121.857.857,0,0,0-.362.121.6.6,0,0,0-.241.3.872.872,0,0,0-.121.422c0,.181-.06.3-.06.422a1.86,1.86,0,0,0,.06.6c.06.181.121.362.241.422a.548.548,0,0,0,.422.181A.4.4,0,0,0,43.512,72.517Z" transform="translate(-19.017 -67.931)" fill="#94cfe5"/><path d="M48.4,73.261v-3.8h.845l.06.664h0a.972.972,0,0,1,.241-.422,1.262,1.262,0,0,1,.362-.241.765.765,0,0,1,.362-.06h.241v.965H50.27a.872.872,0,0,0-.422.121.727.727,0,0,0-.3.3,1.2,1.2,0,0,0-.121.543v1.931Z" transform="translate(-21.794 -67.892)" fill="#94cfe5"/><path d="M53.245,73.041a1.286,1.286,0,0,1-.6-.664,2.567,2.567,0,0,1-.241-1.026,3.057,3.057,0,0,1,.121-.784,2.23,2.23,0,0,1,.3-.664c.181-.181.3-.362.543-.422a1.606,1.606,0,0,1,.724-.181,1.509,1.509,0,0,1,.784.181,1.321,1.321,0,0,1,.543.6A2.6,2.6,0,0,1,55.6,71.11v.362H53.365a.842.842,0,0,0,.181.543,1.6,1.6,0,0,0,.362.3,1.42,1.42,0,0,0,.483.121,1.176,1.176,0,0,0,.483-.06c.121-.06.3-.06.422-.121l.121.664-.543.181a2.262,2.262,0,0,1-.664.06A1.085,1.085,0,0,1,53.245,73.041Zm1.448-2.413c0-.121-.06-.181-.121-.3-.06-.06-.121-.181-.181-.181a.784.784,0,0,0-.6,0c-.06.06-.181.121-.241.241a.461.461,0,0,0-.121.3c0,.121-.06.181-.06.3h1.388A.653.653,0,0,0,54.693,70.627Z" transform="translate(-23.38 -67.852)" fill="#94cfe5"/><path d="M61.321,68.348,61.5,67.8a1.806,1.806,0,0,1,.241-.483l.181-.362.483-.06a.872.872,0,0,0-.121.422,1.42,1.42,0,0,0-.121.483c-.06.181-.06.3-.121.483a1.328,1.328,0,0,0-.06.483l-.784.06A1.865,1.865,0,0,1,61.321,68.348Zm1.207,0,.181-.543c.06-.181.121-.3.181-.483l.181-.362.483-.06a.872.872,0,0,0-.121.422,1.42,1.42,0,0,0-.121.483c-.06.181-.06.3-.121.483a1.328,1.328,0,0,0-.06.483l-.784.06A4.16,4.16,0,0,0,62.527,68.348Z" transform="translate(-26.871 -66.9)" fill="#94cfe5"/></g></g></svg>