<svg xmlns="http://www.w3.org/2000/svg" xmlns:xlink="http://www.w3.org/1999/xlink" width="343.783" height="278.383" viewBox="0 0 343.783 278.383"><defs><clipPath id="a"><path d="M548.942,507.665a6.316,6.316,0,1,1-4.677-7.61A6.3,6.3,0,0,1,548.942,507.665Z" transform="translate(-536.486 -499.886)"/></clipPath><clipPath id="b"><path d="M447.21,496.893l3.567,5.866,3.171-9.75L443.326,489.6l-3.726,3.646,4.2.793.555,3.408a.841.841,0,0,0,.713.713h0a.884.884,0,0,0,1.11-.793l.159-1.585Z" transform="translate(-439.6 -489.6)"/></clipPath><clipPath id="c"><path d="M743.306,421.214l-1.11,8.006-6.9-11.573,13-7.847,2.457,4.835-5.469,2.457,1.348,5.866a.75.75,0,0,1-.476.872.944.944,0,0,1-1.268-.4l-.634-2.854Z" transform="translate(-735.3 -409.8)"/></clipPath></defs><g transform="translate(-411.466 -269.7)"><path d="M831.618,592.961l1.506-.159c-.158-1.9-.079-5.311.951-6.5a1.018,1.018,0,0,1,.793-.317,2.112,2.112,0,0,1,1.585.713c1.348,1.506,1.506,4.994,1.427,6.183l1.506.079c0-.238.317-5.073-1.823-7.372a3.55,3.55,0,0,0-2.7-1.189,2.532,2.532,0,0,0-1.9.872C831.222,587.254,831.618,592.327,831.618,592.961Z" transform="translate(-403.515 -65.249)" fill="#0075a1"/><g transform="translate(428.659 524.303)"><path d="M836.731,596.6l-1.031.793.079.079,1.268.317a.292.292,0,0,0,.238-.079l.872-.634.079-.079Z" transform="translate(-834.273 -592.082)" fill="#ab9100"/><path d="M839.4,593.272V594.7l1.03-.793V592.4a.078.078,0,0,0-.079.079l-.872.713C839.4,593.113,839.4,593.193,839.4,593.272Z" transform="translate(-839.4 -591.211)" fill="#124a61"/><path d="M838.021,593.04l-1.348-.317v-1.347a.276.276,0,0,0-.079-.159l-1.268-.317h-.079v1.506l-1.268-.317H833.9V593.6l1.427.317v1.506l1.427.4v-1.506l1.427.317V593.2C838.1,593.12,838.1,593.04,838.021,593.04Z" transform="translate(-832.79 -590.9)" fill="#94cfe5"/><path d="M834,595.1v1.03h.238a.291.291,0,0,0,.238-.079l.872-.634.079-.079Z" transform="translate(-830.116 -591.771)" fill="#ab9100"/><path d="M838.63,596.206V594.7l-1.03.793V597Z" transform="translate(-836.173 -591.688)" fill="#124a61"/><path d="M838.631,594.3l-1.031.793.079.079,1.347.317,1.031-.793Z" transform="translate(-837.6 -591.605)" fill="#ab9100"/><path d="M838.63,592.327l-1.03-.238v-.317c0-.079,0-.159.079-.159l.872-.634a.078.078,0,0,0,.079-.079v1.427Z" transform="translate(-836.173 -590.9)" fill="#124a61"/></g><g transform="translate(417.104 523.907)"><path d="M852.072,595.3l-.872.634.079.079,1.031.238h.159l.713-.555.079-.079Z" transform="translate(-850.011 -591.416)" fill="#ab9100"/><path d="M854.2,592.413V593.6l.872-.634V591.7h-.079l-.714.555A.245.245,0,0,0,854.2,592.413Z" transform="translate(-854.2 -590.67)" fill="#124a61"/><path d="M852.988,592.223l-1.11-.238V590.8c0-.079-.079-.079-.079-.159l-1.03-.238h-.079v1.268l-1.11-.238H849.5V592.7l1.189.238V594.2l1.268.317v-1.268l1.189.238V592.3A.276.276,0,0,0,852.988,592.223Z" transform="translate(-848.549 -590.4)" fill="#94cfe5"/><path d="M849.6,594v.872h.4l.713-.555.079-.079Z" transform="translate(-846.271 -591.146)" fill="#ab9100"/><path d="M853.572,594.968V593.7l-.872.713v1.268Z" transform="translate(-851.511 -591.084)" fill="#124a61"/><path d="M853.572,593.3l-.872.634.079.079,1.11.238.872-.713Z" transform="translate(-852.7 -591.001)" fill="#ab9100"/><path d="M853.572,591.668l-.872-.238v-.317c0-.079,0-.159.079-.159l.713-.555h.079v1.268Z" transform="translate(-851.511 -590.4)" fill="#124a61"/></g><g transform="translate(420.11 520.816)"><path d="M846.689,593.5l-1.189.951.079.079,1.506.4a.291.291,0,0,0,.238-.079l1.031-.793.079-.079Z" transform="translate(-843.677 -587.951)" fill="#ab9100"/><path d="M849.8,589.41V591a.078.078,0,0,0,.079.079l1.268-.951V588.3c-.079,0-.079,0-.079.079l-1.031.793Q849.8,589.291,849.8,589.41Z" transform="translate(-849.8 -586.873)" fill="#124a61"/><path d="M848.537,589.137l-1.585-.317v-1.665a.17.17,0,0,0-.158-.159l-1.506-.4h-.159v1.744l-1.585-.317h-.159v1.823l1.744.4v1.823l1.744.4v-1.823l1.665.4v-1.744C848.7,589.216,848.616,589.137,848.537,589.137Z" transform="translate(-842.196 -586.521)" fill="#94cfe5"/><path d="M843.4,591.7v1.268l.317.079a.292.292,0,0,0,.238-.079l1.03-.793.079-.079Z" transform="translate(-838.644 -587.578)" fill="#ab9100"/><path d="M848.968,593.023V591.2l-1.268.951v1.665a.078.078,0,0,0,.079.079Z" transform="translate(-845.956 -587.474)" fill="#124a61"/><path d="M849.069,590.7l-1.268.951.079.079,1.585.317,1.268-.951Z" transform="translate(-847.8 -587.371)" fill="#ab9100"/><path d="M848.968,588.323l-1.268-.317v-.4c0-.079.079-.159.079-.238l1.031-.793.079-.079.079,1.823Z" transform="translate(-845.956 -586.5)" fill="#124a61"/></g><g transform="translate(422.168 522.797)"><path d="M844.189,596l-1.189.951.079.079,1.506.4a.291.291,0,0,0,.238-.079l1.031-.793.079-.079Z" transform="translate(-841.256 -590.451)" fill="#ab9100"/><path d="M847.2,592.01V593.6a.078.078,0,0,0,.079.079l1.268-.951V590.9c-.079,0-.079,0-.079.079l-1.03.793C847.2,591.851,847.2,591.931,847.2,592.01Z" transform="translate(-847.2 -589.394)" fill="#124a61"/><path d="M845.937,591.637l-1.586-.317v-1.665a.17.17,0,0,0-.158-.159l-1.506-.4h-.159v1.744l-1.585-.317h-.159v1.823l1.744.4v1.823l1.744.4v-1.823l1.665.4v-1.744C846.1,591.8,846.016,591.716,845.937,591.637Z" transform="translate(-839.596 -589.021)" fill="#94cfe5"/><path d="M840.8,594.3v1.268l.317.079a.292.292,0,0,0,.238-.079l1.031-.793.079-.079Z" transform="translate(-836.044 -590.099)" fill="#ab9100"/><path d="M846.468,595.523V593.7l-1.268.951v1.665a.078.078,0,0,0,.079.079Z" transform="translate(-843.535 -589.974)" fill="#124a61"/><path d="M846.469,593.2l-1.268.951.079.079,1.585.317,1.268-.951Z" transform="translate(-845.2 -589.871)" fill="#ab9100"/><path d="M846.468,590.823l-1.268-.317v-.4c0-.079.079-.159.079-.238l1.03-.793.079-.079.079,1.823Z" transform="translate(-843.535 -589)" fill="#124a61"/></g><path d="M849.97,592.961l1.506-.159c-.159-1.9-.079-5.311.951-6.5a1.018,1.018,0,0,1,.793-.317,2.112,2.112,0,0,1,1.585.713c1.347,1.506,1.506,4.994,1.427,6.183l1.506.079c0-.238.317-5.073-1.823-7.372a3.55,3.55,0,0,0-2.7-1.189,2.532,2.532,0,0,0-1.9.872C849.495,587.254,849.891,592.327,849.97,592.961Z" transform="translate(-436.351 -65.249)" fill="#0075a1"/><path d="M853.14,594H828.884a1.917,1.917,0,0,0-1.9,2.061l.872,9.671a8.579,8.579,0,0,0,8.561,8.006h8.64a8.6,8.6,0,0,0,8.561-7.689l1.427-9.908A1.858,1.858,0,0,0,853.14,594Z" transform="translate(-415.511 -67.239)" fill="#124a61"/><path d="M648.97,592.961l1.506-.159c-.159-1.9-.079-5.311.951-6.5a1.018,1.018,0,0,1,.793-.317,2.111,2.111,0,0,1,1.585.713c1.348,1.506,1.506,4.994,1.427,6.183l1.506.079c0-.238.317-5.073-1.823-7.372a3.55,3.55,0,0,0-2.7-1.189,2.532,2.532,0,0,0-1.9.872C648.495,587.254,648.891,592.327,648.97,592.961Z" transform="translate(-76.267 -65.249)" fill="#0075a1"/><g transform="translate(563.515 520.816)"><g transform="translate(11.573 3.488)"><path d="M651.731,596.6l-1.031.793.079.079,1.268.317a.292.292,0,0,0,.238-.079l.872-.634.079-.079Z" transform="translate(-649.273 -592.082)" fill="#ab9100"/><path d="M654.4,593.272V594.7l1.03-.793V592.4a.078.078,0,0,0-.079.079l-.872.713C654.4,593.113,654.4,593.193,654.4,593.272Z" transform="translate(-654.4 -591.211)" fill="#124a61"/><path d="M653.022,593.04l-1.347-.317v-1.347a.276.276,0,0,0-.079-.159l-1.268-.317h-.079v1.506l-1.268-.317H648.9V593.6l1.427.317v1.506l1.427.4v-1.506l1.427.317V593.2A.171.171,0,0,0,653.022,593.04Z" transform="translate(-647.79 -590.9)" fill="#94cfe5"/><path d="M648.9,595.1v1.03h.238a.291.291,0,0,0,.238-.079l.872-.634.079-.079Z" transform="translate(-644.937 -591.771)" fill="#ab9100"/><path d="M653.63,596.206V594.7l-1.03.793V597Z" transform="translate(-651.173 -591.688)" fill="#124a61"/><path d="M653.631,594.3l-1.031.793.079.079,1.348.317,1.03-.793Z" transform="translate(-652.6 -591.605)" fill="#ab9100"/><path d="M653.63,592.327l-1.03-.238v-.317c0-.079,0-.159.079-.159l.872-.634a.078.078,0,0,0,.079-.079v1.427Z" transform="translate(-651.173 -590.9)" fill="#124a61"/></g><g transform="translate(0 3.091)"><path d="M666.972,595.3l-.872.634.079.079,1.03.238h.158l.714-.555.079-.079Z" transform="translate(-664.832 -591.416)" fill="#ab9100"/><path d="M669.2,592.413V593.6l.872-.634V591.7h-.079l-.713.555A.276.276,0,0,1,669.2,592.413Z" transform="translate(-669.2 -590.67)" fill="#124a61"/><path d="M667.888,592.223l-1.11-.238V590.8c0-.079-.079-.079-.079-.159l-1.031-.238h-.079v1.268l-1.11-.238H664.4V592.7l1.189.238V594.2l1.268.317v-1.268l1.189.238V592.3A.276.276,0,0,1,667.888,592.223Z" transform="translate(-663.37 -590.4)" fill="#94cfe5"/><path d="M664.5,594v.872h.4l.713-.555.079-.079Z" transform="translate(-661.092 -591.146)" fill="#ab9100"/><path d="M668.472,594.968V593.7l-.872.713v1.268Z" transform="translate(-666.332 -591.084)" fill="#124a61"/><path d="M668.572,593.3l-.872.634.079.079,1.11.238.872-.713Z" transform="translate(-667.7 -591.001)" fill="#ab9100"/><path d="M668.472,591.668l-.872-.238v-.317c0-.079,0-.159.079-.159l.713-.555h.079v1.268Z" transform="translate(-666.332 -590.4)" fill="#124a61"/></g><g transform="translate(3.012 0)"><path d="M661.689,593.5l-1.189.951.079.079,1.506.4a.291.291,0,0,0,.238-.079l1.03-.793.079-.079Z" transform="translate(-658.677 -587.951)" fill="#ab9100"/><path d="M664.8,589.41V591a.078.078,0,0,0,.079.079l1.268-.951V588.3c-.079,0-.079,0-.079.079l-1.031.793Q664.8,589.291,664.8,589.41Z" transform="translate(-664.8 -586.873)" fill="#124a61"/><path d="M663.477,589.137l-1.585-.317v-1.665a.17.17,0,0,0-.159-.159l-1.506-.4h-.159v1.744l-1.585-.317h-.158v1.823l1.744.4v1.823l1.744.4v-1.823l1.665.4v-1.744C663.557,589.216,663.557,589.137,663.477,589.137Z" transform="translate(-657.057 -586.521)" fill="#94cfe5"/><path d="M658.3,591.7v1.268l.317.079a.291.291,0,0,0,.238-.079l1.03-.793.079-.079Z" transform="translate(-653.465 -587.578)" fill="#ab9100"/><path d="M663.968,593.023V591.2l-1.268.951v1.665a.078.078,0,0,0,.079.079Z" transform="translate(-660.956 -587.474)" fill="#124a61"/><path d="M664.068,590.7l-1.268.951.079.079,1.585.317,1.268-.951Z" transform="translate(-662.8 -587.371)" fill="#ab9100"/><path d="M663.968,588.323l-1.268-.317v-.4c0-.079.079-.159.079-.238l1.031-.793.079-.079.079,1.823Z" transform="translate(-660.956 -586.5)" fill="#124a61"/></g><g transform="translate(5.073 1.982)"><path d="M659.089,596l-1.189.951.079.079,1.506.4a.291.291,0,0,0,.238-.079l1.03-.793.079-.079Z" transform="translate(-656.077 -590.451)" fill="#ab9100"/><path d="M662.2,592.01V593.6a.078.078,0,0,0,.079.079l1.268-.951V590.9c-.079,0-.079,0-.079.079l-1.03.793Q662.2,591.891,662.2,592.01Z" transform="translate(-662.2 -589.394)" fill="#124a61"/><path d="M660.937,591.637l-1.586-.317v-1.665a.17.17,0,0,0-.158-.159l-1.506-.4h-.159v1.744l-1.585-.317h-.159v1.823l1.744.4v1.823l1.744.4v-1.823l1.664.4v-1.744C661.1,591.8,661.016,591.716,660.937,591.637Z" transform="translate(-654.596 -589.021)" fill="#94cfe5"/><path d="M655.8,594.3v1.268l.317.079a.291.291,0,0,0,.238-.079l1.031-.793.079-.079Z" transform="translate(-651.044 -590.099)" fill="#ab9100"/><path d="M661.368,595.523V593.7l-1.268.951v1.665a.078.078,0,0,0,.079.079Z" transform="translate(-658.356 -589.974)" fill="#124a61"/><path d="M661.468,593.2l-1.268.951.079.079,1.585.317,1.268-.951Z" transform="translate(-660.2 -589.871)" fill="#ab9100"/><path d="M661.368,590.823l-1.268-.317v-.4c0-.079.079-.159.079-.238l1.03-.793.079-.079.079,1.823Z" transform="translate(-658.356 -589)" fill="#124a61"/></g></g><g transform="translate(557.012 519.151)"><path d="M663.988,592.961l1.665-.159c-.158-1.9-.079-5.311,1.03-6.5a1.018,1.018,0,0,1,.793-.317,2.33,2.33,0,0,1,1.744.713c1.506,1.506,1.585,4.994,1.506,6.183l1.665.079c0-.238.317-5.073-1.982-7.372a4.07,4.07,0,0,0-2.933-1.189,2.878,2.878,0,0,0-2.061.872C663.433,587.254,663.909,592.327,663.988,592.961Z" transform="translate(-660.812 -584.4)" fill="#0075a1"/><path d="M669.239,594H644.984a1.917,1.917,0,0,0-1.9,2.061l.872,9.671a8.579,8.579,0,0,0,8.561,8.006h8.64a8.6,8.6,0,0,0,8.561-7.689l1.427-9.908A1.858,1.858,0,0,0,669.239,594Z" transform="translate(-643.077 -586.39)" fill="#124a61"/></g><path d="M564.049,507.289l-.951-5.469c1.506-.238,35.115-6.817,34.8-40.347a2.725,2.725,0,0,1,2.616-2.774h0a2.732,2.732,0,0,1,2.933,2.695C603.761,499.759,564.445,507.21,564.049,507.289Z" transform="translate(44.957 -39.186)" fill="#124a61"/><path d="M657.267,537c-22.432-1.744-32.737-16.17-35.987-21.8a2.337,2.337,0,0,1,1.11-3.25h0a2.206,2.206,0,0,1,2.854.951,41.238,41.238,0,0,0,6.42,8.244c6.9,6.738,15.616,10.542,25.92,11.335Z" transform="translate(-55.009 -50.185)" fill="#124a61"/><circle cx="32.261" cy="32.261" r="32.261" transform="translate(528.34 402.392)" fill="#94cfe5"/><path d="M623.764,588.954H609.1L610.685,469.5H622.1Z" transform="translate(-11.788 -41.426)" fill="#124a61"/><circle cx="87.669" cy="87.669" r="87.669" transform="translate(513.925 269.7)" fill="#0075a1"/><g transform="translate(663.073 464.299)"><ellipse cx="2.933" cy="2.774" rx="2.933" ry="2.774" transform="translate(24.251)" fill="#fe9764"/><g transform="translate(0 2.695)"><path d="M523.98,527.874l-10.622-8.8a2.45,2.45,0,0,0-3.646.872,3.024,3.024,0,0,0,1.189,3.884l10.622,8.8a5.329,5.329,0,0,0,6.579-.476l9.116-9.591-4.28-3.963Z" transform="translate(-509.4 -518.6)" fill="#94cfe5"/></g></g><g transform="translate(636.154 452.16)"><path d="M553.181,614.27l2.774-4.36-4.835-1.11-2.219,4.122Z" transform="translate(-532.492 -522.468)" fill="#fff"/><path d="M551.256,566.7l.634,17.518v.238a2.136,2.136,0,0,1-.4,1.189l-6.659,15.536L540,600.071l5.786-17.28-.4,1.427-1.982-17.439Z" transform="translate(-521.373 -513.739)" fill="#fe9764"/><path d="M558.154,619.073l-13.079-.317L547.69,614l6.421.238a4.323,4.323,0,0,1,4.043,4.835Z" transform="translate(-531.679 -523.546)" fill="#ab9100"/><path d="M546.229,518.779l-3.329-.4.238-6.183,3.488.159Z" transform="translate(-518.407 -502.439)" fill="#fe9764"/><path d="M551.444,524.28l-2.774,9.274a.73.73,0,0,1-.872.555l-6.738-.793a.69.69,0,0,1-.634-.475l-2.7-8.878a3.623,3.623,0,0,1,3.012-4.914l5.786-.555A4.6,4.6,0,0,1,551.444,524.28Z" transform="translate(-519.104 -503.74)" fill="#0075a1"/><path d="M570.16,614.27l2.7-4.36-4.835-1.11-2.219,4.122Z" transform="translate(-562.788 -522.468)" fill="#fff"/><path d="M567.629,567.6l-1.665,16.8v.238a2.136,2.136,0,0,1-.4,1.189l-9.433,15.536-4.835-1.11,8.64-17.359-.4,1.427.317-16.646Z" transform="translate(-546.068 -513.926)" fill="#fe9764"/><path d="M551.268,537.2s-6.024,6.975-6.5,11.256L537,570.254h25.445l-3.488-32.182Z" transform="translate(-529.549 -507.623)" fill="#124a61"/><g transform="translate(12.04)"><path d="M537.373,505.634,535.946,505l-.793,1.9,1.427.317.951-.555A.644.644,0,0,0,537.373,505.634Z" transform="translate(-515.407 -500.947)" fill="#fe9764"/><g transform="translate(8.638)"><path d="M548.942,507.665a6.316,6.316,0,1,1-4.677-7.61A6.3,6.3,0,0,1,548.942,507.665Z" transform="translate(-536.486 -499.886)" fill="#fe9764"/><g clip-path="url(#a)"><path d="M552.1,497.7l-7.451,15.061-2.854-10.7Z" transform="translate(-543.692 -499.433)" fill="#0e1333"/></g></g><path d="M560.258,512.052a4.822,4.822,0,1,1-2.061-6.5A4.85,4.85,0,0,1,560.258,512.052Z" transform="translate(-551.133 -500.944)" fill="#0e1333"/><path d="M549.251,507.633a1.788,1.788,0,1,1-1.348-2.14A1.8,1.8,0,0,1,549.251,507.633Z" transform="translate(-535.371 -501.043)" fill="#fe9764"/></g><g transform="translate(15.559 15.327)"><path d="M535.488,549.4a3.035,3.035,0,0,0-3.092,2.774,2.626,2.626,0,0,0,2.616,2.933,3.035,3.035,0,0,0,3.091-2.774A2.666,2.666,0,0,0,535.488,549.4Z" transform="translate(-517.121 -525.479)" fill="#fe9764"/><g transform="translate(0)"><path d="M542.547,536.723l3.091-14.189a2.721,2.721,0,1,0-5.311-1.189l-3.091,14.189a5.375,5.375,0,0,0,2.774,5.945l12.128,6.1,2.219-4.994Z" transform="translate(-537.1 -519.223)" fill="#94cfe5"/></g></g><path d="M575.054,619.073l-13.079-.317L564.59,614l6.421.238a4.323,4.323,0,0,1,4.043,4.835Z" transform="translate(-561.975 -523.546)" fill="#ab9100"/></g><path d="M470.87,521.361l1.506-.159c-.159-1.9-.079-5.311.951-6.5a1.018,1.018,0,0,1,.793-.317,2.112,2.112,0,0,1,1.585.713c1.347,1.506,1.506,4.994,1.427,6.183l1.506.079c0-.238.317-5.073-1.823-7.372a3.55,3.55,0,0,0-2.7-1.189,2.532,2.532,0,0,0-1.9.872C470.395,515.654,470.791,520.806,470.87,521.361Z" transform="translate(242.792 -50.404)" fill="#0075a1"/><g transform="translate(706.463 444.007)"><g transform="translate(0 18.701)"><path d="M480.859,525.97a3.559,3.559,0,1,1,6.738,2.3,3.559,3.559,0,1,1-6.738-2.3Z" transform="translate(-480.663 -515.343)" fill="#fe9764"/><g transform="translate(4.872)"><path d="M462.442,529.765l7.451-15.14a2.945,2.945,0,0,1,4.439-.713,3.865,3.865,0,0,1,.555,5.073l-7.451,15.14a6,6,0,0,1-7.451,2.457l-14.664-6.9,2.774-6.579Z" transform="translate(-445.321 -513.193)" fill="#124a61"/></g></g><path d="M428.1,619.373l14.427.079-3.408-5.073-6.658-.079c-2.378,0-4.36,2.219-4.36,5.073Z" transform="translate(-393.741 -515.455)" fill="#ab9100"/><path d="M460,619.473l11.256.079,1.585-5.073-7.768-.079A5.109,5.109,0,0,0,460,619.473Z" transform="translate(-449.341 -515.476)" fill="#ab9100"/><path d="M435.2,585.4l14.189,17.835h6.658L441.858,579.3Z" transform="translate(-412.889 -508.198)" fill="#124a61"/><path d="M454.085,545.017,447.9,566.26a13.872,13.872,0,0,0,3.726,13.317l.555.555,8.8-35.432Z" transform="translate(-427.573 -501.024)" fill="#124a61"/><path d="M451.825,543.3l3.408,3.646,3.409-1.823a5.887,5.887,0,0,1,1.665,7.134l-13.079,43.517-5.945-.079Z" transform="translate(-422.539 -500.734)" fill="#124a61"/><path d="M447.01,510.938l3.25-.713-.951-6.024-3.409.555Z" transform="translate(-415.583 -492.627)" fill="#fe9764"/><path d="M443.258,500.977a6.348,6.348,0,1,0,2.14-8.719A6.347,6.347,0,0,0,443.258,500.977Z" transform="translate(-417.538 -489.959)" fill="#fe9764"/><path d="M457.914,498.3l-1.189,1.03a.582.582,0,0,0,.238,1.031l1.11.238,1.268-.793Z" transform="translate(-433.066 -491.404)" fill="#fe9764"/><path d="M452.706,540.209l-11.177.476a.98.98,0,0,1-1.031-1.11l2.616-25.207a5.689,5.689,0,0,1,6.024-5.073h0a5.588,5.588,0,0,1,5.311,5.866l-.872,24.1A.817.817,0,0,1,452.706,540.209Z" transform="translate(-415.493 -493.68)" fill="#0075a1"/><g transform="translate(25.323 0)"><g clip-path="url(#b)"><path d="M443.258,500.977a6.348,6.348,0,1,0,2.14-8.719A6.347,6.347,0,0,0,443.258,500.977Z" transform="translate(-442.862 -489.959)" fill="#0e1333"/></g></g><path d="M444.937,498.574a1.849,1.849,0,1,0,.634-2.537A1.887,1.887,0,0,0,444.937,498.574Z" transform="translate(-412.718 -490.885)" fill="#fe9764"/></g><g transform="translate(713.426 466.598)"><path d="M476.93,523.9l-1.03.793.079.079,1.268.317a.291.291,0,0,0,.238-.079l.872-.634.079-.079Z" transform="translate(-474.473 -519.303)" fill="#ab9100"/><path d="M479.6,520.572V522l1.031-.793V519.7a.078.078,0,0,0-.079.079l-.872.714C479.679,520.413,479.6,520.493,479.6,520.572Z" transform="translate(-479.6 -518.432)" fill="#124a61"/><path d="M478.222,520.24l-1.348-.317v-1.348a.277.277,0,0,0-.079-.159l-1.268-.317h-.079v1.506l-1.268-.317H474.1V520.8l1.427.317v1.506l1.427.4v-1.506l1.427.317V520.4A.17.17,0,0,0,478.222,520.24Z" transform="translate(-472.99 -518.1)" fill="#94cfe5"/><path d="M474.1,522.4v1.03h.238a.291.291,0,0,0,.238-.079l.872-.634.079-.079Z" transform="translate(-470.137 -518.992)" fill="#ab9100"/><path d="M478.83,523.506V522l-1.03.793V524.3Z" transform="translate(-476.373 -518.908)" fill="#124a61"/><path d="M478.831,521.5l-1.03.793.079.079,1.348.317,1.03-.793Z" transform="translate(-477.8 -518.805)" fill="#ab9100"/><path d="M478.83,519.627l-1.03-.238v-.317c0-.079,0-.159.079-.159l.872-.634a.078.078,0,0,0,.079-.079v1.427Z" transform="translate(-476.373 -518.121)" fill="#124a61"/></g><g transform="translate(701.872 466.201)"><path d="M492.172,522.5l-.872.634.079.079,1.03.238h.159l.713-.555.079-.079Z" transform="translate(-490.032 -518.616)" fill="#ab9100"/><path d="M494.4,519.713V520.9l.872-.634V519h-.079l-.713.555A.276.276,0,0,0,494.4,519.713Z" transform="translate(-494.4 -517.89)" fill="#124a61"/><path d="M493.088,519.423l-1.11-.238V518c0-.079-.079-.079-.079-.159l-1.031-.238h-.079v1.268l-1.11-.238H489.6V519.9l1.189.238V521.4l1.268.317v-1.268l1.189.238V519.5C493.167,519.5,493.167,519.423,493.088,519.423Z" transform="translate(-488.57 -517.6)" fill="#94cfe5"/><path d="M489.7,521.3v.872h.4l.713-.555.079-.079Z" transform="translate(-486.292 -518.367)" fill="#ab9100"/><path d="M493.672,522.168V520.9l-.872.714v1.268Z" transform="translate(-491.532 -518.284)" fill="#124a61"/><path d="M493.672,520.5l-.872.634.079.079,1.11.238.872-.713Z" transform="translate(-492.721 -518.201)" fill="#ab9100"/><path d="M493.672,518.868l-.872-.238v-.317c0-.079,0-.159.079-.159l.713-.555h.079v1.268Z" transform="translate(-491.532 -517.6)" fill="#124a61"/></g><g transform="translate(704.957 463.189)"><path d="M486.889,520.7l-1.189.951.079.079,1.506.4a.291.291,0,0,0,.238-.079l1.03-.793.079-.079Z" transform="translate(-483.956 -515.231)" fill="#ab9100"/><path d="M489.9,516.71V518.3a.078.078,0,0,0,.079.079l1.268-.951V515.6c-.079,0-.079,0-.079.079l-1.031.793C489.9,516.551,489.9,516.631,489.9,516.71Z" transform="translate(-489.9 -514.173)" fill="#124a61"/><path d="M488.637,516.437l-1.585-.317v-1.665a.17.17,0,0,0-.159-.159l-1.506-.4h-.159v1.744l-1.585-.317h-.158v1.823l1.744.4v1.823l1.744.4v-1.823l1.665.4V516.6C488.8,516.516,488.716,516.437,488.637,516.437Z" transform="translate(-482.296 -513.821)" fill="#94cfe5"/><path d="M483.5,519v1.268l.317.079a.291.291,0,0,0,.238-.079l1.03-.793.079-.079Z" transform="translate(-478.744 -514.878)" fill="#ab9100"/><path d="M489.168,520.223V518.4l-1.268.951v1.664a.078.078,0,0,0,.079.079Z" transform="translate(-486.235 -514.754)" fill="#124a61"/><path d="M489.168,517.9l-1.268.951.079.079,1.585.317,1.268-.951Z" transform="translate(-487.9 -514.65)" fill="#ab9100"/><path d="M489.168,515.623l-1.268-.317v-.4c0-.079.079-.159.079-.238l1.031-.793.079-.079.079,1.823Z" transform="translate(-486.235 -513.8)" fill="#124a61"/></g><g transform="translate(706.935 465.171)"><path d="M484.289,523.3l-1.189.951.079.079,1.506.4a.291.291,0,0,0,.238-.079l1.03-.793.079-.079Z" transform="translate(-481.277 -517.751)" fill="#ab9100"/><path d="M487.4,519.21v1.585a.078.078,0,0,0,.079.079l1.268-.951V518.1c-.079,0-.079,0-.079.079l-1.03.793Q487.4,519.091,487.4,519.21Z" transform="translate(-487.4 -516.673)" fill="#124a61"/><path d="M486.137,518.937l-1.585-.317v-1.665a.171.171,0,0,0-.159-.159l-1.506-.4h-.159v1.744l-1.585-.317h-.159v1.823l1.744.4v1.823l1.744.4v-1.823l1.665.4V519.1C486.3,519.016,486.216,518.937,486.137,518.937Z" transform="translate(-479.795 -516.321)" fill="#94cfe5"/><path d="M481,521.5v1.268l.317.079a.291.291,0,0,0,.238-.079l1.03-.793.079-.079Z" transform="translate(-476.244 -517.378)" fill="#ab9100"/><path d="M486.568,522.823V521l-1.268.951v1.664a.078.078,0,0,0,.079.079Z" transform="translate(-483.556 -517.274)" fill="#124a61"/><path d="M486.668,520.5l-1.268.951.079.079,1.585.317,1.268-.951Z" transform="translate(-485.4 -517.171)" fill="#ab9100"/><path d="M486.568,518.123l-1.268-.317v-.4c0-.079.079-.159.079-.238l1.031-.793.079-.079.079,1.823Z" transform="translate(-483.556 -516.3)" fill="#124a61"/></g><g transform="translate(609.103 318.37)"><path d="M600.791,348.6l-3.091,2.378c.079.079.158.159.238.159l3.8.951a.658.658,0,0,0,.634-.159l2.616-2.061c.079-.079.159-.159.159-.238Z" transform="translate(-593.261 -334.728)" fill="#ab9100"/><path d="M608.7,338.4v4.043a.477.477,0,0,0,.079.317l3.091-2.378V335.7a.6.6,0,0,0-.317.159l-2.616,2.061A.565.565,0,0,0,608.7,338.4Z" transform="translate(-608.7 -332.054)" fill="#124a61"/><path d="M604.662,337.6l-4.043-.872v-4.2a.535.535,0,0,0-.317-.476l-3.8-.951h-.317v4.518l-3.963-.872H591.9v4.677l4.36.951v4.6l4.439,1.11a.477.477,0,0,0,.079-.317v-4.28l4.28.951a.477.477,0,0,0,.079-.317v-4.043C605.058,337.838,604.9,337.6,604.662,337.6Z" transform="translate(-588.65 -331.1)" fill="#94cfe5"/><path d="M592.2,344.1v3.25l.793.079a.658.658,0,0,0,.634-.159l2.616-2.061c.079-.079.158-.159.158-.238Z" transform="translate(-580.152 -333.795)" fill="#ab9100"/><path d="M606.371,347.4v-4.6l-3.171,2.457v4.28a.477.477,0,0,0,.079.317Z" transform="translate(-598.841 -333.526)" fill="#124a61"/><path d="M606.292,341.5l-3.091,2.378c.079.079.158.159.238.159l4.042.872,3.171-2.457Z" transform="translate(-603.121 -333.256)" fill="#ab9100"/><path d="M606.371,335.618,603.2,334.9v-1.031a.617.617,0,0,1,.238-.555l2.616-2.061c.079-.079.159-.079.317-.159v4.518Z" transform="translate(-598.841 -331.1)" fill="#124a61"/></g><g transform="translate(628.895 309.095)"><path d="M581.244,329.1l-1.744,1.348c0,.079.079.079.159.079l2.061.555a.477.477,0,0,0,.317-.079l1.427-1.11c.079,0,.079-.079.079-.159Z" transform="translate(-577.043 -321.411)" fill="#ab9100"/><path d="M585.4,323.506v2.219c0,.079,0,.079.079.159l1.744-1.348V322c-.079,0-.079,0-.159.079l-1.427,1.11C585.479,323.268,585.4,323.348,585.4,323.506Z" transform="translate(-585.4 -319.939)" fill="#124a61"/><path d="M583.155,322.967l-2.219-.476v-2.3c0-.079-.079-.238-.159-.238l-2.14-.555h-.158v2.457l-2.219-.476H576.1v2.537l2.378.555v2.536l2.457.634a.277.277,0,0,1,.079-.159v-2.378l2.378.555a.277.277,0,0,1,.079-.159v-2.219Z" transform="translate(-574.277 -319.4)" fill="#94cfe5"/><path d="M576.4,326.6v1.823l.475.079a.477.477,0,0,0,.317-.079l1.427-1.11c.079,0,.079-.079.079-.159Z" transform="translate(-569.742 -320.893)" fill="#ab9100"/><path d="M584.144,328.437V325.9l-1.744,1.348v2.378c0,.079,0,.079.079.158Z" transform="translate(-579.943 -320.748)" fill="#124a61"/><path d="M584.144,325.2l-1.744,1.348c0,.079.079.079.158.079l2.22.476,1.744-1.347Z" transform="translate(-582.321 -320.603)" fill="#ab9100"/><path d="M584.144,321.857l-1.744-.4v-.555a.6.6,0,0,1,.158-.317l1.427-1.11c.079,0,.079-.079.159-.079v2.457Z" transform="translate(-579.943 -319.4)" fill="#124a61"/></g><g transform="translate(581.406 321.144)"><path d="M639.561,346.4l-2.061,1.665c.079.079.079.079.158.079l2.537.634a.594.594,0,0,0,.4-.079l1.744-1.347c.079,0,.079-.079.159-.159Z" transform="translate(-634.408 -337.047)" fill="#ab9100"/><path d="M645,339.6v2.7c0,.079,0,.159.079.159l2.061-1.665V337.7a.277.277,0,0,0-.159.079l-1.744,1.427A.675.675,0,0,0,645,339.6Z" transform="translate(-645 -335.243)" fill="#124a61"/><path d="M642.42,339.039l-2.695-.634v-2.854c0-.159-.079-.238-.238-.317l-2.616-.634h-.238v3.012l-2.7-.634H633.7v3.091l2.933.634v3.091l3.012.713c0-.079.079-.159.079-.238v-2.854l2.853.634c0-.079.079-.159.079-.238v-2.695C642.657,339.2,642.578,339.039,642.42,339.039Z" transform="translate(-631.56 -334.6)" fill="#94cfe5"/><path d="M633.8,343.5v2.219l.555.079a.594.594,0,0,0,.4-.079l1.744-1.348c.079,0,.079-.079.159-.159Z" transform="translate(-625.635 -336.445)" fill="#ab9100"/><path d="M643.34,345.591V342.5l-2.14,1.665v2.854c0,.079,0,.158.079.158Z" transform="translate(-638.188 -336.238)" fill="#124a61"/><path d="M643.261,341.7l-2.061,1.665c.079.079.079.079.159.079l2.7.634,2.14-1.665Z" transform="translate(-641.042 -336.072)" fill="#ab9100"/><path d="M643.34,337.712l-2.14-.476v-.713a.606.606,0,0,1,.159-.4l1.744-1.347a.277.277,0,0,0,.159-.079l.079,3.012Z" transform="translate(-638.188 -334.621)" fill="#124a61"/></g><g transform="translate(542.072 329.388)"><path d="M691.044,354.6l-1.744,1.348c0,.079.079.079.159.079l2.061.555a.477.477,0,0,0,.317-.079l1.427-1.11c.079,0,.079-.079.079-.159Z" transform="translate(-686.922 -346.991)" fill="#ab9100"/><path d="M695.1,349.006v2.219c0,.079,0,.079.079.158l1.744-1.347V347.5c-.079,0-.079,0-.158.079l-1.427,1.11C695.179,348.768,695.1,348.848,695.1,349.006Z" transform="translate(-695.1 -345.518)" fill="#124a61"/><path d="M692.855,348.567l-2.219-.476v-2.3c0-.079-.079-.238-.158-.238l-2.14-.555h-.159v2.457l-2.219-.476H685.8v2.536l2.378.555v2.536l2.457.634a.277.277,0,0,1,.079-.159v-2.378l2.378.555a.277.277,0,0,1,.079-.159v-2.219C693.014,348.646,692.934,348.567,692.855,348.567Z" transform="translate(-683.977 -345)" fill="#94cfe5"/><path d="M686.1,352.1v1.823l.476.079a.477.477,0,0,0,.317-.079l1.427-1.11c.079,0,.079-.079.079-.159Z" transform="translate(-679.442 -346.472)" fill="#ab9100"/><path d="M693.944,353.937V351.4l-1.744,1.348v2.378c0,.079,0,.079.079.159Z" transform="translate(-689.822 -346.327)" fill="#124a61"/><path d="M693.944,350.7l-1.744,1.348c0,.079.079.079.159.079l2.219.476,1.744-1.347Z" transform="translate(-692.2 -346.182)" fill="#ab9100"/><path d="M693.944,347.457l-1.744-.4v-.555a.6.6,0,0,1,.158-.317l1.427-1.11c.079,0,.079-.079.159-.079v2.457Z" transform="translate(-689.822 -345)" fill="#124a61"/></g><g transform="translate(646.072 353.722)"><path d="M560.948,383.1l-1.348,1.03.079.079,1.664.4c.079,0,.238,0,.238-.079l1.11-.872.079-.079Z" transform="translate(-557.698 -377.234)" fill="#ab9100"/><path d="M564.2,378.81v1.744c0,.079,0,.079.079.159l1.347-1.031V377.7c-.079,0-.079,0-.158.079l-1.11.872A.17.17,0,0,0,564.2,378.81Z" transform="translate(-564.2 -376.115)" fill="#124a61"/><path d="M562.786,378.474l-1.744-.4v-1.823a.171.171,0,0,0-.159-.159l-1.664-.4h-.159v1.9l-1.744-.4h-.159v1.982l1.823.4v1.982l1.9.476c0-.079.079-.079.079-.159V380.06l1.823.4c0-.079.079-.079.079-.159v-1.744C562.945,378.554,562.866,378.474,562.786,378.474Z" transform="translate(-555.89 -375.7)" fill="#94cfe5"/><path d="M557.3,381.2v1.427l.317.079c.079,0,.238,0,.238-.079l1.11-.872.079-.079Z" transform="translate(-552.148 -376.84)" fill="#ab9100"/><path d="M563.248,382.582V380.6l-1.348,1.03v1.823c0,.079,0,.079.079.159Z" transform="translate(-559.998 -376.716)" fill="#124a61"/><path d="M563.348,380.1,562,381.13l.079.079,1.744.4,1.347-1.03Z" transform="translate(-562 -376.612)" fill="#ab9100"/><path d="M563.248,377.6l-1.348-.317v-.4c0-.079.079-.158.079-.238l1.11-.872a.276.276,0,0,1,.159-.079v1.9Z" transform="translate(-559.998 -375.7)" fill="#124a61"/></g><g transform="translate(610.693 342.546)"><path d="M605.648,369.1l-1.348,1.03.079.079,1.664.4c.079,0,.238,0,.238-.079l1.11-.872.079-.079Z" transform="translate(-602.398 -363.155)" fill="#ab9100"/><path d="M608.9,364.71v1.744c0,.079,0,.079.079.159l1.348-1.03V363.6c-.079,0-.079,0-.159.079l-1.11.872C608.979,364.551,608.979,364.63,608.9,364.71Z" transform="translate(-608.9 -362.015)" fill="#124a61"/><path d="M607.487,364.374l-1.744-.4v-1.823a.171.171,0,0,0-.159-.159l-1.664-.4h-.159v1.9l-1.744-.4h-.159v1.982l1.823.4v1.982l1.9.476c0-.079.079-.079.079-.159V365.96l1.823.4c0-.079.079-.079.079-.159v-1.744C607.645,364.454,607.566,364.374,607.487,364.374Z" transform="translate(-600.59 -361.6)" fill="#94cfe5"/><path d="M601.9,367.2v1.427l.317.079c.079,0,.238,0,.238-.079l1.11-.872.079-.079Z" transform="translate(-596.668 -362.761)" fill="#ab9100"/><path d="M607.948,368.582V366.6l-1.348,1.03v1.823c0,.079,0,.079.079.159Z" transform="translate(-604.698 -362.637)" fill="#124a61"/><path d="M607.948,366.1l-1.348,1.03.079.079,1.744.4,1.348-1.03Z" transform="translate(-606.521 -362.533)" fill="#ab9100"/><path d="M607.948,363.5l-1.348-.317v-.4c0-.079.079-.159.079-.238l1.11-.872a.277.277,0,0,1,.159-.079v1.9Z" transform="translate(-604.698 -361.6)" fill="#124a61"/></g><g transform="translate(589.561 277.785)"><path d="M632.448,287.4l-1.347,1.03.079.079,1.665.4c.079,0,.238,0,.238-.079l1.11-.872.079-.079Z" transform="translate(-629.277 -281.455)" fill="#ab9100"/><path d="M635.6,283.11v1.744c0,.079,0,.079.079.158l1.348-1.03V282c-.079,0-.079,0-.158.079l-1.11.872C635.6,282.872,635.6,283.031,635.6,283.11Z" transform="translate(-635.6 -280.335)" fill="#124a61"/><path d="M634.128,282.674l-1.744-.4v-1.823a.17.17,0,0,0-.159-.159l-1.665-.4H630.4v1.9l-1.744-.4H628.5v1.982l1.823.4v1.982l2.061.555c0-.079.079-.079.079-.159v-1.823l1.823.4c0-.079.079-.079.079-.159v-1.744C634.287,282.833,634.207,282.754,634.128,282.674Z" transform="translate(-627.311 -279.9)" fill="#94cfe5"/><path d="M628.7,285.5v1.427l.317.079c.079,0,.238,0,.238-.079l1.11-.872.079-.079Z" transform="translate(-623.548 -281.061)" fill="#ab9100"/><path d="M634.748,286.882V284.9l-1.348,1.03v1.823c0,.079,0,.079.079.159Z" transform="translate(-631.577 -280.937)" fill="#124a61"/><path d="M634.748,284.4l-1.348,1.03.079.079,1.744.4,1.348-1.03Z" transform="translate(-633.4 -280.833)" fill="#ab9100"/><path d="M634.748,281.9l-1.348-.317v-.4c0-.079.079-.159.079-.238l1.11-.872a.276.276,0,0,1,.159-.079v1.9Z" transform="translate(-631.577 -279.921)" fill="#124a61"/></g><g transform="translate(573.337 303.071)"><path d="M652.847,319.3l-1.347,1.03.079.079,1.665.4c.079,0,.238,0,.238-.079l1.11-.872.079-.079Z" transform="translate(-649.597 -313.355)" fill="#ab9100"/><path d="M656.1,315.01v1.744c0,.079,0,.079.079.159l1.348-1.03V313.9c-.079,0-.079,0-.158.079l-1.11.872A.171.171,0,0,0,656.1,315.01Z" transform="translate(-656.1 -312.235)" fill="#124a61"/><path d="M654.687,314.574l-1.744-.4v-1.823a.17.17,0,0,0-.158-.159l-1.665-.4h-.159v1.9l-1.744-.4h-.159v1.982l1.823.4v1.982l1.9.476c0-.079.079-.079.079-.158V316.16l1.823.4c0-.079.079-.079.079-.159v-1.744Z" transform="translate(-647.79 -311.8)" fill="#94cfe5"/><path d="M649.2,317.4v1.427l.317.079c.079,0,.238,0,.238-.079l1.11-.872.079-.079Z" transform="translate(-644.048 -312.961)" fill="#ab9100"/><path d="M655.148,318.782V316.8l-1.347,1.03v1.823c0,.079,0,.079.079.159Z" transform="translate(-651.898 -312.837)" fill="#124a61"/><path d="M655.148,316.3l-1.348,1.03.079.079,1.744.4,1.347-1.03Z" transform="translate(-653.721 -312.733)" fill="#ab9100"/><path d="M655.148,313.8l-1.347-.317v-.4c0-.079.079-.159.079-.238l1.11-.872a.277.277,0,0,1,.158-.079v1.9Z" transform="translate(-651.898 -311.821)" fill="#124a61"/></g><g transform="translate(654.532 323.443)"><path d="M543.392,354.9l-3.091,2.378c.079.079.159.159.238.159l3.8.951a.658.658,0,0,0,.634-.159l2.616-2.061c.079-.079.159-.159.159-.238Z" transform="translate(-535.861 -341.108)" fill="#ab9100"/><path d="M551.3,344.774v4.043a.477.477,0,0,0,.079.317l3.091-2.378V342a.6.6,0,0,0-.317.159l-2.616,2.061A.856.856,0,0,0,551.3,344.774Z" transform="translate(-551.3 -338.433)" fill="#124a61"/><path d="M547.162,344l-4.043-.872v-4.2a.535.535,0,0,0-.317-.476L539,337.5h-.317v4.518l-3.963-.872H534.4v4.677l4.36.951v4.6l4.439,1.11a.477.477,0,0,0,.079-.317v-4.28l4.281.951a.477.477,0,0,0,.079-.317v-4.043C547.479,344.238,547.321,344,547.162,344Z" transform="translate(-531.071 -337.5)" fill="#94cfe5"/><path d="M534.8,350.5v3.25l.793.079a.658.658,0,0,0,.634-.159l2.616-1.982c.079-.079.159-.159.159-.238Z" transform="translate(-522.752 -340.195)" fill="#ab9100"/><path d="M548.971,353.7v-4.6l-3.171,2.457v4.28a.477.477,0,0,0,.079.317Z" transform="translate(-541.44 -339.905)" fill="#124a61"/><path d="M548.892,347.9l-3.091,2.378c.079.079.158.159.238.159l4.043.872,3.171-2.457Z" transform="translate(-545.721 -339.656)" fill="#ab9100"/><path d="M548.971,341.939l-3.171-.713v-.951a.617.617,0,0,1,.238-.555l2.616-2.061c.079-.079.159-.079.317-.159v4.439Z" transform="translate(-541.44 -337.5)" fill="#124a61"/></g><g transform="translate(592.878 357.765)"><path d="M621.191,398.3l-3.091,2.378c.079.079.159.159.238.159l3.8.951a.658.658,0,0,0,.634-.159l2.616-2.061c.079-.079.159-.159.159-.238Z" transform="translate(-613.582 -384.428)" fill="#ab9100"/><path d="M629.2,388.2v4.043a.477.477,0,0,0,.079.317l3.091-2.378V385.5a.6.6,0,0,0-.317.159l-2.616,2.061A.678.678,0,0,0,629.2,388.2Z" transform="translate(-629.2 -381.775)" fill="#124a61"/><path d="M625.062,387.4l-4.043-.872v-4.2a.536.536,0,0,0-.317-.476l-3.8-.951h-.317v4.518l-3.963-.872H612.3v4.677l4.36.951v4.6l4.439,1.11a.476.476,0,0,0,.079-.317v-4.28l4.28.951a.477.477,0,0,0,.079-.317v-4.043C625.459,387.638,625.3,387.4,625.062,387.4Z" transform="translate(-608.971 -380.821)" fill="#94cfe5"/><path d="M612.6,393.9v3.25l.793.079a.658.658,0,0,0,.634-.159l2.616-2.061c.079-.079.158-.159.158-.238Z" transform="translate(-600.472 -383.516)" fill="#ab9100"/><path d="M626.771,397.1v-4.6l-3.171,2.457v4.28a.477.477,0,0,0,.079.317Z" transform="translate(-619.161 -383.226)" fill="#124a61"/><path d="M626.691,391.3l-3.091,2.378c.079.079.159.159.238.159l4.043.872,3.171-2.457Z" transform="translate(-623.442 -382.977)" fill="#ab9100"/><path d="M626.771,385.318,623.6,384.6v-1.031a.617.617,0,0,1,.238-.555l2.7-2.061c.079-.079.159-.079.317-.159l-.079,4.518Z" transform="translate(-619.241 -380.8)" fill="#124a61"/></g><g transform="translate(552.514 303.15)"><path d="M672.292,329.4l-3.091,2.378c.079.079.159.159.238.159l3.8.951a.658.658,0,0,0,.634-.159l2.616-2.061c.079-.079.159-.158.159-.238Z" transform="translate(-664.761 -315.528)" fill="#ab9100"/><path d="M680.2,319.3v4.043a.477.477,0,0,0,.079.317l3.091-2.378V316.6a.6.6,0,0,0-.317.159l-2.616,2.061A.677.677,0,0,0,680.2,319.3Z" transform="translate(-680.2 -312.875)" fill="#124a61"/><path d="M676.062,318.4l-4.042-.872v-4.2a.535.535,0,0,0-.317-.476l-3.8-.951h-.317v4.518l-3.963-.872H663.3v4.677l4.36.951v4.6l4.439,1.11a.477.477,0,0,0,.079-.317v-4.28l4.281.951a.477.477,0,0,0,.079-.317v-4.043C676.379,318.717,676.221,318.479,676.062,318.4Z" transform="translate(-659.971 -311.9)" fill="#94cfe5"/><path d="M663.7,325v3.25l.793.079a.658.658,0,0,0,.634-.159l2.616-2.061c.079-.079.158-.159.158-.238Z" transform="translate(-651.652 -314.616)" fill="#ab9100"/><path d="M677.871,328.2v-4.6l-3.171,2.457v4.28a.477.477,0,0,0,.079.317Z" transform="translate(-670.34 -314.326)" fill="#124a61"/><path d="M677.792,322.4l-3.091,2.378c.079.079.159.159.238.159l4.043.872,3.171-2.457Z" transform="translate(-674.621 -314.077)" fill="#ab9100"/><path d="M677.871,316.418,674.7,315.7v-1.03a.617.617,0,0,1,.238-.555l2.616-2.061c.079-.079.159-.079.317-.159v4.518Z" transform="translate(-670.34 -311.9)" fill="#124a61"/></g><g transform="translate(625.886 371.716)"><path d="M583.461,410.2l-2.061,1.665c.079.079.079.079.159.079l2.537.634a.594.594,0,0,0,.4-.079l1.744-1.348c.079,0,.079-.079.158-.159Z" transform="translate(-578.388 -400.847)" fill="#ab9100"/><path d="M588.8,403.4v2.7c0,.079,0,.159.079.159l2.061-1.665V401.5a.277.277,0,0,0-.159.079l-1.744,1.427A.436.436,0,0,0,588.8,403.4Z" transform="translate(-588.8 -399.043)" fill="#124a61"/><path d="M586.219,402.839l-2.7-.634v-2.854c0-.159-.079-.238-.238-.317l-2.616-.634h-.238v3.012l-2.7-.634H577.5v3.091l2.933.634v3.091l3.012.713c0-.079.079-.159.079-.238v-2.854l2.854.634c0-.079.079-.159.079-.238v-2.7C586.457,403,586.3,402.839,586.219,402.839Z" transform="translate(-575.36 -398.4)" fill="#94cfe5"/><path d="M577.6,407.3v2.219l.555.079a.594.594,0,0,0,.4-.079l1.744-1.348c.079,0,.079-.079.159-.158Z" transform="translate(-569.436 -400.245)" fill="#ab9100"/><path d="M587.24,409.391V406.3l-2.14,1.665v2.854c0,.079,0,.158.079.158Z" transform="translate(-582.167 -400.038)" fill="#124a61"/><path d="M587.161,405.5l-2.061,1.665c.079.079.079.079.158.079l2.7.634,2.14-1.665Z" transform="translate(-585.02 -399.872)" fill="#ab9100"/><path d="M587.24,401.512l-2.14-.476v-.713a.606.606,0,0,1,.159-.4L587,398.579a.277.277,0,0,0,.159-.079l.079,3.012Z" transform="translate(-582.167 -398.421)" fill="#124a61"/></g><g transform="translate(613.14 281.907)"><path d="M595.692,302.6l-3.091,2.378c.079.079.159.159.238.159l3.8.951a.658.658,0,0,0,.634-.159l2.616-2.061c.079-.079.159-.159.159-.238Z" transform="translate(-588.161 -288.728)" fill="#ab9100"/><path d="M603.6,292.5v4.043a.477.477,0,0,0,.079.317l3.091-2.378V289.8a.6.6,0,0,0-.317.159l-2.616,2.061A.479.479,0,0,0,603.6,292.5Z" transform="translate(-603.6 -286.074)" fill="#124a61"/><path d="M599.562,291.6l-4.042-.872v-4.2a.535.535,0,0,0-.317-.476l-3.8-.951h-.317v4.518l-3.963-.872H586.8v4.677l4.36.951v4.6l4.439,1.11a.477.477,0,0,0,.079-.317v-4.28l4.281.951a.477.477,0,0,0,.079-.317v-4.043A.924.924,0,0,0,599.562,291.6Z" transform="translate(-583.55 -285.1)" fill="#94cfe5"/><path d="M587.1,298.2v3.25l.793.079a.658.658,0,0,0,.634-.159l2.616-2.061c.079-.079.159-.159.159-.238Z" transform="translate(-575.052 -287.816)" fill="#ab9100"/><path d="M601.271,301.4v-4.6l-3.171,2.457v4.28a.476.476,0,0,0,.079.317Z" transform="translate(-593.741 -287.526)" fill="#124a61"/><path d="M601.192,295.6l-3.091,2.378c.079.079.159.159.238.159l4.043.872,3.171-2.457Z" transform="translate(-598.021 -287.277)" fill="#ab9100"/><path d="M601.271,289.618,598.1,288.9v-1.03a.617.617,0,0,1,.238-.555l2.616-2.061c.079-.079.159-.079.317-.159v4.518Z" transform="translate(-593.741 -285.1)" fill="#124a61"/></g><g transform="translate(571.667 401.282)"><path d="M647.992,453.2l-3.092,2.378c.079.079.159.159.238.159l3.8.951a.658.658,0,0,0,.634-.159l2.616-2.061c.079-.079.159-.159.159-.238Z" transform="translate(-640.382 -439.328)" fill="#ab9100"/><path d="M656,443.1v4.043a.476.476,0,0,0,.079.317l3.091-2.378V440.4a.6.6,0,0,0-.317.159l-2.616,2.061C656.159,442.62,656,442.857,656,443.1Z" transform="translate(-656 -436.675)" fill="#124a61"/><path d="M651.862,442.2l-4.043-.872v-4.2a.535.535,0,0,0-.317-.476l-3.8-.951h-.317v4.518l-3.963-.872H639.1v4.677l4.36.951v4.6l4.439,1.11a.477.477,0,0,0,.079-.317v-4.28l4.28.951a.477.477,0,0,0,.079-.317v-4.043A.714.714,0,0,0,651.862,442.2Z" transform="translate(-635.771 -435.7)" fill="#94cfe5"/><path d="M639.4,448.8v3.25l.793.079a.658.658,0,0,0,.634-.159l2.616-2.061c.079-.079.158-.159.158-.238Z" transform="translate(-627.272 -438.416)" fill="#ab9100"/><path d="M653.571,452v-4.6l-3.171,2.457v4.28a.476.476,0,0,0,.079.317Z" transform="translate(-645.961 -438.126)" fill="#124a61"/><path d="M653.492,446.1l-3.091,2.378c.079.079.159.159.238.159l4.042.872,3.171-2.457Z" transform="translate(-650.242 -437.856)" fill="#ab9100"/><path d="M653.571,440.218,650.4,439.5v-1.03a.617.617,0,0,1,.238-.555l2.616-2.061c.079-.079.158-.079.317-.159v4.518Z" transform="translate(-645.961 -435.7)" fill="#124a61"/></g><g transform="translate(616.307 399.459)"><path d="M593.3,448.5l-2.7,2.061c.079.079.159.159.238.159l3.25.793a.7.7,0,0,0,.555-.079l2.3-1.744c.079-.079.159-.159.159-.238Z" transform="translate(-586.795 -436.531)" fill="#ab9100"/><path d="M600.1,439.7v3.488a.291.291,0,0,0,.079.238l2.695-2.061V437.4c-.079,0-.158.079-.238.079l-2.3,1.823A.436.436,0,0,0,600.1,439.7Z" transform="translate(-600.1 -434.229)" fill="#124a61"/><path d="M597.094,439.028l-3.488-.793v-3.646a.527.527,0,0,0-.317-.4l-3.329-.793h-.317v3.884l-3.408-.793h-.317v3.963l3.726.872v3.963l3.8.951a.477.477,0,0,0,.079-.317v-3.646l3.646.793a.477.477,0,0,0,.079-.317v-3.329C597.411,439.186,597.253,439.028,597.094,439.028Z" transform="translate(-583.302 -433.4)" fill="#94cfe5"/><path d="M585.9,444.7v2.774l.714.079a.7.7,0,0,0,.555-.079l2.3-1.744c.079-.079.159-.158.159-.238Z" transform="translate(-575.595 -435.743)" fill="#ab9100"/><path d="M598.174,447.463V443.5l-2.774,2.14v3.646a.291.291,0,0,0,.079.238Z" transform="translate(-591.675 -435.494)" fill="#124a61"/><path d="M598.2,442.4l-2.7,2.061c.079.079.159.159.238.159l3.409.793,2.774-2.14Z" transform="translate(-595.5 -435.266)" fill="#ab9100"/><path d="M598.274,437.3l-2.774-.634V435.8a.565.565,0,0,1,.238-.476l2.3-1.744a.291.291,0,0,1,.238-.079v3.8Z" transform="translate(-591.854 -433.421)" fill="#124a61"/></g><g transform="translate(561.223 350.472)"><path d="M663.757,385.5l-2.457,1.9c.079.079.159.079.159.159l3.012.713c.158,0,.4,0,.475-.079l2.061-1.665.158-.159Z" transform="translate(-657.733 -374.482)" fill="#ab9100"/><path d="M670,377.419v3.171a.291.291,0,0,0,.079.238l2.457-1.9V375.2c-.079,0-.159.079-.238.079l-2.061,1.665C670.159,377.1,670,377.261,670,377.419Z" transform="translate(-670 -372.346)" fill="#124a61"/><path d="M666.826,376.752l-3.171-.713V372.71a.436.436,0,0,0-.238-.4l-3.012-.713h-.317v3.567l-3.171-.713H656.6v3.726l3.488.793v3.646l3.488.872a.291.291,0,0,0,.079-.238v-3.409l3.408.793a.291.291,0,0,0,.079-.238v-3.171A.727.727,0,0,0,666.826,376.752Z" transform="translate(-653.984 -371.6)" fill="#94cfe5"/><path d="M656.8,382v2.616l.634.079c.158,0,.4,0,.476-.079l2.061-1.665.159-.159Z" transform="translate(-647.129 -373.756)" fill="#ab9100"/><path d="M668.137,384.546V380.9l-2.537,1.982v3.408a.291.291,0,0,0,.079.238Z" transform="translate(-662.112 -373.528)" fill="#124a61"/><path d="M668.057,379.9l-2.457,1.9c.079.079.158.079.158.159l3.171.713,2.537-1.982Z" transform="translate(-665.442 -373.321)" fill="#ab9100"/><path d="M668.137,375.167l-2.537-.555v-.793a.565.565,0,0,1,.238-.476l2.061-1.665a.291.291,0,0,1,.238-.079v3.567Z" transform="translate(-662.112 -371.6)" fill="#124a61"/></g><g transform="translate(648.438 380.039)"><path d="M551.092,426.4,548,428.778c.079.079.159.158.238.158l3.8.951a.658.658,0,0,0,.634-.159l2.616-2.061c.079-.079.159-.158.159-.238Z" transform="translate(-543.561 -412.528)" fill="#ab9100"/><path d="M559,416.3v4.043a.476.476,0,0,0,.079.317l3.091-2.378V413.6a.6.6,0,0,0-.317.159l-2.616,2.061C559.159,415.819,559,416.057,559,416.3Z" transform="translate(-559 -409.875)" fill="#124a61"/><path d="M554.862,415.4l-4.043-.872v-4.2a.535.535,0,0,0-.317-.476l-3.8-.951h-.317v4.518l-3.963-.872H542.1v4.677l4.36.951v4.6l4.439,1.11a.477.477,0,0,0,.079-.317v-4.28l4.28.951a.476.476,0,0,0,.079-.317v-4.043A1.347,1.347,0,0,0,554.862,415.4Z" transform="translate(-538.771 -408.9)" fill="#94cfe5"/><path d="M542.5,422v3.25l.793.079a.658.658,0,0,0,.634-.159l2.616-2.061c.079-.079.159-.159.159-.238Z" transform="translate(-530.451 -411.616)" fill="#ab9100"/><path d="M556.671,425.2v-4.6l-3.171,2.457v4.28a.476.476,0,0,0,.079.317Z" transform="translate(-549.14 -411.326)" fill="#124a61"/><path d="M556.492,419.3l-3.091,2.378c.079.079.159.159.238.159l4.043.872,3.171-2.457Z" transform="translate(-553.242 -411.056)" fill="#ab9100"/><path d="M556.671,413.418,553.5,412.7v-1.03a.617.617,0,0,1,.238-.555l2.616-2.061c.079-.079.158-.079.317-.159v4.518Z" transform="translate(-549.14 -408.9)" fill="#124a61"/></g><g transform="translate(687.782 461.128)"><path d="M508.589,518.2l-1.189.951.079.079,1.506.4a.291.291,0,0,0,.238-.079l1.03-.793.079-.079Z" transform="translate(-505.656 -512.651)" fill="#ab9100"/><path d="M511.6,514.11V515.7a.078.078,0,0,0,.079.079l1.268-.951V513c-.079,0-.079,0-.079.079l-1.031.793C511.6,513.951,511.6,514.031,511.6,514.11Z" transform="translate(-511.6 -511.573)" fill="#124a61"/><path d="M510.337,513.836l-1.585-.317v-1.665a.17.17,0,0,0-.159-.158l-1.506-.4h-.159v1.744l-1.585-.317h-.159v1.823l1.744.4v1.823l1.744.4v-1.823l1.664.4V514C510.5,513.916,510.416,513.836,510.337,513.836Z" transform="translate(-503.995 -511.221)" fill="#94cfe5"/><path d="M505.2,516.4v1.268l.317.079a.291.291,0,0,0,.238-.079l1.03-.793.079-.079Z" transform="translate(-500.444 -512.278)" fill="#ab9100"/><path d="M510.868,517.723V515.9l-1.268.951v1.665a.078.078,0,0,0,.079.079Z" transform="translate(-507.935 -512.174)" fill="#124a61"/><path d="M510.868,515.4l-1.268.951.079.079,1.585.317,1.268-.951Z" transform="translate(-509.6 -512.071)" fill="#ab9100"/><path d="M510.868,513.023l-1.268-.317v-.4c0-.079.079-.158.079-.238l1.03-.793.079-.079.079,1.823Z" transform="translate(-507.935 -511.2)" fill="#124a61"/></g><g transform="translate(697.018 462.396)"><path d="M489.17,521.361l1.506-.159c-.159-1.9-.079-5.311.951-6.5a1.018,1.018,0,0,1,.793-.317,2.113,2.113,0,0,1,1.585.713c1.347,1.506,1.506,4.994,1.427,6.183l1.506.079c0-.238.317-5.073-1.823-7.372a3.55,3.55,0,0,0-2.7-1.189,2.532,2.532,0,0,0-1.9.872C488.695,515.654,489.091,520.806,489.17,521.361Z" transform="translate(-487.025 -512.8)" fill="#0075a1"/><path d="M492.339,522.4H468.084a1.917,1.917,0,0,0-1.9,2.061l.872,9.67a8.579,8.579,0,0,0,8.561,8.006h8.64a8.6,8.6,0,0,0,8.561-7.689l1.427-9.908A1.894,1.894,0,0,0,492.339,522.4Z" transform="translate(-466.177 -514.79)" fill="#124a61"/></g><g transform="translate(710.383 462.566)"><path d="M475.8,535.447a3.538,3.538,0,1,1,3.25,3.8A3.55,3.55,0,0,1,475.8,535.447Z" transform="translate(-475.786 -516.988)" fill="#fe9764"/><g transform="translate(5.957)"><path d="M460.771,531.71l3.408-16.567a2.937,2.937,0,0,1,4.122-1.823,3.909,3.909,0,0,1,1.823,4.756l-3.408,16.567a6.011,6.011,0,0,1-6.658,4.28l-15.932-2.933,1.03-7.055Z" transform="translate(-444.125 -513.013)" fill="#94cfe5"/></g></g><path d="M465.317,609.479l-1.189,3.963H458.5l.872-4.043,5.945.079" transform="translate(265.847 -70.432)" fill="#fe9764"/><path d="M439.058,609.5l2.219,3.884-5.866-.079-3.012-3.8h6.658" transform="translate(310.545 -70.453)" fill="#fe9764"/><g transform="translate(538.347 371.954)"><path d="M690.091,416.2,687,418.578c.079.079.159.159.238.159l3.8.951a.658.658,0,0,0,.634-.159l2.616-2.061c.079-.079.159-.159.159-.238Z" transform="translate(-682.482 -402.328)" fill="#ab9100"/><path d="M698.1,406.1v4.043a.477.477,0,0,0,.079.317l3.091-2.378V403.4a.6.6,0,0,0-.317.159l-2.616,2.061C698.259,405.62,698.1,405.857,698.1,406.1Z" transform="translate(-698.1 -399.675)" fill="#124a61"/><path d="M693.962,405.2l-4.043-.872v-4.2a.535.535,0,0,0-.317-.476l-3.8-.951h-.317v4.518l-3.963-.872H681.2v4.677l4.36.951v4.6l4.439,1.11a.477.477,0,0,0,.079-.317v-4.28l4.28.951a.476.476,0,0,0,.079-.317v-4.043C694.279,405.438,694.2,405.279,693.962,405.2Z" transform="translate(-677.871 -398.7)" fill="#94cfe5"/><path d="M681.6,411.8v3.25l.793.079a.658.658,0,0,0,.634-.159l2.616-2.061c.079-.079.159-.159.159-.238Z" transform="translate(-669.552 -401.416)" fill="#ab9100"/><path d="M695.671,415v-4.6l-3.171,2.457v4.28a.476.476,0,0,0,.079.317Z" transform="translate(-688.061 -401.126)" fill="#124a61"/><path d="M695.592,409.1l-3.091,2.378c.079.079.159.159.238.159l4.043.872,3.171-2.457Z" transform="translate(-692.342 -400.856)" fill="#ab9100"/><path d="M695.771,403.218,692.6,402.5v-1.03a.617.617,0,0,1,.238-.555l2.616-2.061c.079-.079.158-.079.317-.159v4.518Z" transform="translate(-688.24 -398.7)" fill="#124a61"/></g><g transform="translate(446.792 376.801)"><g transform="translate(0 23.28)"><path d="M779.007,581.632a1.021,1.021,0,0,0,1.03-.872l29.408-145.3a1.088,1.088,0,0,0-2.14-.4L777.9,580.364a1.123,1.123,0,0,0,.872,1.268Z" transform="translate(-777.885 -434.185)" fill="#94cfe5"/><path d="M751.707,581.632a1.021,1.021,0,0,0,1.03-.872l29.408-145.3a1.088,1.088,0,1,0-2.14-.4L750.6,580.364a1.123,1.123,0,0,0,.872,1.268Z" transform="translate(-728.945 -434.185)" fill="#94cfe5"/><path d="M786.41,608.92h21.085a1.11,1.11,0,0,0,0-2.22H786.41a1.11,1.11,0,0,0,0,2.22Z" transform="translate(-782.91 -469.954)" fill="#94cfe5"/><path d="M783.61,594.32h21.085a1.11,1.11,0,1,0,0-2.219H783.61a1.134,1.134,0,0,0-1.11,1.11A1.191,1.191,0,0,0,783.61,594.32Z" transform="translate(-777.891 -466.927)" fill="#94cfe5"/><path d="M780.71,579.72h21.085a1.11,1.11,0,0,0,0-2.22H780.71a1.11,1.11,0,0,0,0,2.22Z" transform="translate(-772.692 -463.899)" fill="#94cfe5"/><path d="M777.91,565.02h21.085a1.11,1.11,0,0,0,0-2.219H777.91a1.134,1.134,0,0,0-1.11,1.11A1.191,1.191,0,0,0,777.91,565.02Z" transform="translate(-767.672 -460.852)" fill="#94cfe5"/><path d="M775.01,550.42h21.085a1.134,1.134,0,0,0,1.11-1.11,1.084,1.084,0,0,0-1.11-1.11H775.01a1.134,1.134,0,0,0-1.11,1.11A1.084,1.084,0,0,0,775.01,550.42Z" transform="translate(-762.474 -457.825)" fill="#94cfe5"/><path d="M772.21,535.719h21.085a1.11,1.11,0,1,0,0-2.219H772.21a1.134,1.134,0,0,0-1.11,1.11A1.191,1.191,0,0,0,772.21,535.719Z" transform="translate(-757.454 -454.777)" fill="#94cfe5"/><path d="M769.31,521.119h21.085a1.11,1.11,0,0,0,0-2.219H769.31a1.134,1.134,0,0,0-1.11,1.11A1.084,1.084,0,0,0,769.31,521.119Z" transform="translate(-752.256 -451.75)" fill="#94cfe5"/><path d="M766.51,506.42h21.085a1.134,1.134,0,0,0,1.11-1.11,1.084,1.084,0,0,0-1.11-1.11H766.51a1.11,1.11,0,1,0,0,2.219Z" transform="translate(-747.236 -448.702)" fill="#94cfe5"/><path d="M763.61,491.82h21.085a1.134,1.134,0,0,0,1.11-1.11,1.084,1.084,0,0,0-1.11-1.11H763.61a1.134,1.134,0,0,0-1.11,1.11A1.084,1.084,0,0,0,763.61,491.82Z" transform="translate(-742.037 -445.675)" fill="#94cfe5"/><path d="M760.81,477.219h19.975a1.11,1.11,0,1,0,0-2.219H760.81a1.134,1.134,0,0,0-1.11,1.11A1.084,1.084,0,0,0,760.81,477.219Z" transform="translate(-735.908 -442.647)" fill="#94cfe5"/><path d="M758.01,462.52h19.975a1.11,1.11,0,0,0,0-2.219H758.01a1.134,1.134,0,0,0-1.11,1.11A1.191,1.191,0,0,0,758.01,462.52Z" transform="translate(-730.889 -439.6)" fill="#94cfe5"/><path d="M755.11,447.92h19.975a1.134,1.134,0,0,0,1.11-1.11,1.084,1.084,0,0,0-1.11-1.11H755.11a1.134,1.134,0,0,0-1.11,1.11A1.084,1.084,0,0,0,755.11,447.92Z" transform="translate(-725.69 -436.572)" fill="#94cfe5"/></g><g transform="translate(29.385 23.336)"><path d="M770.583,581.647h.238a1.068,1.068,0,0,0,.793-1.268l-32.261-145.3a1.057,1.057,0,1,0-2.061.476l32.261,145.3A1.116,1.116,0,0,0,770.583,581.647Z" transform="translate(-737.256 -434.256)" fill="#0075a1"/><path d="M743.283,581.647h.238a1.067,1.067,0,0,0,.793-1.268l-32.261-145.3a1.058,1.058,0,0,0-2.061.476l32.261,145.3A1.205,1.205,0,0,0,743.283,581.647Z" transform="translate(-688.316 -434.256)" fill="#0075a1"/><path d="M713.21,608.92h21.085a1.11,1.11,0,0,0,0-2.22H713.21a1.134,1.134,0,0,0-1.11,1.11A1.191,1.191,0,0,0,713.21,608.92Z" transform="translate(-681.072 -470.01)" fill="#0075a1"/><path d="M716.51,594.32h21.085a1.11,1.11,0,1,0,0-2.219H716.51a1.134,1.134,0,0,0-1.11,1.11A1.084,1.084,0,0,0,716.51,594.32Z" transform="translate(-686.988 -466.983)" fill="#0075a1"/><path d="M719.91,579.72h21.085a1.11,1.11,0,1,0,0-2.22H719.91a1.11,1.11,0,0,0,0,2.22Z" transform="translate(-693.083 -463.955)" fill="#0075a1"/><path d="M723.31,565.02h21.085a1.11,1.11,0,0,0,0-2.219H723.31a1.134,1.134,0,0,0-1.11,1.11A1.191,1.191,0,0,0,723.31,565.02Z" transform="translate(-699.178 -460.908)" fill="#0075a1"/><path d="M726.789,550.42h21.005a1.134,1.134,0,0,0,1.11-1.11,1.084,1.084,0,0,0-1.11-1.11H726.71a1.134,1.134,0,0,0-1.11,1.11A1.152,1.152,0,0,0,726.789,550.42Z" transform="translate(-705.273 -457.881)" fill="#0075a1"/><path d="M730.01,535.719h21.085a1.11,1.11,0,1,0,0-2.219H730.01a1.134,1.134,0,0,0-1.11,1.11A1.191,1.191,0,0,0,730.01,535.719Z" transform="translate(-711.189 -454.833)" fill="#0075a1"/><path d="M733.31,521.119h21.085a1.11,1.11,0,0,0,0-2.219H733.31a1.133,1.133,0,0,0-1.11,1.11A1.084,1.084,0,0,0,733.31,521.119Z" transform="translate(-717.104 -451.806)" fill="#0075a1"/><path d="M736.71,506.42h21.085a1.134,1.134,0,0,0,1.11-1.11,1.084,1.084,0,0,0-1.11-1.11H736.71a1.134,1.134,0,0,0-1.11,1.11A1.084,1.084,0,0,0,736.71,506.42Z" transform="translate(-723.2 -448.758)" fill="#0075a1"/><path d="M740.11,491.82h21.085a1.134,1.134,0,0,0,1.11-1.11,1.084,1.084,0,0,0-1.11-1.11H740.11a1.11,1.11,0,1,0,0,2.219Z" transform="translate(-729.294 -445.731)" fill="#0075a1"/><path d="M743.51,477.219h19.975a1.11,1.11,0,0,0,0-2.219H743.51a1.134,1.134,0,0,0-1.11,1.11A1.191,1.191,0,0,0,743.51,477.219Z" transform="translate(-734.28 -442.703)" fill="#0075a1"/><path d="M746.81,462.52h19.975a1.11,1.11,0,0,0,0-2.219H746.81a1.134,1.134,0,0,0-1.11,1.11A1.084,1.084,0,0,0,746.81,462.52Z" transform="translate(-740.196 -439.656)" fill="#0075a1"/><path d="M750.21,447.92h19.975a1.134,1.134,0,0,0,1.11-1.11,1.084,1.084,0,0,0-1.11-1.11H750.21a1.11,1.11,0,1,0,0,2.219Z" transform="translate(-746.291 -436.628)" fill="#0075a1"/></g><g transform="translate(30.408)"><path d="M746.6,548.1l11.732.079v-4.6l-7.055-.079a4.618,4.618,0,0,0-4.677,4.6Z" transform="translate(-732.369 -433.57)" fill="#ab9100"/><path d="M734.3,546.8l11.731.079v-4.6l-7.055-.079a4.722,4.722,0,0,0-4.677,4.6Z" transform="translate(-710.319 -433.3)" fill="#ab9100"/><g transform="translate(58.87)"><path d="M697.692,410.748a3.37,3.37,0,1,1,4.756-.317A3.381,3.381,0,0,1,697.692,410.748Z" transform="translate(-696.515 -404.815)" fill="#fe9764"/></g><g transform="translate(0 27.293)"><path d="M777.141,440.319a2.928,2.928,0,1,1-4.122-.4A2.907,2.907,0,0,1,777.141,440.319Z" transform="translate(-771.947 -439.247)" fill="#fe9764"/></g><g transform="translate(19.462 3.951)"><path d="M740.017,429.3l-.317,6.817,4.677.476.317-7.134Z" transform="translate(-732.724 -413.843)" fill="#fe9764"/><ellipse cx="6.262" cy="6.262" rx="6.262" ry="6.262" transform="translate(13.1 19.531) rotate(-156.734)" fill="#fe9764"/><path d="M732.883,421.7l1.9.793a.569.569,0,0,1,0,1.03l-1.585.872-.713-.713Z" transform="translate(-717.426 -412.267)" fill="#fe9764"/><g transform="translate(0)"><g clip-path="url(#c)"><path d="M746.859,424.134a6.25,6.25,0,1,1-4.359-7.689A6.236,6.236,0,0,1,746.859,424.134Z" transform="translate(-731.084 -411.134)" fill="#0e1333"/></g></g><path d="M746.636,423.746a1.682,1.682,0,1,1-1.189-2.061A1.716,1.716,0,0,1,746.636,423.746Z" transform="translate(-737.599 -412.253)" fill="#fe9764"/><path d="M744.8,413.816c-1.11,2.219-2.457,1.347-4.835,2.14-3.012,1.03-3.408,3.726-2.457,5.073,0,0,.951,1.348,1.189,1.823.476.793-.476,1.744.317,3.567s3.329.793,3.329.793l-1.427-1.585-1.268-5.39,3.567-2.933,4.756-1.11C751.454,412.706,746.619,410.011,744.8,413.816Z" transform="translate(-735.125 -410.249)" fill="#0e1333"/></g><g transform="translate(19.383 50.481)"><rect width="3.171" height="6.579" transform="translate(12.412 51.85)" fill="#fe9764"/><rect width="3.171" height="6.579" transform="translate(2.457 52.871)" fill="#fe9764"/><path d="M740.661,468.5h9.512l-1.585,55.011h-4.914l-.793-45.42h-3.488l-.793,45.42h-4.914L732.1,468.5Z" transform="translate(-732.1 -468.5)" fill="#124a61"/></g><path d="M704.7,435.279l6.024,6.262,6.817-8.244a5.307,5.307,0,0,1,4.915-3.091l8.323-.951a5.11,5.11,0,0,1,1.585.238c1.348-.634,2.616-1.268,3.963-1.9,1.427-.713,2.854-1.427,4.2-2.14l1.9-1.03a5.546,5.546,0,0,0,1.348-1.03l.317-.317.4-.4.793-.872,1.585-1.744c1.11-1.189,2.14-2.378,3.171-3.567,2.14-2.378,4.2-4.835,6.183-7.293l4.835,4.28c-2.219,2.3-4.36,4.6-6.421,6.975l-3.091,3.567-3.171,3.8a13.281,13.281,0,0,1-2.3,1.982,2.782,2.782,0,0,1-.634.4l-.476.317-1.03.634c-1.347.872-2.695,1.744-3.963,2.616-1.189.793-2.378,1.585-3.567,2.457l-.634,20.054H717.7l-.4-12.366-3.8,4.6a3.3,3.3,0,0,1-2.378,1.189h-.159a3.049,3.049,0,0,1-2.3-.951l-8.561-8.8Z" transform="translate(-698.235 -405.724)" fill="#94cfe5"/></g></g></g></svg>