<svg xmlns="http://www.w3.org/2000/svg" xmlns:xlink="http://www.w3.org/1999/xlink" width="420.827" height="350.058" viewBox="0 0 420.827 350.058"><defs><clipPath id="a"><path d="M865.444,243.657l-1.275-1.19s-.68.765-1.956,1.956c.68-3.826.51-7.4-.765-10.2-2.3-4.847-8.248,0-19.813-1.19a35.562,35.562,0,0,1-5.442-1.02c1.786-.425,2.891-.6,2.891-.6l-.17-1.786a24.149,24.149,0,0,0-5.867,1.446c-.51-.17-1.105-.34-1.616-.51-8.5-3.146-14.541,3.231-16.751,11.9l-.17-.425-26.02,14.115.425,1.02-1.616.85-5.867,3.061c-4-7.058-8.588-14.711-12.67-20.493a6.539,6.539,0,0,0-1.531-1.531,4.319,4.319,0,0,0-2.721-1.786,6.277,6.277,0,0,0,2.976-8.163,6.342,6.342,0,0,0-6.633-3.656,19.307,19.307,0,0,0,4.592-6.718,2.757,2.757,0,0,0,2.891-.34,7.084,7.084,0,0,0,2.551-5.442,6.944,6.944,0,0,0-2.551-5.442,2.453,2.453,0,0,0-1.956-.6,19.1,19.1,0,0,0-3.571-7.483l.68-.17a2.667,2.667,0,0,0,2.041-3.146c-1.956-7.058-11.734-9.184-21.428-8.5,0-.17.085-.255.085-.425a2.472,2.472,0,1,0-4.932.34,2,2,0,0,0,.17.68c-7.058,1.105-13.35,3.486-15.561,6.207-4.847,6.037-2.806,8.758,2.126,9.779a15.03,15.03,0,0,0-.34,1.7,25.59,25.59,0,0,0-.17,2.976,6.846,6.846,0,0,0-1.276,4.082,7.071,7.071,0,0,0,2.551,5.442,2.891,2.891,0,0,0,1.276.6,15.223,15.223,0,0,0,2.976,4.082,6.429,6.429,0,0,0-4.422,3.571,6.213,6.213,0,0,0-.34,4.082,6.259,6.259,0,0,0-2.3,4.337,6.615,6.615,0,0,0,.68,3.4,3.776,3.776,0,0,0-.68.935l-.6.6c-2.126,2.891-21,28.316-21,42.771,0,5.527,2.806,11.054,6.377,15.9l-4.422,2.3a11.449,11.449,0,0,0-5.952,7.653,10.556,10.556,0,0,0-.255,2.3,9.7,9.7,0,0,0,.17,2.211c.085.34.085.68.17,1.02a10.1,10.1,0,0,0,.68,1.871l.085.085a9.871,9.871,0,0,0,1.105,1.871,17.753,17.753,0,0,0,1.7,1.871,9.058,9.058,0,0,0,2.381,1.616,11.66,11.66,0,0,0,9.694.34l12.075-5.1,5.187-2.211c0,2.3-.085,4.337-.17,6.122h0c-.255,1.276-.425,2.551-.6,3.741h-2.126v1.02H730.5a52.442,52.442,0,0,0,.765,18.112h0c0,.425,3.911,50.509,1.871,67.176-1.7,14.115-4.932,48.384-7.143,62.669l2.381.085-.34,2.891a1.651,1.651,0,0,0-1.786.935c-1.19,2.636-1.956,7.143.34,7.143,4.932,0,3.656-.085,5.7-.085,2.041-.085,3.826.085,8.333.085,3.061,0,4.337-1.531,1.19-2.381-3.486-.935-5.7-2.976-7.568-4.592a1.867,1.867,0,0,0-1.02-.425l-.68-.085.765-3.4,1.956.085c5.017-14.456,12.16-50.254,13.945-62.414,2.211-14.711,2.126-51.7,2.126-62.244h2.3c1.7,10.8,7.4,47.278,7.4,60.968,0,14.115-1.531,50.85-1.7,63.945l3.061.17-.255,2.3a1.712,1.712,0,0,0-1.786.935c-1.361,2.3-2.551,7.143,1.275,7.143,4.932,0,4.422-.34,6.462-.34,2.041-.085,5.357.34,9.864.34s4.337-1.616,1.105-2.041c-2.976-.425-8.843-3.316-10.8-4.847a1.866,1.866,0,0,0-1.02-.425l-.68-.085.6-2.721,1.616.085c2.211-14.285,6.122-49.319,7.993-61.479,2.041-13.775-1.02-51.275-2.126-65.73.85-13.52.255-26.53.255-26.53h0c0-.085-.425-10.459-1.19-23.894l15.051-6.292a18.413,18.413,0,0,0,9.1,2.126c11.394-1.02,23.554-7.228,26.955-9.1h0c2.976-1.531,6.973-4.847,8.163-9.184a19.953,19.953,0,0,0,10.714-1.7c4.762-2.211,9.694-7.653,13.435-14.03a22.905,22.905,0,0,0,1.36-2.466,38.881,38.881,0,0,0,4.507-3.741l-1.275-1.19a10.367,10.367,0,0,1-1.531,1.361c.68-1.7,1.275-3.316,1.786-5.017C864,245.187,865.444,243.742,865.444,243.657Zm-94.216,22.7c-.085-.68-.085-1.361-.17-2.041.34.51.68,1.105,1.02,1.616Zm-58.673,16.5c0-6.207,6.462-18.112,12.755-27.806.51,3.571,1.105,7.483,1.616,11.564A52.389,52.389,0,0,1,722.5,277.84a6.261,6.261,0,0,0,2.211,8.588,6.341,6.341,0,0,0,3.231.85,6.61,6.61,0,0,0,1.361-.17c0,.255.085.6.085.85l-2.721,1.361-8.843,4.592C714.851,290.085,712.556,286.088,712.556,282.857Z" transform="translate(-698.1 -184.894)"/></clipPath></defs><g transform="translate(-684.7 -131.625)"><g transform="translate(684.7 131.626)"><path d="M1035.519,499.444a13.472,13.472,0,0,1-12.84-9.269l-60.2-178.824a13.553,13.553,0,0,1,25.68-8.673l60.2,178.824a13.565,13.565,0,0,1-8.5,17.177A12.6,12.6,0,0,1,1035.519,499.444Z" transform="translate(-726.17 -155.849)" fill="#ebb5ad"/><path d="M848.9,499.424a14.774,14.774,0,0,1-3.316-.425,13.5,13.5,0,0,1-9.864-16.5L880.2,303.679a13.581,13.581,0,1,1,26.36,6.548L862.085,489.05A13.6,13.6,0,0,1,848.9,499.424Z" transform="translate(-707.24 -155.829)" fill="#ebb5ad"/><path d="M688.016,542.133h414.194a3.32,3.32,0,0,0,3.316-3.316h0a3.32,3.32,0,0,0-3.316-3.316H688.016a3.32,3.32,0,0,0-3.316,3.316h0A3.376,3.376,0,0,0,688.016,542.133Z" transform="translate(-684.7 -192.075)" fill="#fff"/><g transform="translate(51.19 18.345)"><path d="M1048.172,343.248H756L777.513,153.2H1069.6Z" transform="translate(-746.561 -153.2)" fill="#ffca55" opacity="0.3"/><path d="M785.489,169.2l-3.061,27.466L761,386.8h292.087l21.428-190.133,3.146-27.466Z" transform="translate(-747.31 -155.595)" fill="#ab9100" opacity="0.4"/><g transform="translate(0 9.439)"><path d="M1048.172,386.733H756L777.513,196.6H1069.6Z" transform="translate(-746.561 -169.134)" fill="#94cfe5"/><path d="M1042.861,391.29H767.1l10.374-92.09h275.761Z" transform="translate(-748.223 -184.491)" fill="#fff"/><g transform="translate(0 121.257)"><path d="M823.64,381.644H744.9l8.5-74.744h78.655Z" transform="translate(-744.9 -306.9)" fill="#cf4503"/><path d="M818.249,375.618H754.9l6.8-60.118h63.349Z" transform="translate(-746.397 -308.187)" fill="#94cfe5"/></g><g transform="translate(30.697 82.227)"><path d="M841.713,281.068H781L783.211,261h60.713Z" transform="translate(-781 -261)" fill="#f9f4ea"/><path d="M821.551,267.721H792.3l.34-2.721h29.251Z" transform="translate(-782.691 -261.599)" fill="#33333d"/></g><g transform="translate(214.793 109.012)"><path d="M1078.34,334.761H999.6l4.762-42.261h78.74Z" transform="translate(-997.814 -292.5)" fill="#cf4503"/><path d="M1077.055,352.961H998.4l.34-3.061H1077.4Z" transform="translate(-997.635 -301.091)" fill="#124a61"/><path d="M1076.24,360.361H997.5l.34-3.061h78.74Z" transform="translate(-997.5 -302.199)" fill="#124a61"/></g><path d="M926.013,272.668H865.3l2.211-20.068h60.713Z" transform="translate(-762.921 -177.516)" fill="#f9f4ea"/><g transform="translate(190.983 82.227)"><path d="M1101.9,281.068H969.5L971.8,261h132.4Z" transform="translate(-969.5 -261)" fill="#124a61"/><path d="M1027.709,267.721H977.2l.255-2.721h50.51Z" transform="translate(-970.652 -261.599)" fill="#f9f4ea"/><path d="M1027.009,273.906H976.5l.255-2.806h50.509Z" transform="translate(-970.548 -262.512)" fill="#f9f4ea"/></g><g transform="translate(15.901 42.176)"><path d="M1039.276,241.621H763.6l3.061-27.721h275.761Z" transform="translate(-763.6 -213.9)" fill="#fff"/><path d="M1079.768,238.468H1059.7L1062,218.4h20.068Z" transform="translate(-807.918 -214.574)" fill="#124a61"/><path d="M1045.968,238.468H1025.9l2.3-20.068h20.068Z" transform="translate(-802.859 -214.574)" fill="#cf4503"/><path d="M1012.168,238.468H992.1l2.3-20.068h20.068Z" transform="translate(-797.8 -214.574)" fill="#cf4503"/><path d="M841.585,223.412H775.6l.425-3.912h65.985Z" transform="translate(-765.396 -214.738)" fill="#ebb5ad"/><path d="M840.6,231.512H774.7l.425-3.911h65.985Z" transform="translate(-765.261 -215.951)" fill="#ebb5ad"/><path d="M803.051,239.612H773.8l.425-3.912h29.251Z" transform="translate(-765.127 -217.163)" fill="#ebb5ad"/></g><g transform="translate(122.192 130.185)"><path d="M969.44,367.161H890.7l4.847-42.261H974.2Z" transform="translate(-888.914 -318.523)" fill="#cf4503"/><path d="M968.155,385.361H889.5l.34-3.061H968.5Z" transform="translate(-888.735 -327.114)" fill="#124a61"/><path d="M967.34,392.761H888.6l.34-3.061h78.74Z" transform="translate(-888.6 -328.221)" fill="#124a61"/><path d="M975.187,343.675H945l2.976-26.275h30.187Z" transform="translate(-897.042 -317.4)" fill="#94cfe5"/></g><g transform="translate(30.952)"><path d="M1073.387,191.766H781.3l3.061-27.466h292.087Z" transform="translate(-781.3 -164.3)" fill="#d3d3d3"/><path d="M1069.688,188.213H788.4l1.02-9.013h281.288Z" transform="translate(-782.363 -166.53)" fill="#f2f2f2"/><path d="M794.677,174.777H790l.51-4.677h4.762Z" transform="translate(-782.602 -165.168)" fill="#f9f4ea"/><path d="M804.562,174.777H799.8l.6-4.677h4.677Z" transform="translate(-784.069 -165.168)" fill="#f9f4ea"/><path d="M814.377,174.777H809.7l.51-4.677h4.677Z" transform="translate(-785.551 -165.168)" fill="#f9f4ea"/></g></g></g><g transform="translate(155.47)"><path d="M936.212,151.857l-8.5,28.231a2.94,2.94,0,0,1-3.656,1.956l-54.421-16.326a2.94,2.94,0,0,1-1.956-3.656l8.5-28.231a2.935,2.935,0,0,1,1.531-1.786,2.638,2.638,0,0,1,2.126-.17L934.256,148.2a3.25,3.25,0,0,1,1.7,1.275A3.339,3.339,0,0,1,936.212,151.857Z" transform="translate(-867.535 -131.641)" fill="#cf4503"/><path d="M937.647,149.461l-28.486,11.394a10.421,10.421,0,0,1-12.33-3.656L879.4,131.944a2.638,2.638,0,0,1,2.126-.17L935.947,148.1A3.478,3.478,0,0,1,937.647,149.461Z" transform="translate(-869.311 -131.626)" fill="#ebb5ad"/></g><g transform="translate(208.575 213.744)"><path d="M956.7,385.55a36.121,36.121,0,0,1,38.86,7.993,35.427,35.427,0,0,1,9.694,17.772l-17.517,3.826a18.062,18.062,0,0,0-17.687-14.2,17.5,17.5,0,0,0-6.718,1.275Z" transform="translate(-933.986 -382.992)" fill="#cf4503"/><path d="M940.542,395.35a8.021,8.021,0,0,0,.85-.85l12.245,13.1a18.166,18.166,0,0,0,12.415,31.377,18.029,18.029,0,0,0,16.241-10.119l16.071,7.993a35.5,35.5,0,0,1-6.8,9.524,36.076,36.076,0,1,1-51.02-51.02Z" transform="translate(-929.987 -384.715)" fill="#124a61"/><path d="M993.371,424.153a18.183,18.183,0,0,0-.425-3.826l17.517-3.826a36.152,36.152,0,0,1-2.891,23.639L991.5,432.146A18.4,18.4,0,0,0,993.371,424.153Z" transform="translate(-939.194 -388.007)" fill="#94cfe5"/><path d="M943.4,393.243a36.29,36.29,0,0,1,11.309-7.143l6.633,16.666a18.937,18.937,0,0,0-5.7,3.571Z" transform="translate(-931.995 -383.457)" fill="#00a161"/></g><g transform="translate(322.423 215.755)"><rect width="3.997" height="7.228" transform="matrix(0.707, -0.707, 0.707, 0.707, 31.35, 34.208)" fill="#b7b7b7"/><path d="M1210.343,437.728h0a3.444,3.444,0,0,1-5.017-.085L1190.7,421.656l3.656-3.656,15.986,14.626A3.7,3.7,0,0,1,1210.343,437.728Z" transform="translate(-1155.858 -383.243)" fill="#124a61"/><path d="M1188.1,397.9a17.637,17.637,0,0,1-17.6,17.6,17.343,17.343,0,0,1-11.054-3.911,18.589,18.589,0,0,1-2.891-2.891,11.26,11.26,0,0,1-1.36-2.126,16.691,16.691,0,0,1-2.211-7.313c0-.425-.085-.935-.085-1.361a17.637,17.637,0,0,1,17.6-17.6,7.316,7.316,0,0,1,1.361.085,17.9,17.9,0,0,1,7.313,2.211c.765.425,1.446.935,2.126,1.361a15.514,15.514,0,0,1,2.891,2.891A17.519,17.519,0,0,1,1188.1,397.9Z" transform="translate(-1150.2 -377.6)" fill="#f4dcbd" opacity="0.35"/><path d="M1179.175,382.611l-24.064,24.064a16.693,16.693,0,0,1-2.211-7.313l18.962-18.962A16.692,16.692,0,0,1,1179.175,382.611Z" transform="translate(-1150.2 -377.615)" fill="#f4dcbd" opacity="0.3"/><path d="M1184.836,387.491l-24.745,24.745a18.59,18.59,0,0,1-2.891-2.891l24.745-24.745A18.592,18.592,0,0,1,1184.836,387.491Z" transform="translate(-1150.844 -378.244)" fill="#f4dcbd" opacity="0.3"/><path d="M1170.027,417.749a20.323,20.323,0,1,1,14.37-34.693h0a20.323,20.323,0,0,1-14.37,34.693Zm0-35.2a14.881,14.881,0,1,0,10.544,4.337h0A14.866,14.866,0,0,0,1170.027,382.546Z" transform="translate(-1149.725 -377.125)" fill="#cf4503"/></g><path d="M853.787,155.974a5.154,5.154,0,0,1-5.187-5.187,5.187,5.187,0,1,1,10.374,0A5.154,5.154,0,0,1,853.787,155.974Zm0-8.333a3.146,3.146,0,1,0,3.146,3.146A3.2,3.2,0,0,0,853.787,147.641Z" transform="translate(-709.231 -133.717)" fill="#f44a6a"/><path d="M848.852,140.841a2.126,2.126,0,0,1-4.252,0,2.035,2.035,0,0,1,2.126-2.041A2.088,2.088,0,0,1,848.852,140.841Z" transform="translate(-708.633 -132.699)" fill="#ffc197"/><path d="M1161.514,329.9a10.8,10.8,0,1,1,10.714-10.8A10.742,10.742,0,0,1,1161.514,329.9Zm0-16.751a5.952,5.952,0,1,0,5.952,5.952A5.863,5.863,0,0,0,1161.514,313.147Z" transform="translate(-754.463 -158.069)" fill="#f9cfc0"/><path d="M708.245,245.422a6.122,6.122,0,1,1-6.122-6.122A6.1,6.1,0,0,1,708.245,245.422Z" transform="translate(-686.391 -147.742)" fill="#f9cfc0"/><path d="M710.142,381.32a2.721,2.721,0,1,1-2.721-2.721A2.636,2.636,0,0,1,710.142,381.32Z" transform="translate(-687.693 -168.59)" fill="#ffca55"/></g><g transform="translate(695.87 176.921)"><g transform="translate(26.972 281.293)"><path d="M732.6,528.54l1.531-11.99,5.612-.85-2.721,12.5Z" transform="translate(-730.012 -515.7)" fill="#d6ddea"/><path d="M737.672,528.473a2.618,2.618,0,0,1,1.02.425c1.956,1.616,4.167,3.656,7.568,4.592,3.146.85,1.871,2.381-1.19,2.381-4.507,0-6.377-.17-8.333-.085-2.041.085-.68.085-5.7.085-2.3,0-1.531-4.422-.34-7.143a1.471,1.471,0,0,1,1.786-.935Z" transform="translate(-729.557 -517.503)" fill="#4462e2"/></g><g transform="translate(60.82 281.293)"><path d="M772.5,528.54l1.531-11.99,5.612-.85-2.636,12.5Z" transform="translate(-769.832 -515.7)" fill="#d6ddea"/><path d="M777.557,528.459a2.62,2.62,0,0,1,1.02.425c1.956,1.616,7.738,4.422,10.8,4.847,3.231.425,3.4,2.041-1.105,2.041s-7.823-.425-9.864-.34a52.414,52.414,0,0,1-6.462.34c-3.826,0-2.636-4.847-1.276-7.143a1.6,1.6,0,0,1,1.786-.935Z" transform="translate(-769.362 -517.49)" fill="#4462e2"/></g><path d="M726.979,323.5a5.094,5.094,0,0,1-3.061-1.02C721.792,320.865,703,306.41,703,292.209c0-14.456,18.792-39.965,21-42.771a5.161,5.161,0,0,1,8.248,6.207c-7.313,9.694-18.877,28.231-18.877,36.564,0,6.888,10.289,17.092,16.751,22.023a5.148,5.148,0,0,1-3.146,9.269Z" transform="translate(-698.61 -194.247)" fill="#cf4503"/><path d="M842.7,298.372a5.081,5.081,0,0,1-4.592-2.806,5.21,5.21,0,0,1,2.3-6.973c1.446-.765,2.891-2.126,2.976-2.721-.935-2.721.935-3.656,3.656-4.592s5.272-1.275,6.122,1.446c2.466,7.483-4,13.01-8.163,15.136A5.326,5.326,0,0,1,842.7,298.372Z" transform="translate(-718.749 -199.219)" fill="#ffaf84"/><g transform="translate(0 44.748)"><path d="M877.133,266.244c-3.741,6.377-8.758,11.82-13.435,14.03-10.8,5.1-22.109-.34-27.211-11.224-6.377-13.69.765-36.139,15.306-30.7a46.255,46.255,0,0,0,10.2,2.466c11.564,1.19,17.517-3.656,19.813,1.19C884.616,248.217,881.98,258,877.133,266.244Z" transform="translate(-718.238 -237.519)" fill="#ebb5ad"/><path d="M827.4,284.376l-27.3,11.479-7.908,3.316-66.24,27.891-12.075,5.1a11.673,11.673,0,0,1-9.694-.34,10.707,10.707,0,0,1-2.381-1.616,8.915,8.915,0,0,1-1.7-1.871A8.334,8.334,0,0,1,699,326.468l-.085-.085a12.144,12.144,0,0,1-.68-1.871,10.746,10.746,0,0,1-.085-5.442,11.639,11.639,0,0,1,5.952-7.653l22.619-11.734,50.424-26.105,10.119-5.272L813.535,254.7Z" transform="translate(-697.837 -240.09)" fill="#94cfe5"/><path d="M698.331,325.155a10.734,10.734,0,0,1-.085-5.442L815.166,259l6.548,13.86Z" transform="translate(-697.852 -240.734)" fill="#0073a1"/><path d="M843.135,284.406l-27.211,11.479L803,268.505,829.275,254.9Z" transform="translate(-713.577 -240.12)" fill="#0073a1"/><path d="M861.178,263.137c0,2.551-.85,4.337-3.4,4.337A4.718,4.718,0,0,1,853.1,262.8c0-2.551,2.126-4,4.677-4S861.178,260.5,861.178,263.137Z" transform="translate(-721.075 -240.704)" fill="#94cfe5"/><path d="M818.26,295.807,804.4,266.215,830.42,252.1l15.306,32.738Z" transform="translate(-713.786 -239.701)" fill="#d3d3d3"/><path d="M816.1,291.294,811,280.5l26.445-13.1,5.612,11.9Z" transform="translate(-714.774 -241.991)" fill="#969696"/><path d="M805.7,268.99l2.976,6.377,26.445-13.1L831.89,255.3Z" transform="translate(-713.981 -240.18)" fill="#efefef"/></g><path d="M797.141,302.595,730.9,330.486l.765-27.381L782.09,277Z" transform="translate(-702.785 -198.68)" fill="#94cfe5" opacity="0.3"/><path d="M757.456,260.131a6.349,6.349,0,0,1-5.272-2.976c-.085-.085-.68-1.105-3.826-6.122-4.422-6.973-2.891-18.962-2.551-21.343a6.109,6.109,0,0,1,12.075,1.871h0c-.68,4.592-.51,10.969.765,13.01,3.486,5.527,4,6.377,4,6.377a6.206,6.206,0,0,1-2.126,8.418A6.06,6.06,0,0,1,757.456,260.131Z" transform="translate(-704.937 -190.825)" fill="#ffaf84"/><g transform="translate(27.859 151.525)"><path d="M745.651,363.1c-4.762-.17-9.609,2.3-9.779,7.143,0,.425,3.911,50.509,1.871,67.176-1.7,14.115-4.932,48.384-7.143,62.669l9.184.255c5.017-14.456,12.16-50.254,13.945-62.414,2.551-16.922,2.041-63.179,2.126-65.135C756.025,368.03,750.5,363.269,745.651,363.1Z" transform="translate(-730.6 -363.09)" fill="#124a61"/><path d="M774.915,363.1c-4.762-.17-12.245,4.677-12.415,9.524,0,.425,7.908,47.873,7.823,64.03,0,14.115-1.531,50.85-1.7,63.945l9.439.425c2.211-14.285,6.122-49.319,7.993-61.479,2.551-16.922-2.636-69.557-2.551-71.513C783.673,363.269,779.677,363.269,774.915,363.1Z" transform="translate(-735.375 -363.091)" fill="#124a61"/></g><path d="M772.145,212.673A19.473,19.473,0,1,1,752.672,193.2,19.47,19.47,0,0,1,772.145,212.673Z" transform="translate(-703.13 -186.137)" fill="#ffaf84"/><path d="M735.443,329.8c1.276-17.517-4.592-61.139-7.653-78.485a4.282,4.282,0,0,1,4.252-5.017H768.1a4.557,4.557,0,0,1,3.656,1.956,2.981,2.981,0,0,1,.51,1.19c2.041,7.823,3.741,27.891,4.932,46h0c1.19,18.112,1.786,34.268,1.786,34.268H735.443Z" transform="translate(-702.311 -194.085)" fill="#cf4503"/><path d="M783.681,295.878c-4-15.9-8.843-32.227-11.82-41.241a4.329,4.329,0,0,1,3.486-5.612l2.891-.425a2.982,2.982,0,0,1,.51,1.19C780.79,257.7,782.49,277.766,783.681,295.878Z" transform="translate(-708.883 -194.429)" fill="#ebb5ad"/><path d="M808.146,301.908c-5.1,0-10.544-1.531-13.1-5.952-3.656-6.548-22.534-37.159-24.574-40.816a5.108,5.108,0,0,1,1.956-7.058c2.466-1.446,5.357-.425,7.058,1.956,9.439,13.01,20.833,35.969,23.724,39.455,3.4,4.167,18.2,2.211,27.125-2.721,2.466-1.361,4.847-1.786,6.037.17,1.531,2.466,1.361,4.592-1.105,5.952C831.785,294.681,819.54,300.8,808.146,301.908Z" transform="translate(-708.604 -194.252)" fill="#cf4503"/><path d="M738.469,372.916S733.2,363.222,736.6,344.6h43.537s.6,14.2-.34,28.316Z" transform="translate(-703.467 -209.798)" fill="#124a61"/><path d="M728.6,216.843a7.071,7.071,0,0,0,2.551,5.442,2.82,2.82,0,0,0,4.592-2.211V213.7a2.82,2.82,0,0,0-4.592-2.211A6.775,6.775,0,0,0,728.6,216.843Z" transform="translate(-702.441 -188.777)" fill="#ffaf84"/><path d="M782.343,216.843a7.071,7.071,0,0,1-2.551,5.442,2.82,2.82,0,0,1-4.592-2.211V213.7a2.82,2.82,0,0,1,4.592-2.211A6.775,6.775,0,0,1,782.343,216.843Z" transform="translate(-709.416 -188.777)" fill="#ffaf84"/><g transform="translate(27.498 4.413)"><path d="M758.767,194.353c4.762,1.275,8.843,7.143,9.269,12.075.765,9.013-4.677,23.214-18.792,23.214-18.452,0-19.728-17.942-18.877-22.449s3.571-12.16,10.8-13.1C745.417,193.588,753.665,192.993,758.767,194.353Z" transform="translate(-730.175 -190.598)" fill="#ab9100"/><path d="M757.743,191.2a27.207,27.207,0,0,0-3.486-.6c-9.269-1.02-20.918-1.361-14.115,6.888,4.167,5.017,27.466,8.248,30.016-1.531a1.929,1.929,0,0,0-1.446-2.3Z" transform="translate(-731.362 -190.084)" fill="#ffca55"/></g><g transform="translate(23.119)"><path d="M752.3,203.381a32.169,32.169,0,0,1-4.847.85c-12.84,1.531-29,2.126-19.643-9.439,5.7-7.058,38.01-11.735,41.666,1.786a2.667,2.667,0,0,1-2.041,3.146Z" transform="translate(-725.025 -185.349)" fill="#33333d"/><path d="M746.3,187.535a2.472,2.472,0,1,0,2.3-2.636A2.535,2.535,0,0,0,746.3,187.535Z" transform="translate(-728.208 -184.894)" fill="#33333d"/></g><path d="M741.392,249.236c-2.3,0-4.762-.085-7.313-.34a6.267,6.267,0,0,1,.935-12.5c17.262,1.446,28.571-3.4,28.741-3.486a6.281,6.281,0,0,1,5.1,11.479C768.347,244.729,757.888,249.236,741.392,249.236Z" transform="translate(-702.393 -192.004)" fill="#124a61"/><path d="M752.559,244.821c-10.544,0-17.262-2.806-18.112-3.231a6.223,6.223,0,0,1-3.146-8.248,6.334,6.334,0,0,1,8.248-3.231c.17.085,6.8,2.806,16.836,1.956a6.267,6.267,0,1,1,.935,12.5A45.887,45.887,0,0,1,752.559,244.821Z" transform="translate(-702.761 -191.585)" fill="#124a61"/><path d="M732.094,295.255a6.239,6.239,0,0,1-5.442-9.439c.17-.255,9.864-17.177,5.952-40.306a6.256,6.256,0,1,1,12.33-2.126c4.762,27.976-6.973,48.043-7.483,48.894A6.17,6.17,0,0,1,732.094,295.255Z" transform="translate(-702.023 -192.871)" fill="#124a61"/><g transform="translate(30.41 134.272)"><path d="M777.92,499.005l-1.02-.085c.085-.425,4.422-42.091,5.782-50.169a180,180,0,0,0,2.041-27.806c-.17-9.1-2.891-52.3-2.891-52.805.51-7.568.51-25.17.51-25.34h1.02c0,.17,0,17.772-.51,25.34,0,.34,2.721,43.622,2.891,52.72a171.489,171.489,0,0,1-2.126,27.976C782.342,456.914,777.92,498.58,777.92,499.005Z" transform="translate(-740.081 -342.8)" fill="#687c99"/><rect width="14.966" height="1.02" transform="translate(0 5.187)" fill="#687c99"/></g><g transform="translate(0.224 0)"><g clip-path="url(#a)"><path d="M642.912,227.21c5.7-3.912,27.466-18.962,50.084-11.564,4.847,1.531,33.5-6.973,41.581,19.387,12.33,40.22-19.643,72.788-17.687,112.243,1.7,33.928,30.952,36.224,36.309,72.193,2.721,18.792-8.418,42.771-33.418,66.751-44.132,42.261-134.692,41.836-152.294-55.867C554.563,359.265,597.249,258.672,642.912,227.21Z" transform="translate(-678.2 -189.195)" fill="#124a61" opacity="0.1"/></g></g></g></g></svg>