<svg xmlns="http://www.w3.org/2000/svg" xmlns:xlink="http://www.w3.org/1999/xlink" width="595.038" height="489.036" viewBox="0 0 595.038 489.036"><defs><linearGradient id="a" y1="0.5" x2="1" y2="0.5" gradientUnits="objectBoundingBox"><stop offset="0" stop-color="#5fb5f7"/><stop offset="1" stop-color="#2e7feb"/></linearGradient><linearGradient id="b" x1="0.496" y1="0.962" x2="0.496" y2="0.012" gradientUnits="objectBoundingBox"><stop offset="0" stop-color="#94cfe5"/><stop offset="0.477" stop-color="#46e8f3" stop-opacity="0.522"/><stop offset="0.828" stop-color="#14f9fc" stop-opacity="0.173"/><stop offset="1" stop-color="aqua" stop-opacity="0"/></linearGradient><linearGradient id="c" x1="0.496" y1="0.962" x2="0.496" y2="0.011" xlink:href="#b"/><linearGradient id="d" x1="0" y1="0.501" x2="1" y2="0.501" xlink:href="#a"/><linearGradient id="e" x1="0.498" y1="0.963" x2="0.498" y2="0.012" xlink:href="#b"/><linearGradient id="f" x1="0.496" y1="0.961" x2="0.496" y2="0.011" xlink:href="#b"/><linearGradient id="g" y1="0.501" x2="1.001" y2="0.501" gradientUnits="objectBoundingBox"><stop offset="0" stop-color="#0073a1"/><stop offset="1" stop-color="#124a61"/></linearGradient><linearGradient id="h" x1="0.5" y1="0.963" x2="0.5" y2="0.011" xlink:href="#b"/><linearGradient id="i" x1="0.501" y1="0.964" x2="0.501" y2="0.011" gradientUnits="objectBoundingBox"><stop offset="0" stop-color="#94cfe5"/><stop offset="0.465" stop-color="#7fd8ed" stop-opacity="0.537"/><stop offset="1" stop-color="#6ce1f5" stop-opacity="0"/></linearGradient><linearGradient id="j" x1="0.191" y1="0.5" x2="0.838" y2="0.5" gradientUnits="objectBoundingBox"><stop offset="0" stop-color="#3985bf"/><stop offset="1" stop-color="#1567d4"/></linearGradient><linearGradient id="k" x1="-0.08" y1="0.096" x2="1.298" y2="1.053" gradientUnits="objectBoundingBox"><stop offset="0" stop-color="#9ccff7"/><stop offset="1" stop-color="#2e7feb"/></linearGradient><linearGradient id="l" x1="-87.466" y1="-592.932" x2="-86.854" y2="-590.966" gradientUnits="objectBoundingBox"><stop offset="0" stop-color="aqua"/><stop offset="1" stop-color="aqua" stop-opacity="0"/></linearGradient><linearGradient id="m" x1="0.19" y1="0.501" x2="0.837" y2="0.501" xlink:href="#j"/><linearGradient id="n" x1="0.08" y1="0.156" x2="1.19" y2="1.063" xlink:href="#k"/><linearGradient id="o" x1="0" y1="0.501" x2="1" y2="0.501" xlink:href="#a"/><linearGradient id="p" x1="0.497" y1="0.96" x2="0.497" y2="0.012" xlink:href="#b"/><linearGradient id="q" x1="0.496" y1="0.959" x2="0.496" y2="0.011" xlink:href="#b"/><linearGradient id="r" x1="0.003" y1="0.5" x2="1.001" y2="0.5" xlink:href="#k"/><linearGradient id="s" x1="-0.039" y1="0.376" x2="1.517" y2="0.733" xlink:href="#j"/><linearGradient id="t" x1="0.001" y1="0.5" x2="0.999" y2="0.5" xlink:href="#j"/><linearGradient id="u" x1="0.018" y1="0.267" x2="0.982" y2="0.735" xlink:href="#k"/><linearGradient id="v" x1="-0.002" y1="0.508" x2="0.999" y2="0.508" xlink:href="#a"/><linearGradient id="w" x1="0.175" y1="0.048" x2="0.838" y2="0.967" xlink:href="#l"/><linearGradient id="x" x1="-91.84" y1="-592.368" x2="-91.228" y2="-590.413" xlink:href="#l"/><linearGradient id="y" x1="-75.724" y1="75.696" x2="-75.112" y2="77.596" xlink:href="#l"/><linearGradient id="z" x1="-176.302" y1="-210.856" x2="-175.627" y2="-209.984" xlink:href="#l"/><linearGradient id="aa" x1="0.003" y1="0.5" x2="1.001" y2="0.5" xlink:href="#k"/><linearGradient id="ab" x1="-0.039" y1="0.376" x2="1.517" y2="0.733" xlink:href="#j"/><linearGradient id="ac" x1="0.001" y1="0.5" x2="0.999" y2="0.5" xlink:href="#j"/><linearGradient id="ad" x1="0.019" y1="0.267" x2="0.982" y2="0.735" xlink:href="#k"/><linearGradient id="ae" x1="-0.001" y1="0.51" x2="1" y2="0.51" xlink:href="#a"/><linearGradient id="af" x1="0" y1="0.499" x2="1" y2="0.499" xlink:href="#a"/><linearGradient id="ag" x1="0.498" y1="0.963" x2="0.498" y2="0.011" xlink:href="#b"/><linearGradient id="ah" x1="0.499" y1="0.964" x2="0.499" y2="0.012" xlink:href="#b"/><linearGradient id="ai" x1="-66.171" y1="0.499" x2="-65.172" y2="0.499" xlink:href="#j"/><linearGradient id="aj" x1="0.014" y1="-0.01" x2="0.994" y2="0.969" xlink:href="#j"/><linearGradient id="ak" x1="-0.001" y1="0.5" x2="1" y2="0.5" xlink:href="#k"/><linearGradient id="al" x1="0" y1="0.5" x2="1" y2="0.5" xlink:href="#a"/><linearGradient id="am" x1="0.499" y1="0.963" x2="0.499" y2="0.011" xlink:href="#b"/><linearGradient id="an" x1="0.498" y1="0.964" x2="0.498" y2="0.012" xlink:href="#b"/><linearGradient id="ao" x1="0" y1="0.501" x2="1" y2="0.501" xlink:href="#a"/><linearGradient id="ap" x1="0.499" y1="0.963" x2="0.499" y2="0.012" xlink:href="#b"/><linearGradient id="aq" x1="0.499" y1="0.962" x2="0.499" y2="0.011" xlink:href="#b"/><linearGradient id="ar" x1="0.247" y1="0.168" x2="0.804" y2="0.87" xlink:href="#j"/><linearGradient id="as" x1="0.01" y1="0.009" x2="1.021" y2="1.023" xlink:href="#k"/></defs><g transform="translate(-564.167 -96.985)"><path d="M847.9,432.2l-61.5-35.5c-4.6-2.7-4.1-7.4,1.3-10.4l58.4-33.7c5.4-3.1,13.5-3.4,18.1-.7l61.5,35.5c4.6,2.7,4.1,7.4-1.3,10.4L866,431.4C860.6,434.5,852.5,434.8,847.9,432.2Z" fill="none" stroke="aqua" stroke-linecap="round" stroke-linejoin="round" stroke-miterlimit="10" stroke-width="3.539" opacity="0.3"/><path d="M845.4,444.5,765,398.1c-6.1-3.5-5.3-9.6,1.7-13.6L843,340.4c7-4,17.6-4.5,23.6-1L947,385.8c6.1,3.5,5.3,9.6-1.7,13.6L869,443.5C862,447.6,851.4,448,845.4,444.5Z" fill="none" stroke="aqua" stroke-linecap="round" stroke-linejoin="round" stroke-miterlimit="10" stroke-width="3.539" opacity="0.1"/><path d="M842.7,457.9,741.8,399.6c-7.6-4.4-6.7-12.1,2.1-17.1l95.8-55.3c8.8-5.1,22.1-5.6,29.7-1.2l100.9,58.3c7.6,4.4,6.7,12.1-2.1,17.1l-95.8,55.3C863.6,461.8,850.3,462.3,842.7,457.9Z" fill="none" stroke="aqua" stroke-linecap="round" stroke-linejoin="round" stroke-miterlimit="10" stroke-width="3.539" opacity="0.05"/><path d="M892.1,393.9a3.983,3.983,0,0,1-2.1,2.7L861.6,413c-2.6,1.5-6.5,1.7-8.8.4l-29.9-17.3a2.531,2.531,0,0,1-1.5-2.1v-.3a3.983,3.983,0,0,1,2.1-2.7l8.4-4.8,1.9-1.1L852,374.6c2.6-1.5,6.5-1.7,8.8-.4l19.1,11,2,1.2,8.8,5.1A2.531,2.531,0,0,1,892.1,393.9Z" fill="#111440" opacity="0.3"/><path d="M963.2,256.3a3.117,3.117,0,0,1-1.8,2.2l-23.2,13.4c-2.1,1.2-5.3,1.4-7.2.3l-24.4-14.1c-.8-.5-1.2-1-1.2-1.7v-.3a3.117,3.117,0,0,1,1.8-2.2L914,250l1.5-.9,14.8-8.6c2.1-1.2,5.3-1.4,7.2-.3l15.6,9,1.6.9,7.2,4.2C962.9,254.9,963.3,255.6,963.2,256.3Z" fill="#0075a1" opacity="0.3"/><path d="M963.2,238.7v-30H905.4v30a2.138,2.138,0,0,0,1.2,1.8L931,254.6c1.8,1.1,5.1.9,7.2-.3l23.2-13.4a3.117,3.117,0,0,0,1.8-2.2Z" fill="#0073a1"/><ellipse cx="5.5" cy="3.2" rx="5.5" ry="3.2" transform="matrix(0.505, -0.863, 0.863, 0.505, 943.742, 236.422)" fill="#1245a4" opacity="0.9" stroke-linecap="round" stroke-linejoin="round" stroke-miterlimit="10" stroke-width="2.947" stroke="aqua"/><ellipse cx="5.5" cy="3.2" rx="5.5" ry="3.2" transform="matrix(0.505, -0.863, 0.863, 0.505, 949.581, 240.172)" fill="#1245a4" opacity="0.3" stroke-linecap="round" stroke-linejoin="round" stroke-miterlimit="10" stroke-width="2.947" stroke="aqua"/><ellipse cx="5.5" cy="3.2" rx="5.5" ry="3.2" transform="matrix(0.505, -0.863, 0.863, 0.505, 955.15, 243.918)" fill="#1245a4" opacity="0.2" stroke-linecap="round" stroke-linejoin="round" stroke-miterlimit="10" stroke-width="2.947" stroke="aqua"/><ellipse cx="5.5" cy="3.2" rx="5.5" ry="3.2" transform="matrix(0.505, -0.863, 0.863, 0.505, 961.023, 248.448)" fill="#1245a4" opacity="0.1" stroke-linecap="round" stroke-linejoin="round" stroke-miterlimit="10" stroke-width="2.947" stroke="aqua"/><path d="M963.2,208.9a3.117,3.117,0,0,1-1.8,2.2l-23.2,13.4c-2.1,1.2-5.3,1.4-7.2.3l-24.4-14.1c-.8-.5-1.2-1-1.2-1.7v-.3a3.117,3.117,0,0,1,1.8-2.2l6.8-3.9,1.5-.9,14.8-8.6c2.1-1.2,5.3-1.4,7.2-.3l15.6,9,1.6.9,7.2,4.2A2.005,2.005,0,0,1,963.2,208.9Z" fill="url(#a)"/><path d="M951.1,210.2l-.6.4-13.7,7.9a4.906,4.906,0,0,1-4.4.2l-14.2-8.2-.9-.5c-1.1-.7-1-1.8.3-2.6l14.3-8.3a4.906,4.906,0,0,1,4.4-.2l15.1,8.7C952.5,208.3,952.4,209.4,951.1,210.2Z" fill="#31cdf3"/><path d="M950.5,210.6l-13.7,7.9a4.906,4.906,0,0,1-4.4.2l-14.2-8.2,13.7-7.9a4.906,4.906,0,0,1,4.4-.2Z" fill="#6ce1f5"/><path d="M960.6,147.8l-4.3,31.3-3.1,22.7-.9,6.9h0a1.616,1.616,0,0,1-.4,1,1.794,1.794,0,0,1-.7.5l-.6.4h0l-13.7,7.9a4.645,4.645,0,0,1-2.3.6h-.3a4.776,4.776,0,0,1-1.8-.4l-14.2-8.2h0l-.9-.5c-.1-.1-.2-.1-.3-.2l-.1-.1-.1-.1-.1-.1v-.1c0-.1-.1-.1-.1-.2V209h0v-.2l-.9-7L913,179.4l-3.9-31.1Z" opacity="0.6" fill="url(#b)"/><path d="M956.3,179.1l-3.1,22.7-.9,6.9h0a1.616,1.616,0,0,1-.4,1,1.794,1.794,0,0,1-.7.5l-.6.4h0l-13.7,7.9a4.645,4.645,0,0,1-2.3.6h-.3a4.776,4.776,0,0,1-1.8-.4l-14.2-8.2h0l-.9-.5c-.1-.1-.2-.1-.3-.2l-.1-.1-.1-.1-.1-.1v-.1c0-.1-.1-.1-.1-.2V209h0v-.2l-.9-7L913,179.4Z" fill="url(#c)"/><g transform="translate(324 -171)"><circle cx="0.8" cy="0.8" r="0.8" transform="translate(590.7 360.8)" fill="aqua" opacity="0.3"/><circle cx="0.8" cy="0.8" r="0.8" transform="translate(598.2 363.3)" fill="aqua" opacity="0.3"/><circle cx="0.8" cy="0.8" r="0.8" transform="translate(592.2 369.8)" fill="aqua" opacity="0.3"/><circle cx="0.8" cy="0.8" r="0.8" transform="translate(595.4 381.4)" fill="aqua" opacity="0.3"/><circle cx="0.8" cy="0.8" r="0.8" transform="translate(598.2 374.6)" fill="aqua" opacity="0.3"/><circle cx="0.8" cy="0.8" r="0.8" transform="translate(593.9 354.6)" fill="aqua" opacity="0.3"/><circle cx="0.8" cy="0.8" r="0.8" transform="translate(594.3 340.5)" fill="aqua" opacity="0.3"/><circle cx="0.8" cy="0.8" r="0.8" transform="translate(614 352.7)" fill="aqua" opacity="0.3"/><circle cx="0.8" cy="0.8" r="0.8" transform="translate(622.1 354.1)" fill="aqua" opacity="0.3"/><circle cx="0.8" cy="0.8" r="0.8" transform="translate(616 365.1)" fill="aqua" opacity="0.3"/><circle cx="0.8" cy="0.8" r="0.8" transform="translate(626.1 359.9)" fill="aqua" opacity="0.3"/><circle cx="0.8" cy="0.8" r="0.8" transform="translate(623.2 364.1)" fill="aqua" opacity="0.3"/><circle cx="0.8" cy="0.8" r="0.8" transform="translate(627.3 367.2)" fill="aqua" opacity="0.3"/><circle cx="0.8" cy="0.8" r="0.8" transform="translate(625 376.2)" fill="aqua" opacity="0.3"/><circle cx="0.8" cy="0.8" r="0.8" transform="translate(629.2 359.3)" fill="aqua" opacity="0.3"/><path d="M95.184,19.672v-.845H94.4v-.483h.784V17.5h.543v.845h.784v.483h-.784v.845Z" transform="translate(515.937 404.825) rotate(-25)" fill="aqua"/><path d="M94.972,19.084v-.616H94.4v-.352h.572V17.5h.4v.616h.572v.352h-.572v.616Z" transform="translate(514.32 402.971) rotate(-25)" fill="aqua"/><path d="M94.783,18.561v-.413H94.4v-.236h.383V17.5h.265v.413h.383v.236h-.383v.413Z" transform="translate(516.089 408.172) rotate(-30)" fill="aqua"/><path d="M94.783,18.561v-.413H94.4v-.236h.383V17.5h.265v.413h.383v.236h-.383v.413Z" transform="translate(520.089 404.172) rotate(-30)" fill="aqua"/><path d="M94.783,18.561v-.413H94.4v-.236h.383V17.5h.265v.413h.383v.236h-.383v.413Z" transform="translate(517.089 398.172) rotate(-30)" fill="aqua"/><path d="M95.14,19.549v-.8H94.4V18.3h.74v-.8h.512v.8h.74v.455h-.74v.8Z" transform="translate(519.426 406.984) rotate(-30)" fill="aqua"/><path d="M95.14,19.549v-.8H94.4V18.3h.74v-.8h.512v.8h.74v.455h-.74v.8Z" transform="translate(519.426 396.984) rotate(-30)" fill="aqua"/><path d="M95.14,19.549v-.8H94.4V18.3h.74v-.8h.512v.8h.74v.455h-.74v.8Z" transform="translate(512.426 400.984) rotate(-30)" fill="aqua"/><path d="M95.14,19.549v-.8H94.4V18.3h.74v-.8h.512v.8h.74v.455h-.74v.8Z" transform="translate(522.426 398.984) rotate(-30)" fill="aqua"/><path d="M95.416,20.313V19.219H94.4v-.625h1.016V17.5h.7v1.094h1.016v.625H96.119v1.094Z" transform="translate(513.913 403.839) rotate(-30)" fill="aqua"/><path d="M95.416,20.313V19.219H94.4v-.625h1.016V17.5h.7v1.094h1.016v.625H96.119v1.094Z" transform="translate(518.913 400.839) rotate(-30)" fill="aqua"/><path d="M95.416,20.313V19.219H94.4v-.625h1.016V17.5h.7v1.094h1.016v.625H96.119v1.094Z" transform="translate(513.913 389.839) rotate(-30)" fill="aqua"/><path d="M95.943,21.774V20.112H94.4v-.95h1.543V17.5h1.068v1.662h1.543v.95H97.012v1.662Z" transform="translate(511.933 395.561) rotate(-30)" fill="aqua"/><path d="M96.646,23.719V21.3H94.4V19.918h2.246V17.5H98.2v2.418h2.246V21.3H98.2v2.418Z" transform="translate(517.628 391.192) rotate(-30)" fill="aqua"/><path d="M97.289,25.5V22.388H94.4V20.611h2.889V17.5h2v3.111h2.889v1.778H99.288V25.5Z" transform="translate(514.434 381.854) rotate(-30)" fill="aqua"/></g><path d="M709.5,293.1a3.362,3.362,0,0,1-2,2.5l-26.1,15.1a8.94,8.94,0,0,1-8.1.3l-27.5-15.9a2.556,2.556,0,0,1-1.4-1.9v-.3a3.362,3.362,0,0,1,2-2.5l7.7-4.4,1.7-1,16.7-9.7a8.94,8.94,0,0,1,8.1-.3l17.6,10.1,1.8,1.1,8.1,4.7A2.356,2.356,0,0,1,709.5,293.1Z" fill="#0075a1" opacity="0.3"/><path d="M709.5,273.2V239.4H644.4v33.8a2.342,2.342,0,0,0,1.4,2l27.5,15.9c2.1,1.2,5.7,1,8.1-.3l26.1-15.1a3.268,3.268,0,0,0,2-2.5Z" fill="#0073a1"/><ellipse cx="3.6" cy="6.2" rx="3.6" ry="6.2" transform="matrix(0.863, -0.505, 0.505, 0.863, 654.066, 263.86)" fill="#1245a4" opacity="0.9" stroke-linecap="round" stroke-linejoin="round" stroke-miterlimit="10" stroke-width="3.321" stroke="aqua"/><ellipse cx="3.6" cy="6.2" rx="3.6" ry="6.2" transform="matrix(0.863, -0.505, 0.505, 0.863, 647.485, 268.052)" fill="#1245a4" opacity="0.3" stroke-linecap="round" stroke-linejoin="round" stroke-miterlimit="10" stroke-width="3.321" stroke="aqua"/><ellipse cx="3.6" cy="6.2" rx="3.6" ry="6.2" transform="matrix(0.863, -0.505, 0.505, 0.863, 641.238, 272.243)" fill="#1245a4" opacity="0.2" stroke-linecap="round" stroke-linejoin="round" stroke-miterlimit="10" stroke-width="3.321" stroke="aqua"/><ellipse cx="3.6" cy="6.2" rx="3.6" ry="6.2" transform="matrix(0.863, -0.505, 0.505, 0.863, 634.68, 277.328)" fill="#1245a4" opacity="0.1" stroke-linecap="round" stroke-linejoin="round" stroke-miterlimit="10" stroke-width="3.321" stroke="aqua"/><path d="M709.5,239.6a3.362,3.362,0,0,1-2,2.5l-26.1,15.1a8.94,8.94,0,0,1-8.1.3l-27.5-15.9a2.556,2.556,0,0,1-1.4-1.9v-.3a3.362,3.362,0,0,1,2-2.5l7.7-4.4,1.7-1,16.7-9.7a8.94,8.94,0,0,1,8.1-.3l17.6,10.1,1.8,1.1,8.1,4.7A2.356,2.356,0,0,1,709.5,239.6Z" fill="url(#d)"/><path d="M695.8,241.1l-.7.4-15.5,8.9a5.538,5.538,0,0,1-5,.2l-15.9-9.2-1.1-.6c-1.3-.7-1.1-2,.4-2.9l16.2-9.3a5.538,5.538,0,0,1,5-.2l17,9.8C697.5,239,697.3,240.3,695.8,241.1Z" fill="#31cdf3"/><path d="M695.1,241.5l-15.5,8.9a5.538,5.538,0,0,1-5,.2l-15.9-9.2,15.5-8.9a5.538,5.538,0,0,1,5-.2Z" fill="#6ce1f5"/><path d="M706.5,170.8,701.6,206l-3.5,25.6-1.1,7.8h0a1.823,1.823,0,0,1-.5,1.1,4.351,4.351,0,0,1-.7.6l-.7.4h0l-15.5,8.9a5.94,5.94,0,0,1-2.6.7h-.3a3.939,3.939,0,0,1-2-.5l-15.9-9.2h0l-1.1-.6c-.1-.1-.2-.2-.3-.2a.1.1,0,0,1-.1-.1l-.1-.1-.1-.1v-.1c0-.1-.1-.1-.1-.2v-.2h0v-.3l-1-7.9-3.2-25.2-4.4-35Z" opacity="0.6" fill="url(#e)"/><path d="M701.7,206.1l-3.5,25.6-1.1,7.8h0a1.823,1.823,0,0,1-.5,1.1,4.351,4.351,0,0,1-.7.6l-.7.4h0l-15.5,8.9a5.94,5.94,0,0,1-2.6.7h-.3a3.939,3.939,0,0,1-2-.5l-15.9-9.2h0l-1.1-.6c-.1-.1-.2-.2-.3-.2a.1.1,0,0,1-.1-.1l-.1-.1-.1-.1v-.1c0-.1-.1-.1-.1-.2v-.2h0v-.3l-1-7.9-3.2-25.2Z" fill="url(#f)"/><g transform="translate(66 -149)"><circle cx="0.8" cy="0.8" r="0.8" transform="translate(590.7 360.8)" fill="aqua" opacity="0.3"/><circle cx="0.8" cy="0.8" r="0.8" transform="translate(598.2 363.3)" fill="aqua" opacity="0.3"/><circle cx="0.8" cy="0.8" r="0.8" transform="translate(592.2 369.8)" fill="aqua" opacity="0.3"/><circle cx="0.8" cy="0.8" r="0.8" transform="translate(595.4 381.4)" fill="aqua" opacity="0.3"/><circle cx="0.8" cy="0.8" r="0.8" transform="translate(598.2 374.6)" fill="aqua" opacity="0.3"/><circle cx="0.8" cy="0.8" r="0.8" transform="translate(593.9 354.6)" fill="aqua" opacity="0.3"/><circle cx="0.8" cy="0.8" r="0.8" transform="translate(594.3 340.5)" fill="aqua" opacity="0.3"/><circle cx="0.8" cy="0.8" r="0.8" transform="translate(614 352.7)" fill="aqua" opacity="0.3"/><circle cx="0.8" cy="0.8" r="0.8" transform="translate(622.1 354.1)" fill="aqua" opacity="0.3"/><circle cx="0.8" cy="0.8" r="0.8" transform="translate(616 365.1)" fill="aqua" opacity="0.3"/><circle cx="0.8" cy="0.8" r="0.8" transform="translate(626.1 359.9)" fill="aqua" opacity="0.3"/><circle cx="0.8" cy="0.8" r="0.8" transform="translate(623.2 364.1)" fill="aqua" opacity="0.3"/><circle cx="0.8" cy="0.8" r="0.8" transform="translate(627.3 367.2)" fill="aqua" opacity="0.3"/><circle cx="0.8" cy="0.8" r="0.8" transform="translate(625 376.2)" fill="aqua" opacity="0.3"/><circle cx="0.8" cy="0.8" r="0.8" transform="translate(629.2 359.3)" fill="aqua" opacity="0.3"/><path d="M95.184,19.672v-.845H94.4v-.483h.784V17.5h.543v.845h.784v.483h-.784v.845Z" transform="translate(515.937 404.825) rotate(-25)" fill="aqua"/><path d="M94.972,19.084v-.616H94.4v-.352h.572V17.5h.4v.616h.572v.352h-.572v.616Z" transform="translate(514.32 402.971) rotate(-25)" fill="aqua"/><path d="M94.783,18.561v-.413H94.4v-.236h.383V17.5h.265v.413h.383v.236h-.383v.413Z" transform="translate(516.089 408.172) rotate(-30)" fill="aqua"/><path d="M94.783,18.561v-.413H94.4v-.236h.383V17.5h.265v.413h.383v.236h-.383v.413Z" transform="translate(520.089 404.172) rotate(-30)" fill="aqua"/><path d="M94.783,18.561v-.413H94.4v-.236h.383V17.5h.265v.413h.383v.236h-.383v.413Z" transform="translate(517.089 398.172) rotate(-30)" fill="aqua"/><path d="M95.14,19.549v-.8H94.4V18.3h.74v-.8h.512v.8h.74v.455h-.74v.8Z" transform="translate(519.426 406.984) rotate(-30)" fill="aqua"/><path d="M95.14,19.549v-.8H94.4V18.3h.74v-.8h.512v.8h.74v.455h-.74v.8Z" transform="translate(519.426 396.984) rotate(-30)" fill="aqua"/><path d="M95.14,19.549v-.8H94.4V18.3h.74v-.8h.512v.8h.74v.455h-.74v.8Z" transform="translate(512.426 400.984) rotate(-30)" fill="aqua"/><path d="M95.14,19.549v-.8H94.4V18.3h.74v-.8h.512v.8h.74v.455h-.74v.8Z" transform="translate(522.426 398.984) rotate(-30)" fill="aqua"/><path d="M95.416,20.313V19.219H94.4v-.625h1.016V17.5h.7v1.094h1.016v.625H96.119v1.094Z" transform="translate(513.913 403.839) rotate(-30)" fill="aqua"/><path d="M95.416,20.313V19.219H94.4v-.625h1.016V17.5h.7v1.094h1.016v.625H96.119v1.094Z" transform="translate(518.913 400.839) rotate(-30)" fill="aqua"/><path d="M95.416,20.313V19.219H94.4v-.625h1.016V17.5h.7v1.094h1.016v.625H96.119v1.094Z" transform="translate(513.913 389.839) rotate(-30)" fill="aqua"/><path d="M95.943,21.774V20.112H94.4v-.95h1.543V17.5h1.068v1.662h1.543v.95H97.012v1.662Z" transform="translate(511.933 395.561) rotate(-30)" fill="aqua"/><path d="M96.646,23.719V21.3H94.4V19.918h2.246V17.5H98.2v2.418h2.246V21.3H98.2v2.418Z" transform="translate(517.628 391.192) rotate(-30)" fill="aqua"/><path d="M97.289,25.5V22.388H94.4V20.611h2.889V17.5h2v3.111h2.889v1.778H99.288V25.5Z" transform="translate(514.434 381.854) rotate(-30)" fill="aqua"/></g><g opacity="0.3"><line y1="104.9" x2="46.2" transform="translate(873.9 233)" stroke-width="22" stroke="#00a6ff" stroke-linecap="round" stroke-linejoin="round" stroke-miterlimit="10" fill="none"/><line x2="142.2" y2="82.5" transform="translate(693.7 266.3)" stroke-width="22" stroke="#00a6ff" stroke-linecap="round" stroke-linejoin="round" stroke-miterlimit="10" fill="none"/></g><path d="M860.6,291.2l19.7,15.3a3.554,3.554,0,0,1-1.6,1.1l-24.2,6a5.466,5.466,0,0,1-4.1-.9l-16.7-13a3.977,3.977,0,0,1-1.2-1.6Z" fill="#ab9100"/><path d="M908.7,243.7v25.5a3,3,0,0,1-.6,1.8l-19.8-15.3V226.2a4.941,4.941,0,0,1,1.8.8l16.7,13.3A4.39,4.39,0,0,1,908.7,243.7Z" fill="#124a61"/><path d="M806.4,244.4l25.5-5.6V212a2.885,2.885,0,0,1,2.2-2.8l24.3-6a4.121,4.121,0,0,1,2.2.1l-.1,28.5L886,226a4.121,4.121,0,0,1,2.2.1v29.5l-27.6,6.2v29.4l-28,6.9a4.558,4.558,0,0,1-.6-2.2V268.8l-27.1,6a4.558,4.558,0,0,1-.6-2.2V247.1A2.98,2.98,0,0,1,806.4,244.4Z" fill="#cf4503"/><path d="M832,268.9v20.7l-5.1.7a5.466,5.466,0,0,1-4.1-.9l-16.7-13a3.977,3.977,0,0,1-1.2-1.6Z" fill="#ab9100"/><path d="M860.6,291.2V261.8l20.3,15.9v27.1a3,3,0,0,1-.6,1.8Z" fill="#124a61"/><path d="M888.3,255.6l19.8,15.3a3.554,3.554,0,0,1-1.6,1.1L881,277.7l-20.3-15.9Z" fill="#ab9100"/><path d="M860.7,231.7l20.3-4.6v-6.4a5.155,5.155,0,0,0-1.7-3.7l-16.7-13a4.941,4.941,0,0,0-1.8-.8l-.1,28.5Z" fill="#124a61"/><g opacity="0.3"><line y1="37.3" x2="216.7" transform="translate(876.9 326.2)" stroke-width="22" stroke="#00a6ff" stroke-linecap="round" stroke-linejoin="round" stroke-miterlimit="10" fill="none"/><line y1="36.4" x2="229.4" transform="translate(609.3 365.5)" stroke-width="22" stroke="#00a6ff" stroke-linecap="round" stroke-linejoin="round" stroke-miterlimit="10" fill="none"/><line y1="147.5" x2="41.9" transform="translate(796.8 365.5)" stroke-width="22" stroke="#00a6ff" stroke-linecap="round" stroke-linejoin="round" stroke-miterlimit="10" fill="none"/><line x2="162.6" y2="103.5" transform="translate(876.9 363.5)" stroke-width="22" stroke="#00a6ff" stroke-linecap="round" stroke-linejoin="round" stroke-miterlimit="10" fill="none"/></g><path d="M892.1,372.3V335.5H821.3v36.8a2.666,2.666,0,0,0,1.5,2.2l29.9,17.3c2.3,1.3,6.2,1.1,8.8-.4L889.9,375a3.846,3.846,0,0,0,2.1-2.6h0v-.1Z" fill="url(#g)"/><path d="M892.1,335.8a3.983,3.983,0,0,1-2.1,2.7l-28.4,16.4c-2.6,1.5-6.5,1.7-8.8.4l-30-17.3a2.531,2.531,0,0,1-1.5-2.1v-.3a3.983,3.983,0,0,1,2.1-2.7l8.4-4.8,1.9-1.1,18.2-10.5c2.6-1.5,6.5-1.7,8.8-.4l19.1,11,2,1.2,8.8,5.1A2.471,2.471,0,0,1,892.1,335.8Z" fill="#5fb5f7"/><path d="M877.3,337.4l-.8.4-16.8,9.7a6.065,6.065,0,0,1-5.4.2l-17.3-10-1.2-.7c-1.4-.8-1.2-2.2.4-3.1l17.6-10.1a6.065,6.065,0,0,1,5.4-.2l18.5,10.7C879.1,335.1,878.9,336.5,877.3,337.4Z" fill="#00b6ff"/><path d="M876.5,337.8l-16.8,9.7a6.065,6.065,0,0,1-5.4.2l-17.3-10,16.8-9.7a6.065,6.065,0,0,1,5.4-.2Z" fill="aqua"/><path d="M888.9,261l-5.3,38.3-3.8,27.8-1.2,8.4h0a2.078,2.078,0,0,1-.5,1.2,5.548,5.548,0,0,1-.8.6l-.8.4h0l-16.8,9.7a6.954,6.954,0,0,1-2.9.8h-.4a5.091,5.091,0,0,1-2.2-.5l-17.3-10h0l-1.2-.7c-.1-.1-.3-.2-.4-.3-.1,0-.1-.1-.2-.1,0-.1-.1-.1-.1-.2s-.1-.1-.1-.2v-.1a.349.349,0,0,0-.1-.2v-.2h0v-.3l-1.1-8.6-3.5-27.5-4.8-38.1Z" opacity="0.6" fill="url(#h)"/><path d="M883.6,299.3l-3.8,27.8-1.2,8.4h0a2.078,2.078,0,0,1-.5,1.2,5.548,5.548,0,0,1-.8.6l-.8.4h0l-16.8,9.7a6.954,6.954,0,0,1-2.9.8h-.4a5.091,5.091,0,0,1-2.2-.5l-17.3-10h0l-1.2-.7c-.1-.1-.3-.2-.4-.3-.1,0-.1-.1-.2-.1,0-.1-.1-.1-.1-.2s-.1-.1-.1-.2v-.1a.349.349,0,0,0-.1-.2v-.2h0v-.3l-1.1-8.6-3.5-27.5Z" fill="url(#i)"/><g transform="translate(246 -57)"><circle cx="0.8" cy="0.8" r="0.8" transform="translate(590.7 360.8)" fill="aqua" opacity="0.3"/><circle cx="0.8" cy="0.8" r="0.8" transform="translate(598.2 363.3)" fill="aqua" opacity="0.3"/><circle cx="0.8" cy="0.8" r="0.8" transform="translate(592.2 369.8)" fill="aqua" opacity="0.3"/><circle cx="0.8" cy="0.8" r="0.8" transform="translate(595.4 381.4)" fill="aqua" opacity="0.3"/><circle cx="0.8" cy="0.8" r="0.8" transform="translate(598.2 374.6)" fill="aqua" opacity="0.3"/><circle cx="0.8" cy="0.8" r="0.8" transform="translate(593.9 354.6)" fill="aqua" opacity="0.3"/><circle cx="0.8" cy="0.8" r="0.8" transform="translate(594.3 340.5)" fill="aqua" opacity="0.3"/><circle cx="0.8" cy="0.8" r="0.8" transform="translate(614 352.7)" fill="aqua" opacity="0.3"/><circle cx="0.8" cy="0.8" r="0.8" transform="translate(622.1 354.1)" fill="aqua" opacity="0.3"/><circle cx="0.8" cy="0.8" r="0.8" transform="translate(616 365.1)" fill="aqua" opacity="0.3"/><circle cx="0.8" cy="0.8" r="0.8" transform="translate(626.1 359.9)" fill="aqua" opacity="0.3"/><circle cx="0.8" cy="0.8" r="0.8" transform="translate(623.2 364.1)" fill="aqua" opacity="0.3"/><circle cx="0.8" cy="0.8" r="0.8" transform="translate(627.3 367.2)" fill="aqua" opacity="0.3"/><circle cx="0.8" cy="0.8" r="0.8" transform="translate(625 376.2)" fill="aqua" opacity="0.3"/><circle cx="0.8" cy="0.8" r="0.8" transform="translate(629.2 359.3)" fill="aqua" opacity="0.3"/><path d="M95.184,19.672v-.845H94.4v-.483h.784V17.5h.543v.845h.784v.483h-.784v.845Z" transform="translate(515.937 404.825) rotate(-25)" fill="aqua"/><path d="M94.972,19.084v-.616H94.4v-.352h.572V17.5h.4v.616h.572v.352h-.572v.616Z" transform="translate(514.32 402.971) rotate(-25)" fill="aqua"/><path d="M94.783,18.561v-.413H94.4v-.236h.383V17.5h.265v.413h.383v.236h-.383v.413Z" transform="translate(516.089 408.172) rotate(-30)" fill="aqua"/><path d="M94.783,18.561v-.413H94.4v-.236h.383V17.5h.265v.413h.383v.236h-.383v.413Z" transform="translate(520.089 404.172) rotate(-30)" fill="aqua"/><path d="M94.783,18.561v-.413H94.4v-.236h.383V17.5h.265v.413h.383v.236h-.383v.413Z" transform="translate(517.089 398.172) rotate(-30)" fill="aqua"/><path d="M95.14,19.549v-.8H94.4V18.3h.74v-.8h.512v.8h.74v.455h-.74v.8Z" transform="translate(519.426 406.984) rotate(-30)" fill="aqua"/><path d="M95.14,19.549v-.8H94.4V18.3h.74v-.8h.512v.8h.74v.455h-.74v.8Z" transform="translate(519.426 396.984) rotate(-30)" fill="aqua"/><path d="M95.14,19.549v-.8H94.4V18.3h.74v-.8h.512v.8h.74v.455h-.74v.8Z" transform="translate(512.426 400.984) rotate(-30)" fill="aqua"/><path d="M95.14,19.549v-.8H94.4V18.3h.74v-.8h.512v.8h.74v.455h-.74v.8Z" transform="translate(522.426 398.984) rotate(-30)" fill="aqua"/><path d="M95.416,20.313V19.219H94.4v-.625h1.016V17.5h.7v1.094h1.016v.625H96.119v1.094Z" transform="translate(513.913 403.839) rotate(-30)" fill="aqua"/><path d="M95.416,20.313V19.219H94.4v-.625h1.016V17.5h.7v1.094h1.016v.625H96.119v1.094Z" transform="translate(518.913 400.839) rotate(-30)" fill="aqua"/><path d="M95.416,20.313V19.219H94.4v-.625h1.016V17.5h.7v1.094h1.016v.625H96.119v1.094Z" transform="translate(513.913 389.839) rotate(-30)" fill="aqua"/><path d="M95.943,21.774V20.112H94.4v-.95h1.543V17.5h1.068v1.662h1.543v.95H97.012v1.662Z" transform="translate(511.933 395.561) rotate(-30)" fill="aqua"/><path d="M96.646,23.719V21.3H94.4V19.918h2.246V17.5H98.2v2.418h2.246V21.3H98.2v2.418Z" transform="translate(517.628 391.192) rotate(-30)" fill="aqua"/><path d="M97.289,25.5V22.388H94.4V20.611h2.889V17.5h2v3.111h2.889v1.778H99.288V25.5Z" transform="translate(514.434 381.854) rotate(-30)" fill="aqua"/></g><path d="M686.2,199.1l-19.6-12.6a8.957,8.957,0,0,1-3.7-7.1l-2.1-55.3c0-3.1,3.7-3.8,5.8-2.7l21.7,12.5A8.957,8.957,0,0,1,692,141v54C692,199.1,688.4,200.2,686.2,199.1Z" fill-rule="evenodd" fill="url(#j)"/><path d="M686,199l-21.7-12.5a8.957,8.957,0,0,1-3.7-7.1V124.9c0-2.7,1.7-4,3.7-2.8L686,134.6a8.957,8.957,0,0,1,3.7,7.1v54.5C689.8,198.9,688.1,200.2,686,199Z" fill-rule="evenodd" fill="url(#k)"/><path d="M662.8,175.7V127.5c0-1,.6-1.4,1.3-1l22.3,12.9a3.108,3.108,0,0,1,1.3,2.5V190c0,1-.6,1.4-1.3,1l-22.3-12.9A3.067,3.067,0,0,1,662.8,175.7Z" fill="#0075a1" fill-rule="evenodd"/><path d="M677.9,132.9l-5.4-3.1a.713.713,0,0,1-.3-.6h0c0-.2.1-.3.3-.2l5.4,3.1a.713.713,0,0,1,.3.6h0C678.2,132.9,678.1,133,677.9,132.9Z" fill="#2156c9" fill-rule="evenodd"/><ellipse cx="1.7" cy="2.9" rx="1.7" ry="2.9" transform="matrix(0.863, -0.505, 0.505, 0.863, 672.256, 186.758)" fill="#2156c9"/><circle cx="4" cy="4" r="4" transform="translate(666.2 388.1)" fill="aqua"/><circle cx="4" cy="4" r="4" transform="translate(651 390.5)" fill="aqua" opacity="0.5"/><circle cx="4" cy="4" r="4" transform="translate(637.1 392.7)" fill="aqua" opacity="0.2"/><circle cx="4" cy="4" r="4" transform="translate(623 395)" fill="aqua" opacity="0.1"/><circle cx="4" cy="4" r="4" transform="translate(608.1 397.4)" fill="aqua" opacity="0.03"/><path d="M670.8,396.1l-58.5,9.3-1.4-8,58.6-9.2Z" opacity="0.7" fill="url(#l)"/><path d="M1124.6,256.5,1105,243.9a8.957,8.957,0,0,1-3.7-7.1l-2.1-55.3c0-3.1,3.7-3.8,5.8-2.7l21.7,12.5a8.957,8.957,0,0,1,3.7,7.1v53.9C1130.3,256.6,1126.7,257.6,1124.6,256.5Z" fill-rule="evenodd" fill="url(#m)"/><path d="M1124.4,256.4l-21.7-12.5a8.957,8.957,0,0,1-3.7-7.1V182.3c0-2.7,1.7-4,3.7-2.8l21.7,12.5a8.957,8.957,0,0,1,3.7,7.1v54.5C1128.1,256.4,1126.5,257.6,1124.4,256.4Z" fill-rule="evenodd" fill="url(#n)"/><path d="M1101.1,233.1V184.9c0-1,.6-1.4,1.3-1l22.3,12.9a3.108,3.108,0,0,1,1.3,2.5v48.2c0,1-.6,1.4-1.3,1l-22.3-12.9A3.108,3.108,0,0,1,1101.1,233.1Z" fill="#0075a1" fill-rule="evenodd"/><path d="M1116.3,190.4l-5.4-3.1a.713.713,0,0,1-.3-.6h0c0-.2.1-.3.3-.2l5.4,3.1a.713.713,0,0,1,.3.6h0C1116.6,190.3,1116.5,190.4,1116.3,190.4Z" fill="#2156c9" fill-rule="evenodd"/><ellipse cx="0.9" cy="5.4" rx="0.9" ry="5.4" transform="translate(1108.406 244.172) rotate(-62.858)" fill="#2156c9"/><path d="M1147.2,356.4a3.3,3.3,0,0,1-1.9,2.4l-25.8,14.9a8.733,8.733,0,0,1-8,.3l-27.2-15.7a2.556,2.556,0,0,1-1.4-1.9v-.3a3.3,3.3,0,0,1,1.9-2.4l7.6-4.4,1.7-1,16.5-9.5a8.733,8.733,0,0,1,8-.3l17.3,10,1.8,1,8,4.6C1146.8,354.8,1147.3,355.6,1147.2,356.4Z" fill="#0075a1" opacity="0.3"/><path d="M1147.2,336.8V303.5h-64.3v33.4a2.468,2.468,0,0,0,1.4,2l27.2,15.7c2,1.2,5.6,1,8-.3l25.8-14.9a3.675,3.675,0,0,0,1.9-2.6Z" fill="#0073a1"/><ellipse cx="3.5" cy="6.1" rx="3.5" ry="6.1" transform="matrix(0.863, -0.505, 0.505, 0.863, 1092.515, 327.604)" fill="#1245a4" opacity="0.9" stroke-linecap="round" stroke-linejoin="round" stroke-miterlimit="10" stroke-width="3.277" stroke="aqua"/><ellipse cx="3.5" cy="6.1" rx="3.5" ry="6.1" transform="matrix(0.863, -0.505, 0.505, 0.863, 1086.01, 331.695)" fill="#1245a4" opacity="0.3" stroke-linecap="round" stroke-linejoin="round" stroke-miterlimit="10" stroke-width="3.277" stroke="aqua"/><ellipse cx="3.5" cy="6.1" rx="3.5" ry="6.1" transform="matrix(0.863, -0.505, 0.505, 0.863, 1079.889, 335.87)" fill="#1245a4" opacity="0.2" stroke-linecap="round" stroke-linejoin="round" stroke-miterlimit="10" stroke-width="3.277" stroke="aqua"/><ellipse cx="3.5" cy="6.1" rx="3.5" ry="6.1" transform="matrix(0.863, -0.505, 0.505, 0.863, 1073.326, 340.904)" fill="#1245a4" opacity="0.1" stroke-linecap="round" stroke-linejoin="round" stroke-miterlimit="10" stroke-width="3.277" stroke="aqua"/><ellipse cx="6.1" cy="3.5" rx="6.1" ry="3.5" transform="matrix(0.505, -0.863, 0.863, 0.505, 1125.634, 334.375)" fill="#1245a4" opacity="0.9" stroke-linecap="round" stroke-linejoin="round" stroke-miterlimit="10" stroke-width="3.277" stroke="aqua"/><ellipse cx="6.1" cy="3.5" rx="6.1" ry="3.5" transform="matrix(0.505, -0.863, 0.863, 0.505, 1132.139, 338.495)" fill="#1245a4" opacity="0.3" stroke-linecap="round" stroke-linejoin="round" stroke-miterlimit="10" stroke-width="3.277" stroke="aqua"/><ellipse cx="6.1" cy="3.5" rx="6.1" ry="3.5" transform="matrix(0.505, -0.863, 0.863, 0.505, 1138.296, 342.671)" fill="#1245a4" opacity="0.2" stroke-linecap="round" stroke-linejoin="round" stroke-miterlimit="10" stroke-width="3.277" stroke="aqua"/><ellipse cx="6.1" cy="3.5" rx="6.1" ry="3.5" transform="matrix(0.505, -0.863, 0.863, 0.505, 1144.763, 347.612)" fill="#1245a4" opacity="0.1" stroke-linecap="round" stroke-linejoin="round" stroke-miterlimit="10" stroke-width="3.277" stroke="aqua"/><path d="M1147.2,303.7a3.3,3.3,0,0,1-1.9,2.4L1119.5,321a8.733,8.733,0,0,1-8,.3l-27.2-15.7a2.556,2.556,0,0,1-1.4-1.9v-.3a3.3,3.3,0,0,1,1.9-2.4l7.6-4.4,1.7-1,16.5-9.5a8.733,8.733,0,0,1,8-.3l17.3,10,1.8,1,8,4.6C1146.8,302.1,1147.3,302.9,1147.2,303.7Z" fill="url(#o)"/><path d="M1133.7,305.2l-.7.4-15.2,8.8a5.657,5.657,0,0,1-4.9.2l-15.7-9.1-1-.6c-1.3-.7-1.1-2,.4-2.8l15.9-9.2a5.657,5.657,0,0,1,4.9-.2l16.8,9.7C1135.3,303,1135.2,304.3,1133.7,305.2Z" fill="#31cdf3"/><path d="M1133,305.6l-15.2,8.8a5.657,5.657,0,0,1-4.9.2l-15.7-9.1,15.2-8.8a5.657,5.657,0,0,1,4.9-.2Z" fill="#6ce1f5"/><path d="M1144.3,235.8l-4.8,34.8-3.5,25.3-1.1,7.7h0a1.823,1.823,0,0,1-.5,1.1,4.35,4.35,0,0,1-.7.6l-.7.4h0l-15.2,8.8a5.593,5.593,0,0,1-2.6.7h-.3a3.939,3.939,0,0,1-2-.5l-15.7-9.1h0l-1-.6c-.1-.1-.2-.2-.3-.2l-.1-.1-.1-.1-.1-.1v-.1c0-.1-.1-.1-.1-.2V304h0v-.3l-1-7.8-3.2-24.9-4.4-34.5Z" opacity="0.6" fill="url(#p)"/><path d="M1139.5,270.6l-3.5,25.3-1.1,7.7h0a1.823,1.823,0,0,1-.5,1.1,4.35,4.35,0,0,1-.7.6l-.7.4h0l-15.2,8.8a5.593,5.593,0,0,1-2.6.7h-.3a3.939,3.939,0,0,1-2-.5l-15.7-9.1h0l-1-.6c-.1-.1-.2-.2-.3-.2l-.1-.1-.1-.1-.1-.1v-.1c0-.1-.1-.1-.1-.2V304h0v-.3l-1-7.8-3.2-24.9Z" fill="url(#q)"/><g transform="translate(504 -91)"><circle cx="0.8" cy="0.8" r="0.8" transform="translate(590.7 360.8)" fill="aqua" opacity="0.3"/><circle cx="0.8" cy="0.8" r="0.8" transform="translate(598.2 363.3)" fill="aqua" opacity="0.3"/><circle cx="0.8" cy="0.8" r="0.8" transform="translate(592.2 369.8)" fill="aqua" opacity="0.3"/><circle cx="0.8" cy="0.8" r="0.8" transform="translate(595.4 381.4)" fill="aqua" opacity="0.3"/><circle cx="0.8" cy="0.8" r="0.8" transform="translate(598.2 374.6)" fill="aqua" opacity="0.3"/><circle cx="0.8" cy="0.8" r="0.8" transform="translate(593.9 354.6)" fill="aqua" opacity="0.3"/><circle cx="0.8" cy="0.8" r="0.8" transform="translate(594.3 340.5)" fill="aqua" opacity="0.3"/><circle cx="0.8" cy="0.8" r="0.8" transform="translate(614 352.7)" fill="aqua" opacity="0.3"/><circle cx="0.8" cy="0.8" r="0.8" transform="translate(622.1 354.1)" fill="aqua" opacity="0.3"/><circle cx="0.8" cy="0.8" r="0.8" transform="translate(616 365.1)" fill="aqua" opacity="0.3"/><circle cx="0.8" cy="0.8" r="0.8" transform="translate(626.1 359.9)" fill="aqua" opacity="0.3"/><circle cx="0.8" cy="0.8" r="0.8" transform="translate(623.2 364.1)" fill="aqua" opacity="0.3"/><circle cx="0.8" cy="0.8" r="0.8" transform="translate(627.3 367.2)" fill="aqua" opacity="0.3"/><circle cx="0.8" cy="0.8" r="0.8" transform="translate(625 376.2)" fill="aqua" opacity="0.3"/><circle cx="0.8" cy="0.8" r="0.8" transform="translate(629.2 359.3)" fill="aqua" opacity="0.3"/><path d="M95.184,19.672v-.845H94.4v-.483h.784V17.5h.543v.845h.784v.483h-.784v.845Z" transform="translate(515.937 404.825) rotate(-25)" fill="aqua"/><path d="M94.972,19.084v-.616H94.4v-.352h.572V17.5h.4v.616h.572v.352h-.572v.616Z" transform="translate(514.32 402.971) rotate(-25)" fill="aqua"/><path d="M94.783,18.561v-.413H94.4v-.236h.383V17.5h.265v.413h.383v.236h-.383v.413Z" transform="translate(516.089 408.172) rotate(-30)" fill="aqua"/><path d="M94.783,18.561v-.413H94.4v-.236h.383V17.5h.265v.413h.383v.236h-.383v.413Z" transform="translate(520.089 404.172) rotate(-30)" fill="aqua"/><path d="M94.783,18.561v-.413H94.4v-.236h.383V17.5h.265v.413h.383v.236h-.383v.413Z" transform="translate(517.089 398.172) rotate(-30)" fill="aqua"/><path d="M95.14,19.549v-.8H94.4V18.3h.74v-.8h.512v.8h.74v.455h-.74v.8Z" transform="translate(519.426 406.984) rotate(-30)" fill="aqua"/><path d="M95.14,19.549v-.8H94.4V18.3h.74v-.8h.512v.8h.74v.455h-.74v.8Z" transform="translate(519.426 396.984) rotate(-30)" fill="aqua"/><path d="M95.14,19.549v-.8H94.4V18.3h.74v-.8h.512v.8h.74v.455h-.74v.8Z" transform="translate(512.426 400.984) rotate(-30)" fill="aqua"/><path d="M95.14,19.549v-.8H94.4V18.3h.74v-.8h.512v.8h.74v.455h-.74v.8Z" transform="translate(522.426 398.984) rotate(-30)" fill="aqua"/><path d="M95.416,20.313V19.219H94.4v-.625h1.016V17.5h.7v1.094h1.016v.625H96.119v1.094Z" transform="translate(513.913 403.839) rotate(-30)" fill="aqua"/><path d="M95.416,20.313V19.219H94.4v-.625h1.016V17.5h.7v1.094h1.016v.625H96.119v1.094Z" transform="translate(518.913 400.839) rotate(-30)" fill="aqua"/><path d="M95.416,20.313V19.219H94.4v-.625h1.016V17.5h.7v1.094h1.016v.625H96.119v1.094Z" transform="translate(513.913 389.839) rotate(-30)" fill="aqua"/><path d="M95.943,21.774V20.112H94.4v-.95h1.543V17.5h1.068v1.662h1.543v.95H97.012v1.662Z" transform="translate(511.933 395.561) rotate(-30)" fill="aqua"/><path d="M96.646,23.719V21.3H94.4V19.918h2.246V17.5H98.2v2.418h2.246V21.3H98.2v2.418Z" transform="translate(517.628 391.192) rotate(-30)" fill="aqua"/><path d="M97.289,25.5V22.388H94.4V20.611h2.889V17.5h2v3.111h2.889v1.778H99.288V25.5Z" transform="translate(514.434 381.854) rotate(-30)" fill="aqua"/></g><path d="M826,410.1l-.1,33.8c0,1-.7,1.4-1.6.9l-41.9-24.2a3.383,3.383,0,0,1-1.6-2.7V384.1c0-1,.7-1.4,1.6-.9l41.9,24.2A3.493,3.493,0,0,1,826,410.1Z" fill-rule="evenodd" fill="url(#r)"/><path d="M753.9,434.5l25.3-12.9a3.3,3.3,0,0,1,2.9.1l40.6,23.5h2v1.6a.824.824,0,0,1-.5.8L799,462.1a3.3,3.3,0,0,1-2.9-.1l-41.9-24.2C753.4,437.3,752.9,435,753.9,434.5Z" fill-rule="evenodd" fill="url(#s)"/><path d="M825.8,410.3v33.8c0,1-.7,1.4-1.6.9l-41.9-24.2a3.383,3.383,0,0,1-1.6-2.7V384.3c0-1,.7-1.4,1.6-.9l41.9,24.2A3.383,3.383,0,0,1,825.8,410.3Z" fill-rule="evenodd" fill="url(#t)"/><path d="M824.3,442.4V409.7a.55.55,0,0,0-.3-.5l-41.6-24c-.2-.1-.3,0-.3.2V418a.55.55,0,0,0,.3.5l41.6,24C824.2,442.6,824.3,442.6,824.3,442.4Z" fill="#0075a1" fill-rule="evenodd"/><path d="M824.2,445.9,799,460.4a3.3,3.3,0,0,1-2.9-.1l-41.9-24.2c-.9-.5-1-1.2-.2-1.7l25.2-14.6a3.3,3.3,0,0,1,2.9.1L824,444.1C824.9,444.7,825,445.4,824.2,445.9Z" fill-rule="evenodd" fill="url(#u)"/><path d="M770.8,442.7l13.8,8a1.24,1.24,0,0,0,1.3-.1l6.3-3.7c.4-.2.4-.5.1-.7l-13.8-8a1.24,1.24,0,0,0-1.3.1l-6.3,3.7C770.5,442.2,770.5,442.5,770.8,442.7Z" fill="#2156c9" fill-rule="evenodd"/><path d="M769.9,445.1h.3c.3,0,.5.1.5.2l9.7,5.6c.5.2.7.4.7.6h-.3a2.353,2.353,0,0,1-.8-.2l-9.7-5.6A.723.723,0,0,1,769.9,445.1Z" fill="url(#v)"/><path d="M806.7,452.4l-2-1.2c-.1-.1-.1-.2,0-.2l.6-.3a.3.3,0,0,1,.4,0l2,1.2c.1.1.1.2,0,.2l-.6.3Zm2.5-1.8-4.9-2.9c-.1-.1-.1-.2,0-.2l1.8-1a.3.3,0,0,1,.4,0l5,2.9c.1.1.1.2,0,.2l-1.8,1Zm2.8-1.7-3.6-2.1c-.1-.1-.1-.2,0-.2l1.8-1.1a.3.3,0,0,1,.4,0l3.6,2.1c.1.1.1.2,0,.2l-1.8,1.1A.3.3,0,0,1,812,448.9Zm2.8-1.6-1.9-1.1c-.1-.1-.1-.2,0-.2l1.8-1.1a.3.3,0,0,1,.4,0L817,446c.1.1.1.2,0,.2l-1.8,1.1A.3.3,0,0,1,814.8,447.3Zm-2.8-1.6-1.9-1.1c-.1-.1-.1-.2,0-.2l1.8-1.1a.3.3,0,0,1,.4,0l1.9,1.1c.1.1.1.2,0,.2l-1.8,1.1A.3.3,0,0,1,812,445.7Zm-2.8-1.6-1.9-1.1c-.1-.1-.1-.2,0-.2l1.8-1.1a.3.3,0,0,1,.4,0l1.9,1.1c.1.1.1.2,0,.2l-1.8,1.1A.3.3,0,0,1,809.2,444.1Zm-2.8-1.6-1.9-1.1c-.1-.1-.1-.2,0-.2l1.8-1.1a.3.3,0,0,1,.4,0l1.9,1.1c.1.1.1.2,0,.2l-1.8,1.1Zm-2.8-1.6-1.8-1.1c-.1-.1-.1-.2,0-.2l1.8-1.1a.3.3,0,0,1,.4,0l1.9,1.1c.1.1.1.2,0,.2l-1.8,1.1Zm-2.8-1.6-1.8-1.1c-.1-.1-.1-.2,0-.2l1.8-1.1a.3.3,0,0,1,.4,0L803,438c.1.1.1.2,0,.2l-1.8,1.1Zm-2.7-1.6-1.8-1.1c-.1-.1-.1-.2,0-.2l1.8-1.1a.3.3,0,0,1,.4,0l1.8,1.1c.1.1.1.2,0,.2l-1.8,1.1Zm-2.8-1.6-1.8-1.1c-.1-.1-.1-.2,0-.2l1.8-1a.3.3,0,0,1,.4,0l1.8,1.1c.1.1.1.2,0,.2l-1.8,1Zm-2.8-1.6-1.8-1.1c-.1-.1-.1-.2,0-.2l1.8-1a.3.3,0,0,1,.4,0l1.8,1.1c.1.1.1.2,0,.2l-1.8,1Zm-2.3-1.6a.3.3,0,0,1-.4,0l-1.8-1.1c-.1-.1-.1-.2,0-.2l1.8-1a.3.3,0,0,1,.4,0l1.8,1.1c.1.1.1.2,0,.2Zm-2.8-1.6a.3.3,0,0,1-.4,0l-1.8-1.1c-.1-.1-.1-.2,0-.2l1.8-1a.3.3,0,0,1,.4,0l1.8,1.1c.1.1.1.2,0,.2Zm-2.7-1.6a.3.3,0,0,1-.4,0l-1.8-1.1c-.1-.1-.1-.2,0-.2l1.8-1a.3.3,0,0,1,.4,0l1.8,1.1c.1.1.1.2,0,.2Zm-2.8-1.6a.3.3,0,0,1-.4,0l-1.8-1.1c-.1-.1-.1-.2,0-.2l1.8-1a.3.3,0,0,1,.4,0l1.8,1.1c.1.1.1.2,0,.2Zm-2.7-1.6a.3.3,0,0,1-.4,0l-2.8-1.6c-.1-.1-.1-.2,0-.2l1.8-1a.3.3,0,0,1,.4,0l2.8,1.6c.1.1.1.2,0,.2Zm38.4,19.2-1.9-1.1c-.1-.1-.1-.2,0-.2l1-.6a.3.3,0,0,1,.4,0l1.9,1.1c.1.1.1.2,0,.2l-1,.6A.3.3,0,0,1,817.6,445.7Zm-2.8-1.6-1.9-1.1c-.1-.1-.1-.2,0-.2l1-.6a.3.3,0,0,1,.4,0l1.9,1.1c.1.1.1.2,0,.2l-1,.6A.3.3,0,0,1,814.8,444.1Zm-2.8-1.6-1.9-1.1c-.1-.1-.1-.2,0-.2l1-.6a.3.3,0,0,1,.4,0l1.9,1.1c.1.1.1.2,0,.2l-1,.6Zm-2.8-1.6-1.9-1.1c-.1-.1-.1-.2,0-.2l1-.6a.3.3,0,0,1,.4,0l1.9,1.1c.1.1.1.2,0,.2l-1,.6Zm-2.8-1.6-1.8-1.1c-.1-.1-.1-.2,0-.2l1-.6a.3.3,0,0,1,.4,0l1.9,1.1c.1.1.1.2,0,.2l-1,.6Zm-2.8-1.6-1.8-1.1c-.1-.1-.1-.2,0-.2l1-.6a.3.3,0,0,1,.4,0l1.8,1.1c.1.1.1.2,0,.2l-1,.6Zm-2.7-1.6L799,435c-.1-.1-.1-.2,0-.2l1-.6a.3.3,0,0,1,.4,0l1.8,1.1c.1.1.1.2,0,.2l-1,.6Zm-2.8-1.6-1.8-1.1c-.1-.1-.1-.2,0-.2l1-.6a.3.3,0,0,1,.4,0l1.8,1.1c.1.1.1.2,0,.2l-1,.6Zm-2.8-1.6-1.8-1.1c-.1-.1-.1-.2,0-.2l1-.6a.3.3,0,0,1,.4,0l1.8,1.1c.1.1.1.2,0,.2l-1,.6Zm-2.3-1.6a.3.3,0,0,1-.4,0l-1.8-1.1c-.1-.1-.1-.2,0-.2l1-.6a.3.3,0,0,1,.4,0l1.8,1.1c.1.1.1.2,0,.2Zm-2.8-1.6a.3.3,0,0,1-.4,0l-1.8-1.1c-.1-.1-.1-.2,0-.2l1-.6a.3.3,0,0,1,.4,0l1.8,1.1c.1.1.1.2,0,.2Zm-2.8-1.6a.3.3,0,0,1-.4,0l-1.8-1.1c-.1-.1-.1-.2,0-.2l1-.6a.3.3,0,0,1,.4,0l1.8,1.1c.1.1.1.2,0,.2Zm-2.7-1.6a.3.3,0,0,1-.4,0l-1.8-1.1c-.1-.1-.1-.2,0-.2l1-.6a.3.3,0,0,1,.4,0l1.8,1.1c.1.1.1.2,0,.2Zm-2.8-1.6a.3.3,0,0,1-.4,0l-2.8-1.6c-.1-.1-.1-.2,0-.2l1-.6a.3.3,0,0,1,.4,0l2.8,1.6c.1.1.1.2,0,.2Zm-2.7,2.6c.1.1.1.2,0,.2l-1.8,1a.3.3,0,0,1-.4,0l-3.9-2.2c-.1-.1-.1-.2,0-.2l1.8-1a.3.3,0,0,1,.4,0Zm-1.3,2.4c.1.1.1.2,0,.2l-1.8,1a.3.3,0,0,1-.4,0l-5.3-3c-.1-.1-.1-.2,0-.2l1.8-1a.3.3,0,0,1,.4,0Zm-6.2-.4c.1.1.1.2,0,.2l-1.8,1a.3.3,0,0,1-.4,0l-1.8-1.1c-.1-.1-.1-.2,0-.2l1.8-1a.3.3,0,0,1,.4,0Zm.5.5a.3.3,0,0,1,.4,0l1.8,1.1c.1.1.1.2,0,.2l-1.8,1a.3.3,0,0,1-.4,0l-1.8-1.1c-.1-.1-.1-.2,0-.2Zm2.7,1.6a.3.3,0,0,1,.4,0l2.3,1.4c.1.1.1.2,0,.2l-1.8,1a.3.3,0,0,1-.4,0l-2.3-1.4c-.1-.1-.1-.2,0-.2Zm4.9-1.3-1.8-1.1c-.1-.1-.1-.2,0-.2l1.8-1a.3.3,0,0,1,.4,0l1.8,1.1c.1.1.1.2,0,.2l-1.8,1A.3.3,0,0,1,779.8,430.3Zm-3.2,1.2,1.8-1a.3.3,0,0,1,.4,0l1.8,1.1c.1.1.1.2,0,.2l-1.8,1a.3.3,0,0,1-.4,0l-1.8-1.1C776.5,431.6,776.5,431.5,776.6,431.5Zm1.6,2a.3.3,0,0,1,.4,0l2.7,1.5c.1.1.1.2,0,.2l-1.8,1a.3.3,0,0,1-.4,0l-2.7-1.5c-.1-.1-.1-.2,0-.2Zm7-2.3a.3.3,0,0,1,.4,0l1.8,1.1c.1.1.1.2,0,.2l-1.8,1a.3.3,0,0,1-.4,0l-1.8-1.1c-.1-.1-.1-.2,0-.2Zm-2.7.7-1.8-1.1c-.1-.1-.1-.2,0-.2l1.8-1a.3.3,0,0,1,.4,0l1.8,1.1c.1.1.1.2,0,.2l-1.8,1A.3.3,0,0,1,782.5,431.9Zm.9,1.4-1.8,1a.3.3,0,0,1-.4,0l-1.8-1.1c-.1-.1-.1-.2,0-.2l1.8-1a.3.3,0,0,1,.4,0l1.8,1.1C783.5,433.1,783.5,433.2,783.4,433.3Zm-1.3,1.3,1.8-1a.3.3,0,0,1,.4,0l1.8,1.1c.1.1.1.2,0,.2l-1.8,1a.3.3,0,0,1-.4,0l-1.8-1.1C781.9,434.8,781.9,434.7,782.1,434.6Zm-.3,1a.3.3,0,0,1,.4,0l11.7,6.8c.1.1.1.2,0,.2l-1.8,1a.3.3,0,0,1-.4,0L780,436.8c-.1-.1-.1-.2,0-.2Zm14.9,1.9,1.8,1.1c.1.1.1.2,0,.2l-1.8,1a.3.3,0,0,1-.4,0l-1.8-1.1c-.1-.1-.1-.2,0-.2l1.8-1Zm-2.3,2.2-1.8,1a.3.3,0,0,1-.4,0l-1.8-1.1c-.1-.1-.1-.2,0-.2l1.8-1a.3.3,0,0,1,.4,0l1.8,1.1C794.5,439.5,794.5,439.6,794.4,439.7Zm-.5-3.8,1.8,1.1c.1.1.1.2,0,.2l-1.8,1a.3.3,0,0,1-.4,0l-1.8-1.1c-.1-.1-.1-.2,0-.2l1.8-1Zm-2.3,2.2-1.8,1a.3.3,0,0,1-.4,0l-1.8-1.1c-.1-.1-.1-.2,0-.2l1.8-1a.3.3,0,0,1,.4,0l1.8,1.1C791.8,437.9,791.8,438,791.6,438.1Zm-.8-3.8a.3.3,0,0,1,.4,0l1.8,1.1c.1.1.1.2,0,.2l-1.8,1a.3.3,0,0,1-.4,0l-1.8-1.1c-.1-.1-.1-.2,0-.2Zm-2.8.8-1.8-1.1c-.1-.1-.1-.2,0-.2l1.8-1a.3.3,0,0,1,.4,0l1.8,1.1c.1.1.1.2,0,.2l-1.8,1A.3.3,0,0,1,788,435.1Zm.9,1.4-1.8,1a.3.3,0,0,1-.4,0l-1.8-1.1c-.1-.1-.1-.2,0-.2l1.8-1a.3.3,0,0,1,.4,0l1.8,1.1C789,436.3,789,436.4,788.9,436.5Zm4.2,4.5,1.8-1a.3.3,0,0,1,.4,0l1.8,1.1c.1.1.1.2,0,.2l-1.8,1a.3.3,0,0,1-.4,0l-1.8-1.1C793,441.2,793,441.1,793.1,441Zm1.7,1.9,2.6,1.5c.1.1.1.2,0,.2l-1.8,1a.3.3,0,0,1-.4,0l-2.6-1.5c-.1-.1-.1-.2,0-.2l1.8-1A.3.3,0,0,1,794.8,442.9Zm7.5-2.2,1.8,1.1c.1.1.1.2,0,.2l-1.8,1a.3.3,0,0,1-.4,0l-1.9-1c-.1-.1-.1-.2,0-.2l1.8-1A1.088,1.088,0,0,1,802.3,440.7Zm-5-.3c-.1-.1-.1-.2,0-.2l1.8-1a.3.3,0,0,1,.4,0l1.8,1.1c.1.1.1.2,0,.2l-1.8,1a.3.3,0,0,1-.4,0Zm2.7,2.5-1.8,1a.3.3,0,0,1-.4,0l-1.8-1.1c-.1-.1-.1-.2,0-.2l1.8-1a.3.3,0,0,1,.4,0l1.8,1.1C800.1,442.7,800.1,442.8,800,442.9Zm.5.3a.3.3,0,0,1,.4,0l1.8,1.1c.1.1.1.2,0,.2l-1.8,1a.3.3,0,0,1-.4,0l-1.8-1.1c-.1-.1-.1-.2,0-.2Zm-2.1,1.8,2,1.2c.1.1.1.2,0,.2l-1.8,1a.3.3,0,0,1-.4,0l-2-1.2c-.1-.1-.1-.2,0-.2l1.8-1A.3.3,0,0,1,798.4,445Zm4.4-1.4c-.1-.1-.1-.2,0-.2l1.8-1a.3.3,0,0,1,.4,0l1.9,1.1c.1.1.1.2,0,.2l-1.8,1.1a.3.3,0,0,1-.4,0Zm2.8,1.4,1.8-1.1a.3.3,0,0,1,.4,0l1.9,1.1c.1.1.1.2,0,.2l-1.8,1.1a.3.3,0,0,1-.4,0l-1.9-1.1C805.5,445.2,805.5,445.1,805.6,445Zm-2.3,2.1-1.8-1.1c-.1-.1-.1-.2,0-.2l1.8-1a.3.3,0,0,1,.4,0l1.9,1.1c.1.1.1.2,0,.2l-1.8,1A.446.446,0,0,1,803.3,447.1Zm-3.2.2,2,1.2c.1.1.1.2,0,.2l-.6.3a.3.3,0,0,1-.4,0l-2-1.2c-.1-.1-.1-.2,0-.2l.6-.3Zm4.1,1,2,1.2c.1.1.1.2,0,.2l-.5.3a.3.3,0,0,1-.4,0l-2-1.2c-.1-.1-.1-.2,0-.2l.5-.3A.3.3,0,0,1,804.2,448.3Zm-1.3.7,2,1.2c.1.1.1.2,0,.2l-.6.3a.3.3,0,0,1-.4,0l-2-1.2c-.1-.1-.1-.2,0-.2l.6-.3Z" fill="#2156c9" fill-rule="evenodd"/><circle cx="4" cy="4" r="4" transform="translate(730 285.7)" fill="aqua"/><circle cx="4" cy="4" r="4" transform="translate(743.3 293.4)" fill="aqua" opacity="0.5"/><circle cx="4" cy="4" r="4" transform="translate(755.6 300.6)" fill="aqua" opacity="0.2"/><circle cx="4" cy="4" r="4" transform="translate(767.9 307.6)" fill="aqua" opacity="0.1"/><circle cx="4" cy="4" r="4" transform="translate(781 315.2)" fill="aqua" opacity="0.03"/><path d="M736.1,286.3,787.4,316l-4,7.1-51.3-29.9Z" opacity="0.7" fill="url(#w)"/><circle cx="4" cy="4" r="4" transform="translate(806 366.4)" fill="aqua"/><circle cx="4" cy="4" r="4" transform="translate(790.8 368.7)" fill="aqua" opacity="0.5"/><circle cx="4" cy="4" r="4" transform="translate(776.9 370.9)" fill="aqua" opacity="0.2"/><circle cx="4" cy="4" r="4" transform="translate(762.8 373.2)" fill="aqua" opacity="0.1"/><circle cx="4" cy="4" r="4" transform="translate(747.9 375.6)" fill="aqua" opacity="0.03"/><path d="M810.6,374.3l-58.5,9.4-1.4-8.1,58.6-9.2Z" opacity="0.7" fill="url(#x)"/><circle cx="4" cy="4" r="4" transform="translate(931 349.4)" fill="aqua"/><circle cx="4" cy="4" r="4" transform="translate(946.2 346.9)" fill="aqua" opacity="0.5"/><circle cx="4" cy="4" r="4" transform="translate(960.1 344.6)" fill="aqua" opacity="0.2"/><circle cx="4" cy="4" r="4" transform="translate(974.1 342.2)" fill="aqua" opacity="0.1"/><circle cx="4" cy="4" r="4" transform="translate(989.1 339.7)" fill="aqua" opacity="0.03"/><path d="M934.4,349.5l58.4-9.9,1.5,8.1-58.5,9.7Z" opacity="0.7" fill="url(#y)"/><circle cx="4" cy="4" r="4" transform="translate(988.7 433.2)" fill="aqua"/><circle cx="4" cy="4" r="4" transform="translate(975.7 424.9)" fill="aqua" opacity="0.5"/><circle cx="4" cy="4" r="4" transform="translate(963.8 417.3)" fill="aqua" opacity="0.2"/><circle cx="4" cy="4" r="4" transform="translate(951.8 409.7)" fill="aqua" opacity="0.1"/><circle cx="4" cy="4" r="4" transform="translate(939 401.5)" fill="aqua" opacity="0.03"/><path d="M990.5,440.5l-50-31.8,4.3-7,50,32Z" opacity="0.7" fill="url(#z)"/><path d="M965,124.1l-.1,33.8c0,1-.7,1.4-1.6.9l-41.9-24.2a3.383,3.383,0,0,1-1.6-2.7V98.1c0-1,.7-1.4,1.6-.9l41.9,24.2A3.257,3.257,0,0,1,965,124.1Z" fill-rule="evenodd" fill="url(#aa)"/><path d="M892.9,148.5l25.3-12.9a3.3,3.3,0,0,1,2.9.1l40.6,23.5h2v1.6a.824.824,0,0,1-.5.8L938,176.1a3.3,3.3,0,0,1-2.9-.1l-41.9-24.2C892.4,151.3,891.9,149,892.9,148.5Z" fill-rule="evenodd" fill="url(#ab)"/><path d="M964.8,124.3v33.8c0,1-.7,1.4-1.6.9l-41.9-24.2a3.383,3.383,0,0,1-1.6-2.7V98.3c0-1,.7-1.4,1.6-.9l41.9,24.2A3.383,3.383,0,0,1,964.8,124.3Z" fill-rule="evenodd" fill="url(#ac)"/><path d="M963.3,156.4V123.7a.55.55,0,0,0-.3-.5l-41.6-24c-.2-.1-.3,0-.3.2V132a.55.55,0,0,0,.3.5l41.6,24C963.2,156.7,963.3,156.6,963.3,156.4Z" fill="#0075a1" fill-rule="evenodd"/><path d="M963.2,159.9,938,174.4a3.3,3.3,0,0,1-2.9-.1l-41.9-24.2c-.9-.5-1-1.2-.2-1.7l25.2-14.6a3.3,3.3,0,0,1,2.9.1L963,158.1C963.9,158.7,964,159.4,963.2,159.9Z" fill-rule="evenodd" fill="url(#ad)"/><path d="M909.8,156.7l13.8,8a1.24,1.24,0,0,0,1.3-.1l6.3-3.7c.4-.2.4-.5.1-.7l-13.8-8a1.24,1.24,0,0,0-1.3.1l-6.3,3.7C909.5,156.2,909.5,156.6,909.8,156.7Z" fill="#2156c9" fill-rule="evenodd"/><path d="M908.9,159.1h.3c.3,0,.5.1.5.2l9.7,5.6c.5.2.7.4.7.6h-.3a2.354,2.354,0,0,1-.8-.2l-9.7-5.6A.723.723,0,0,1,908.9,159.1Z" fill="url(#ae)"/><path d="M945.7,166.4l-2-1.2c-.1-.1-.1-.2,0-.2l.6-.3a.3.3,0,0,1,.4,0l2,1.2c.1.1.1.2,0,.2l-.6.3C946.1,166.5,945.9,166.5,945.7,166.4Zm2.5-1.8-4.9-2.9c-.1-.1-.1-.2,0-.2l1.8-1a.3.3,0,0,1,.4,0l5,2.9c.1.1.1.2,0,.2l-1.8,1Zm2.8-1.7-3.6-2.1c-.1-.1-.1-.2,0-.2l1.8-1.1a.3.3,0,0,1,.4,0l3.6,2.1c.1.1.1.2,0,.2l-1.8,1.1A.3.3,0,0,1,951,162.9Zm2.8-1.6-1.9-1.1c-.1-.1-.1-.2,0-.2l1.8-1.1a.3.3,0,0,1,.4,0L956,160c.1.1.1.2,0,.2l-1.8,1.1A.3.3,0,0,1,953.8,161.3Zm-2.8-1.6-1.9-1.1c-.1-.1-.1-.2,0-.2l1.8-1.1a.3.3,0,0,1,.4,0l1.9,1.1c.1.1.1.2,0,.2l-1.8,1.1A.3.3,0,0,1,951,159.7Zm-2.8-1.6-1.9-1.1c-.1-.1-.1-.2,0-.2l1.8-1.1a.3.3,0,0,1,.4,0l1.9,1.1c.1.1.1.2,0,.2l-1.8,1.1A.3.3,0,0,1,948.2,158.1Zm-2.8-1.6-1.9-1.1c-.1-.1-.1-.2,0-.2l1.8-1.1a.3.3,0,0,1,.4,0l1.9,1.1c.1.1.1.2,0,.2l-1.8,1.1A.3.3,0,0,1,945.4,156.5Zm-2.8-1.6-1.8-1.1c-.1-.1-.1-.2,0-.2l1.8-1.1a.3.3,0,0,1,.4,0l1.9,1.1c.1.1.1.2,0,.2l-1.8,1.1Zm-2.8-1.6-1.8-1.1c-.1-.1-.1-.2,0-.2l1.8-1.1a.3.3,0,0,1,.4,0L942,152c.1.1.1.2,0,.2l-1.8,1.1Zm-2.7-1.6-1.8-1.1c-.1-.1-.1-.2,0-.2l1.8-1.1a.3.3,0,0,1,.4,0l1.8,1.1c.1.1.1.2,0,.2l-1.8,1.1Zm-2.8-1.6-1.8-1.1c-.1-.1-.1-.2,0-.2l1.8-1a.3.3,0,0,1,.4,0l1.8,1.1c.1.1.1.2,0,.2l-1.8,1Zm-2.8-1.6-1.8-1.1c-.1-.1-.1-.2,0-.2l1.8-1a.3.3,0,0,1,.4,0l1.8,1.1c.1.1.1.2,0,.2l-1.8,1Zm-2.3-1.6a.3.3,0,0,1-.4,0l-1.8-1.1c-.1-.1-.1-.2,0-.2l1.8-1a.3.3,0,0,1,.4,0l1.8,1.1c.1.1.1.2,0,.2Zm-2.8-1.6a.3.3,0,0,1-.4,0l-1.8-1.1c-.1-.1-.1-.2,0-.2l1.8-1a.3.3,0,0,1,.4,0l1.8,1.1c.1.1.1.2,0,.2Zm-2.7-1.6a.3.3,0,0,1-.4,0l-1.8-1.1c-.1-.1-.1-.2,0-.2l1.8-1a.3.3,0,0,1,.4,0l1.8,1.1c.1.1.1.2,0,.2Zm-2.8-1.6a.3.3,0,0,1-.4,0l-1.8-1.1c-.1-.1-.1-.2,0-.2l1.8-1a.3.3,0,0,1,.4,0l1.8,1.1c.1.1.1.2,0,.2Zm-2.7-1.6a.3.3,0,0,1-.4,0l-2.8-1.6c-.1-.1-.1-.2,0-.2l1.8-1a.3.3,0,0,1,.4,0l2.8,1.6c.1.1.1.2,0,.2Zm38.4,19.2-1.9-1.1c-.1-.1-.1-.2,0-.2l1-.6a.3.3,0,0,1,.4,0l1.9,1.1c.1.1.1.2,0,.2l-1,.6A.3.3,0,0,1,956.6,159.7Zm-2.8-1.6-1.9-1.1c-.1-.1-.1-.2,0-.2l1-.6a.3.3,0,0,1,.4,0l1.9,1.1c.1.1.1.2,0,.2l-1,.6A.3.3,0,0,1,953.8,158.1Zm-2.8-1.6-1.9-1.1c-.1-.1-.1-.2,0-.2l1-.6a.3.3,0,0,1,.4,0l1.9,1.1c.1.1.1.2,0,.2l-1,.6A.3.3,0,0,1,951,156.5Zm-2.8-1.6-1.9-1.1c-.1-.1-.1-.2,0-.2l1-.6a.3.3,0,0,1,.4,0l1.9,1.1c.1.1.1.2,0,.2l-1,.6Zm-2.8-1.6-1.8-1.1c-.1-.1-.1-.2,0-.2l1-.6a.3.3,0,0,1,.4,0l1.9,1.1c.1.1.1.2,0,.2l-1,.6Zm-2.8-1.6-1.8-1.1c-.1-.1-.1-.2,0-.2l1-.6a.3.3,0,0,1,.4,0l1.8,1.1c.1.1.1.2,0,.2l-1,.6Zm-2.7-1.6L938,149c-.1-.1-.1-.2,0-.2l1-.6a.3.3,0,0,1,.4,0l1.8,1.1c.1.1.1.2,0,.2l-1,.6Zm-2.8-1.6-1.8-1.1c-.1-.1-.1-.2,0-.2l1-.6a.3.3,0,0,1,.4,0l1.8,1.1c.1.1.1.2,0,.2l-1,.6Zm-2.8-1.6-1.8-1.1c-.1-.1-.1-.2,0-.2l1-.6a.3.3,0,0,1,.4,0l1.8,1.1c.1.1.1.2,0,.2l-1,.6Zm-2.3-1.6a.3.3,0,0,1-.4,0l-1.8-1.1c-.1-.1-.1-.2,0-.2l1-.6a.3.3,0,0,1,.4,0l1.8,1.1c.1.1.1.2,0,.2Zm-2.8-1.6a.3.3,0,0,1-.4,0l-1.8-1.1c-.1-.1-.1-.2,0-.2l1-.6a.3.3,0,0,1,.4,0l1.8,1.1c.1.1.1.2,0,.2Zm-2.8-1.6a.3.3,0,0,1-.4,0l-1.8-1.1c-.1-.1-.1-.2,0-.2l1-.6a.3.3,0,0,1,.4,0l1.8,1.1c.1.1.1.2,0,.2Zm-2.7-1.6a.3.3,0,0,1-.4,0l-1.8-1.1c-.1-.1-.1-.2,0-.2l1-.6a.3.3,0,0,1,.4,0l1.8,1.1c.1.1.1.2,0,.2Zm-2.7-1.6a.3.3,0,0,1-.4,0l-2.8-1.6c-.1-.1-.1-.2,0-.2l1-.6a.3.3,0,0,1,.4,0l2.8,1.6c.1.1.1.2,0,.2Zm-2.8,2.6c.1.1.1.2,0,.2l-1.8,1a.3.3,0,0,1-.4,0l-3.9-2.2c-.1-.1-.1-.2,0-.2l1.8-1a.3.3,0,0,1,.4,0Zm-1.3,2.4c.1.1.1.2,0,.2l-1.8,1a.3.3,0,0,1-.4,0l-5.3-3c-.1-.1-.1-.2,0-.2l1.8-1a.3.3,0,0,1,.4,0Zm-6.2-.4c.1.1.1.2,0,.2l-1.8,1a.3.3,0,0,1-.4,0l-1.8-1.1c-.1-.1-.1-.2,0-.2l1.8-1a.3.3,0,0,1,.4,0Zm.5.5a.3.3,0,0,1,.4,0l1.8,1.1c.1.1.1.2,0,.2l-1.8,1a.3.3,0,0,1-.4,0l-1.8-1.1c-.1-.1-.1-.2,0-.2Zm2.7,1.6a.3.3,0,0,1,.4,0l2.3,1.4c.1.1.1.2,0,.2l-1.8,1a.3.3,0,0,1-.4,0l-2.3-1.4c-.1-.1-.1-.2,0-.2Zm4.9-1.3-1.8-1.1c-.1-.1-.1-.2,0-.2l1.8-1a.3.3,0,0,1,.4,0l1.8,1.1c.1.1.1.2,0,.2l-1.8,1A.3.3,0,0,1,918.8,144.3Zm-3.2,1.2,1.8-1a.3.3,0,0,1,.4,0l1.8,1.1c.1.1.1.2,0,.2l-1.8,1a.3.3,0,0,1-.4,0l-1.8-1.1C915.5,145.6,915.5,145.5,915.6,145.5Zm1.6,2a.3.3,0,0,1,.4,0l2.7,1.5c.1.1.1.2,0,.2l-1.8,1a.3.3,0,0,1-.4,0l-2.7-1.5c-.1-.1-.1-.2,0-.2Zm7-2.3a.3.3,0,0,1,.4,0l1.8,1.1c.1.1.1.2,0,.2l-1.8,1a.3.3,0,0,1-.4,0l-1.8-1.1c-.1-.1-.1-.2,0-.2Zm-2.7.7-1.8-1.1c-.1-.1-.1-.2,0-.2l1.8-1a.3.3,0,0,1,.4,0l1.8,1.1c.1.1.1.2,0,.2l-1.8,1A.3.3,0,0,1,921.5,145.9Zm.9,1.4-1.8,1a.3.3,0,0,1-.4,0l-1.8-1.1c-.1-.1-.1-.2,0-.2l1.8-1a.3.3,0,0,1,.4,0l1.8,1.1C922.5,147.1,922.5,147.2,922.4,147.3Zm-1.3,1.3,1.8-1a.3.3,0,0,1,.4,0l1.8,1.1c.1.1.1.2,0,.2l-1.8,1a.3.3,0,0,1-.4,0l-1.8-1.1C920.9,148.8,920.9,148.7,921.1,148.6Zm-.3,1a.3.3,0,0,1,.4,0l11.7,6.8c.1.1.1.2,0,.2l-1.8,1a.3.3,0,0,1-.4,0L919,150.8c-.1-.1-.1-.2,0-.2Zm14.9,1.9,1.8,1.1c.1.1.1.2,0,.2l-1.8,1a.3.3,0,0,1-.4,0l-1.8-1.1c-.1-.1-.1-.2,0-.2l1.8-1Zm-2.3,2.2-1.8,1a.3.3,0,0,1-.4,0l-1.8-1.1c-.1-.1-.1-.2,0-.2l1.8-1a.3.3,0,0,1,.4,0l1.8,1.1C933.5,153.5,933.5,153.6,933.4,153.7Zm-.5-3.8,1.8,1.1c.1.1.1.2,0,.2l-1.8,1a.3.3,0,0,1-.4,0l-1.8-1.1c-.1-.1-.1-.2,0-.2l1.8-1Zm-2.3,2.2-1.8,1a.3.3,0,0,1-.4,0l-1.8-1.1c-.1-.1-.1-.2,0-.2l1.8-1a.3.3,0,0,1,.4,0l1.8,1.1C930.8,151.9,930.8,152,930.6,152.1Zm-.8-3.7a.3.3,0,0,1,.4,0l1.8,1.1c.1.1.1.2,0,.2l-1.8,1a.3.3,0,0,1-.4,0l-1.8-1.1c-.1-.1-.1-.2,0-.2Zm-2.8.7-1.8-1.1c-.1-.1-.1-.2,0-.2l1.8-1a.3.3,0,0,1,.4,0l1.8,1.1c.1.1.1.2,0,.2l-1.8,1A.3.3,0,0,1,927,149.1Zm.9,1.4-1.8,1a.3.3,0,0,1-.4,0l-1.8-1.1c-.1-.1-.1-.2,0-.2l1.8-1a.3.3,0,0,1,.4,0l1.8,1.1C928,150.3,928,150.4,927.9,150.5Zm4.2,4.5,1.8-1a.3.3,0,0,1,.4,0l1.8,1.1c.1.1.1.2,0,.2l-1.8,1a.3.3,0,0,1-.4,0l-1.8-1.1C932,155.2,932,155.1,932.1,155Zm1.7,1.9,2.6,1.5c.1.1.1.2,0,.2l-1.8,1a.3.3,0,0,1-.4,0l-2.6-1.5c-.1-.1-.1-.2,0-.2l1.8-1A.3.3,0,0,1,933.8,156.9Zm7.5-2.1,1.8,1.1c.1.1.1.2,0,.2l-1.8,1a.3.3,0,0,1-.4,0L939,156c-.1-.1-.1-.2,0-.2l1.8-1A.446.446,0,0,1,941.3,154.8Zm-5-.4c-.1-.1-.1-.2,0-.2l1.8-1a.3.3,0,0,1,.4,0l1.8,1.1c.1.1.1.2,0,.2l-1.8,1a.3.3,0,0,1-.4,0Zm2.7,2.5-1.8,1a.3.3,0,0,1-.4,0l-1.8-1.1c-.1-.1-.1-.2,0-.2l1.8-1a.3.3,0,0,1,.4,0l1.8,1.1C939.1,156.7,939.1,156.8,939,156.9Zm.5.3a.3.3,0,0,1,.4,0l1.8,1.1c.1.1.1.2,0,.2l-1.8,1a.3.3,0,0,1-.4,0l-1.8-1.1c-.1-.1-.1-.2,0-.2Zm-2.1,1.8,2,1.2c.1.1.1.2,0,.2l-1.8,1a.3.3,0,0,1-.4,0l-2-1.2c-.1-.1-.1-.2,0-.2l1.8-1A.3.3,0,0,1,937.4,159Zm4.4-1.4c-.1-.1-.1-.2,0-.2l1.8-1a.3.3,0,0,1,.4,0l1.9,1.1c.1.1.1.2,0,.2l-1.8,1.1a.3.3,0,0,1-.4,0Zm2.8,1.4,1.8-1.1a.3.3,0,0,1,.4,0l1.9,1.1c.1.1.1.2,0,.2l-1.8,1.1a.3.3,0,0,1-.4,0l-1.9-1.1C944.5,159.2,944.5,159.1,944.6,159Zm-2.3,2.2-1.8-1.1c-.1-.1-.1-.2,0-.2l1.8-1a.3.3,0,0,1,.4,0l1.9,1.1c.1.1.1.2,0,.2l-1.8,1Zm-3.2.2,2,1.2c.1.1.1.2,0,.2l-.6.3a.3.3,0,0,1-.4,0l-2-1.2c-.1-.1-.1-.2,0-.2l.6-.3A.3.3,0,0,1,939.1,161.4Zm4.1.9,2,1.2c.1.1.1.2,0,.2l-.5.3a.3.3,0,0,1-.4,0l-2-1.2c-.1-.1-.1-.2,0-.2l.5-.3A.3.3,0,0,1,943.2,162.3Zm-1.3.7,2,1.2c.1.1.1.2,0,.2l-.6.3a.3.3,0,0,1-.4,0l-2-1.2c-.1-.1-.1-.2,0-.2l.6-.3Z" fill="#2156c9" fill-rule="evenodd"/><path d="M1073.1,517.9a3.846,3.846,0,0,1-2.1,2.6l-27.2,15.7c-2.5,1.4-6.3,1.6-8.4.3L1006.8,520a2.683,2.683,0,0,1-1.5-2v-.3a3.846,3.846,0,0,1,2.1-2.6l8-4.6,1.8-1,17.4-10c2.5-1.4,6.3-1.6,8.4-.3l18.3,10.5,1.9,1.1,8.5,4.9A2.334,2.334,0,0,1,1073.1,517.9Z" fill="#0075a1" opacity="0.3"/><path d="M1073.1,497.3V462.1h-67.7v35.2a2.531,2.531,0,0,0,1.5,2.1l28.6,16.5a9.576,9.576,0,0,0,8.4-.3l27.2-15.7c1.3-.7,2-1.6,2-2.5h0Z" fill="#0073a1"/><ellipse cx="3.7" cy="6.5" rx="3.7" ry="6.5" transform="matrix(0.863, -0.505, 0.505, 0.863, 1015.436, 487.443)" fill="#1245a4" opacity="0.9" stroke-linecap="round" stroke-linejoin="round" stroke-miterlimit="10" stroke-width="3.454" stroke="aqua"/><ellipse cx="3.7" cy="6.5" rx="3.7" ry="6.5" transform="matrix(0.863, -0.505, 0.505, 0.863, 1008.527, 491.761)" fill="#1245a4" opacity="0.3" stroke-linecap="round" stroke-linejoin="round" stroke-miterlimit="10" stroke-width="3.454" stroke="aqua"/><ellipse cx="3.7" cy="6.5" rx="3.7" ry="6.5" transform="matrix(0.863, -0.505, 0.505, 0.863, 1002.052, 496.26)" fill="#1245a4" opacity="0.2" stroke-linecap="round" stroke-linejoin="round" stroke-miterlimit="10" stroke-width="3.454" stroke="aqua"/><ellipse cx="3.7" cy="6.5" rx="3.7" ry="6.5" transform="matrix(0.863, -0.505, 0.505, 0.863, 995.233, 501.426)" fill="#1245a4" opacity="0.1" stroke-linecap="round" stroke-linejoin="round" stroke-miterlimit="10" stroke-width="3.454" stroke="aqua"/><ellipse cx="6.5" cy="3.7" rx="6.5" ry="3.7" transform="matrix(0.505, -0.863, 0.863, 0.505, 1050.289, 494.758)" fill="#1245a4" opacity="0.9" stroke-linecap="round" stroke-linejoin="round" stroke-miterlimit="10" stroke-width="3.454" stroke="aqua"/><ellipse cx="6.5" cy="3.7" rx="6.5" ry="3.7" transform="matrix(0.505, -0.863, 0.863, 0.505, 1057.152, 499.046)" fill="#1245a4" opacity="0.3" stroke-linecap="round" stroke-linejoin="round" stroke-miterlimit="10" stroke-width="3.454" stroke="aqua"/><ellipse cx="6.5" cy="3.7" rx="6.5" ry="3.7" transform="matrix(0.505, -0.863, 0.863, 0.505, 1063.6, 503.464)" fill="#1245a4" opacity="0.2" stroke-linecap="round" stroke-linejoin="round" stroke-miterlimit="10" stroke-width="3.454" stroke="aqua"/><ellipse cx="6.5" cy="3.7" rx="6.5" ry="3.7" transform="matrix(0.505, -0.863, 0.863, 0.505, 1070.558, 508.699)" fill="#1245a4" opacity="0.1" stroke-linecap="round" stroke-linejoin="round" stroke-miterlimit="10" stroke-width="3.454" stroke="aqua"/><path d="M1073.1,462.3a3.846,3.846,0,0,1-2.1,2.6l-27.2,15.7c-2.5,1.4-6.3,1.6-8.4.3l-28.6-16.5a2.683,2.683,0,0,1-1.5-2v-.3a3.846,3.846,0,0,1,2.1-2.6l8-4.6,1.8-1,17.4-10c2.5-1.4,6.3-1.6,8.4-.3l18.3,10.5,1.9,1.1,8.5,4.9A2.432,2.432,0,0,1,1073.1,462.3Z" fill="url(#af)"/><path d="M1058.9,463.9l-.7.4-16.1,9.3a5.648,5.648,0,0,1-5.2.2l-16.6-9.6-1.1-.6c-1.3-.8-1.2-2.1.4-3l16.8-9.7a5.648,5.648,0,0,1,5.2-.2l17.7,10.2C1060.6,461.6,1060.4,463,1058.9,463.9Z" fill="#31cdf3"/><path d="M1058.1,464.3l-16.1,9.3a5.648,5.648,0,0,1-5.2.2l-16.6-9.6,16.1-9.3a5.648,5.648,0,0,1,5.2-.2Z" fill="#6ce1f5"/><path d="M1070,390.8l-5.1,36.6-3.7,26.6-1.1,8.1h0a1.606,1.606,0,0,1-.5,1.1,5.542,5.542,0,0,1-.8.6l-.7.4h0l-16.1,9.3a5.3,5.3,0,0,1-2.8.7h-.3a4.648,4.648,0,0,1-2.1-.5l-16.6-9.6h0l-1.1-.6c-.1-.1-.3-.2-.4-.3a.1.1,0,0,1-.1-.1l-.1-.1a.349.349,0,0,1-.1-.2v-.1c0-.1-.1-.1-.1-.2v-.2h0V462l-1-8.2-3.3-26.3-4.6-36.4Z" opacity="0.6" fill="url(#ag)"/><path d="M1064.9,427.4l-3.7,26.6-1.1,8.1h0a1.606,1.606,0,0,1-.5,1.1,5.542,5.542,0,0,1-.8.6l-.7.4h0l-16.1,9.3a5.3,5.3,0,0,1-2.8.7h-.3a4.648,4.648,0,0,1-2.1-.5l-16.6-9.6h0l-1.1-.6c-.1-.1-.3-.2-.4-.3a.1.1,0,0,1-.1-.1l-.1-.1a.349.349,0,0,1-.1-.2v-.1c0-.1-.1-.1-.1-.2v-.2h0V462l-1-8.2-3.3-26.3Z" fill="url(#ah)"/><g transform="translate(429 69)"><circle cx="0.8" cy="0.8" r="0.8" transform="translate(590.7 360.8)" fill="aqua" opacity="0.3"/><circle cx="0.8" cy="0.8" r="0.8" transform="translate(598.2 363.3)" fill="aqua" opacity="0.3"/><circle cx="0.8" cy="0.8" r="0.8" transform="translate(592.2 369.8)" fill="aqua" opacity="0.3"/><circle cx="0.8" cy="0.8" r="0.8" transform="translate(595.4 381.4)" fill="aqua" opacity="0.3"/><circle cx="0.8" cy="0.8" r="0.8" transform="translate(598.2 374.6)" fill="aqua" opacity="0.3"/><circle cx="0.8" cy="0.8" r="0.8" transform="translate(593.9 354.6)" fill="aqua" opacity="0.3"/><circle cx="0.8" cy="0.8" r="0.8" transform="translate(594.3 340.5)" fill="aqua" opacity="0.3"/><circle cx="0.8" cy="0.8" r="0.8" transform="translate(614 352.7)" fill="aqua" opacity="0.3"/><circle cx="0.8" cy="0.8" r="0.8" transform="translate(622.1 354.1)" fill="aqua" opacity="0.3"/><circle cx="0.8" cy="0.8" r="0.8" transform="translate(616 365.1)" fill="aqua" opacity="0.3"/><circle cx="0.8" cy="0.8" r="0.8" transform="translate(626.1 359.9)" fill="aqua" opacity="0.3"/><circle cx="0.8" cy="0.8" r="0.8" transform="translate(623.2 364.1)" fill="aqua" opacity="0.3"/><circle cx="0.8" cy="0.8" r="0.8" transform="translate(627.3 367.2)" fill="aqua" opacity="0.3"/><circle cx="0.8" cy="0.8" r="0.8" transform="translate(625 376.2)" fill="aqua" opacity="0.3"/><circle cx="0.8" cy="0.8" r="0.8" transform="translate(629.2 359.3)" fill="aqua" opacity="0.3"/><path d="M95.184,19.672v-.845H94.4v-.483h.784V17.5h.543v.845h.784v.483h-.784v.845Z" transform="translate(515.937 404.825) rotate(-25)" fill="aqua"/><path d="M94.972,19.084v-.616H94.4v-.352h.572V17.5h.4v.616h.572v.352h-.572v.616Z" transform="translate(514.32 402.971) rotate(-25)" fill="aqua"/><path d="M94.783,18.561v-.413H94.4v-.236h.383V17.5h.265v.413h.383v.236h-.383v.413Z" transform="translate(516.089 408.172) rotate(-30)" fill="aqua"/><path d="M94.783,18.561v-.413H94.4v-.236h.383V17.5h.265v.413h.383v.236h-.383v.413Z" transform="translate(520.089 404.172) rotate(-30)" fill="aqua"/><path d="M94.783,18.561v-.413H94.4v-.236h.383V17.5h.265v.413h.383v.236h-.383v.413Z" transform="translate(517.089 398.172) rotate(-30)" fill="aqua"/><path d="M95.14,19.549v-.8H94.4V18.3h.74v-.8h.512v.8h.74v.455h-.74v.8Z" transform="translate(519.426 406.984) rotate(-30)" fill="aqua"/><path d="M95.14,19.549v-.8H94.4V18.3h.74v-.8h.512v.8h.74v.455h-.74v.8Z" transform="translate(519.426 396.984) rotate(-30)" fill="aqua"/><path d="M95.14,19.549v-.8H94.4V18.3h.74v-.8h.512v.8h.74v.455h-.74v.8Z" transform="translate(512.426 400.984) rotate(-30)" fill="aqua"/><path d="M95.14,19.549v-.8H94.4V18.3h.74v-.8h.512v.8h.74v.455h-.74v.8Z" transform="translate(522.426 398.984) rotate(-30)" fill="aqua"/><path d="M95.416,20.313V19.219H94.4v-.625h1.016V17.5h.7v1.094h1.016v.625H96.119v1.094Z" transform="translate(513.913 403.839) rotate(-30)" fill="aqua"/><path d="M95.416,20.313V19.219H94.4v-.625h1.016V17.5h.7v1.094h1.016v.625H96.119v1.094Z" transform="translate(518.913 400.839) rotate(-30)" fill="aqua"/><path d="M95.416,20.313V19.219H94.4v-.625h1.016V17.5h.7v1.094h1.016v.625H96.119v1.094Z" transform="translate(513.913 389.839) rotate(-30)" fill="aqua"/><path d="M95.943,21.774V20.112H94.4v-.95h1.543V17.5h1.068v1.662h1.543v.95H97.012v1.662Z" transform="translate(511.933 395.561) rotate(-30)" fill="aqua"/><path d="M96.646,23.719V21.3H94.4V19.918h2.246V17.5H98.2v2.418h2.246V21.3H98.2v2.418Z" transform="translate(517.628 391.192) rotate(-30)" fill="aqua"/><path d="M97.289,25.5V22.388H94.4V20.611h2.889V17.5h2v3.111h2.889v1.778H99.288V25.5Z" transform="translate(514.434 381.854) rotate(-30)" fill="aqua"/></g><path d="M1042.5,412.1l-16.9-9.9c-1.3-.7-1.1-2,.3-2.6l16.9-7.4,17.4,10.2L1047,412A4.769,4.769,0,0,1,1042.5,412.1Z" fill="url(#ai)"/><path d="M1042.5,411.6l-16.9-9.9c-1.3-.7-1.1-2,.3-2.6l16.9-7.4,17.4,10.2-13.1,9.6A4.706,4.706,0,0,1,1042.5,411.6Z" fill="#124a61"/><path d="M1080.2,356.2,1007.1,314a1.624,1.624,0,0,0-1.5-.1l-1.1.3a4.608,4.608,0,0,1,.5,1c0,.2,1.4.9,1.4.9l.5-.5v55a5.376,5.376,0,0,0,2.2,4.3l70.4,41.8.6.4.3,1.2c.1.2.1.5.2.7,0,0,0,.2.1.2a.349.349,0,0,1,.2-.1c.4-.2,1.5-.4,1.6-1.3s.1-57.4.1-57.2A5.578,5.578,0,0,0,1080.2,356.2Z" fill="url(#aj)"/><path d="M1079.3,360.9l-73.1-42.2c-1.2-.7-2.2,0-2.2,1.7v52a5.376,5.376,0,0,0,2.2,4.3l73.1,42.2c1.2.7,2.2,0,2.2-1.7v-52A5.694,5.694,0,0,0,1079.3,360.9Z" fill="url(#ak)"/><path d="M1081.5,360.3v49.3l-77.6-44.8V315.5c0-1.4,1-1.9,2.2-1.2l73.1,42.2A5.047,5.047,0,0,1,1081.5,360.3Z" fill="#0075a1"/><path d="M646.4,445a3.657,3.657,0,0,1-2.1,2.6l-27.9,16.1a9.709,9.709,0,0,1-8.6.4l-29.3-16.9a2.861,2.861,0,0,1-1.5-2v-.3a3.657,3.657,0,0,1,2.1-2.6l8.2-4.7,1.8-1.1,17.8-10.3a9.709,9.709,0,0,1,8.6-.4l18.7,10.8,2,1.1,8.7,5A2.431,2.431,0,0,1,646.4,445Z" fill="#0075a1" opacity="0.3"/><path d="M646.4,423.9v-36H577V424a2.666,2.666,0,0,0,1.5,2.2l29.3,16.9c2.2,1.3,6.1,1.1,8.6-.4l27.9-16.1a3.657,3.657,0,0,0,2.1-2.6h0v-.1Z" fill="#0073a1"/><ellipse cx="3.8" cy="6.6" rx="3.8" ry="6.6" transform="matrix(0.863, -0.505, 0.505, 0.863, 587.398, 413.899)" fill="#1245a4" opacity="0.9" stroke-linecap="round" stroke-linejoin="round" stroke-miterlimit="10" stroke-width="3.539" stroke="aqua"/><ellipse cx="3.8" cy="6.6" rx="3.8" ry="6.6" transform="matrix(0.863, -0.505, 0.505, 0.863, 580.29, 418.334)" fill="#1245a4" opacity="0.3" stroke-linecap="round" stroke-linejoin="round" stroke-miterlimit="10" stroke-width="3.539" stroke="aqua"/><ellipse cx="3.8" cy="6.6" rx="3.8" ry="6.6" transform="matrix(0.863, -0.505, 0.505, 0.863, 573.702, 422.904)" fill="#1245a4" opacity="0.2" stroke-linecap="round" stroke-linejoin="round" stroke-miterlimit="10" stroke-width="3.539" stroke="aqua"/><ellipse cx="3.8" cy="6.6" rx="3.8" ry="6.6" transform="matrix(0.863, -0.505, 0.505, 0.863, 566.587, 428.24)" fill="#1245a4" opacity="0.1" stroke-linecap="round" stroke-linejoin="round" stroke-miterlimit="10" stroke-width="3.539" stroke="aqua"/><ellipse cx="6.6" cy="3.8" rx="6.6" ry="3.8" transform="matrix(0.505, -0.863, 0.863, 0.505, 623.034, 421.176)" fill="#1245a4" opacity="0.9" stroke-linecap="round" stroke-linejoin="round" stroke-miterlimit="10" stroke-width="3.539" stroke="aqua"/><ellipse cx="6.6" cy="3.8" rx="6.6" ry="3.8" transform="matrix(0.505, -0.863, 0.863, 0.505, 630.112, 425.677)" fill="#1245a4" opacity="0.3" stroke-linecap="round" stroke-linejoin="round" stroke-miterlimit="10" stroke-width="3.539" stroke="aqua"/><ellipse cx="6.6" cy="3.8" rx="6.6" ry="3.8" transform="matrix(0.505, -0.863, 0.863, 0.505, 636.682, 430.25)" fill="#1245a4" opacity="0.2" stroke-linecap="round" stroke-linejoin="round" stroke-miterlimit="10" stroke-width="3.539" stroke="aqua"/><ellipse cx="6.6" cy="3.8" rx="6.6" ry="3.8" transform="matrix(0.505, -0.863, 0.863, 0.505, 643.8, 435.572)" fill="#1245a4" opacity="0.1" stroke-linecap="round" stroke-linejoin="round" stroke-miterlimit="10" stroke-width="3.539" stroke="aqua"/><path d="M646.4,388.1a3.657,3.657,0,0,1-2.1,2.6l-27.9,16.1a9.709,9.709,0,0,1-8.6.4l-29.3-16.9a2.861,2.861,0,0,1-1.5-2v-.4a3.657,3.657,0,0,1,2.1-2.6l8.2-4.7,1.8-1.1,17.8-10.3a9.709,9.709,0,0,1,8.6-.4l18.7,10.8,2,1.1,8.7,5A2.557,2.557,0,0,1,646.4,388.1Z" fill="url(#al)"/><path d="M631.8,389.7l-.7.4-16.5,9.5a5.86,5.86,0,0,1-5.3.2l-17-9.8-1.1-.7c-1.4-.8-1.2-2.2.4-3.1l17.2-9.9a5.86,5.86,0,0,1,5.3-.2l18.1,10.5C633.6,387.4,633.4,388.8,631.8,389.7Z" fill="#31cdf3"/><path d="M631.1,390.1l-16.5,9.5a5.86,5.86,0,0,1-5.3.2l-17-9.8,16.5-9.5a5.86,5.86,0,0,1,5.3-.2Z" fill="#6ce1f5"/><path d="M643.2,314.8,638,352.3l-3.8,27.3-1.1,8.3h0a1.606,1.606,0,0,1-.5,1.1,5.548,5.548,0,0,1-.8.6l-.7.4h0l-16.5,9.5a6.51,6.51,0,0,1-2.8.8h-.4a5.091,5.091,0,0,1-2.2-.5l-17-9.8h0l-1.1-.7c-.1-.1-.3-.2-.4-.3a.1.1,0,0,1-.1-.1l-.1-.1a.349.349,0,0,1-.1-.2v-.1c0-.1-.1-.1-.1-.2v-.2h0v-.3l-1.1-8.4-3.4-26.9-4.7-37.3Z" opacity="0.6" fill="url(#am)"/><path d="M638.1,352.3l-3.8,27.3-1.1,8.3h0a1.606,1.606,0,0,1-.5,1.1,5.548,5.548,0,0,1-.8.6l-.7.4h0l-16.5,9.5a6.51,6.51,0,0,1-2.8.8h-.4a5.091,5.091,0,0,1-2.2-.5l-17-9.8h0l-1.1-.7c-.1-.1-.3-.2-.4-.3a.1.1,0,0,1-.1-.1l-.1-.1a.349.349,0,0,1-.1-.2v-.1c0-.1-.1-.1-.1-.2v-.2h0v-.3l-1.1-8.4-3.4-26.9Z" fill="url(#an)"/><circle cx="0.8" cy="0.8" r="0.8" transform="translate(590.7 360.8)" fill="aqua" opacity="0.3"/><circle cx="0.8" cy="0.8" r="0.8" transform="translate(598.2 363.3)" fill="aqua" opacity="0.3"/><circle cx="0.8" cy="0.8" r="0.8" transform="translate(592.2 369.8)" fill="aqua" opacity="0.3"/><circle cx="0.8" cy="0.8" r="0.8" transform="translate(595.4 381.4)" fill="aqua" opacity="0.3"/><circle cx="0.8" cy="0.8" r="0.8" transform="translate(598.2 374.6)" fill="aqua" opacity="0.3"/><circle cx="0.8" cy="0.8" r="0.8" transform="translate(593.9 354.6)" fill="aqua" opacity="0.3"/><circle cx="0.8" cy="0.8" r="0.8" transform="translate(594.3 340.5)" fill="aqua" opacity="0.3"/><circle cx="0.8" cy="0.8" r="0.8" transform="translate(614 352.7)" fill="aqua" opacity="0.3"/><circle cx="0.8" cy="0.8" r="0.8" transform="translate(622.1 354.1)" fill="aqua" opacity="0.3"/><circle cx="0.8" cy="0.8" r="0.8" transform="translate(616 365.1)" fill="aqua" opacity="0.3"/><circle cx="0.8" cy="0.8" r="0.8" transform="translate(626.1 359.9)" fill="aqua" opacity="0.3"/><circle cx="0.8" cy="0.8" r="0.8" transform="translate(623.2 364.1)" fill="aqua" opacity="0.3"/><circle cx="0.8" cy="0.8" r="0.8" transform="translate(627.3 367.2)" fill="aqua" opacity="0.3"/><circle cx="0.8" cy="0.8" r="0.8" transform="translate(625 376.2)" fill="aqua" opacity="0.3"/><circle cx="0.8" cy="0.8" r="0.8" transform="translate(629.2 359.3)" fill="aqua" opacity="0.3"/><path d="M95.184,19.672v-.845H94.4v-.483h.784V17.5h.543v.845h.784v.483h-.784v.845Z" transform="translate(515.937 404.825) rotate(-25)" fill="aqua"/><path d="M94.972,19.084v-.616H94.4v-.352h.572V17.5h.4v.616h.572v.352h-.572v.616Z" transform="translate(514.32 402.971) rotate(-25)" fill="aqua"/><path d="M94.783,18.561v-.413H94.4v-.236h.383V17.5h.265v.413h.383v.236h-.383v.413Z" transform="translate(516.089 408.172) rotate(-30)" fill="aqua"/><path d="M94.783,18.561v-.413H94.4v-.236h.383V17.5h.265v.413h.383v.236h-.383v.413Z" transform="translate(520.089 404.172) rotate(-30)" fill="aqua"/><path d="M94.783,18.561v-.413H94.4v-.236h.383V17.5h.265v.413h.383v.236h-.383v.413Z" transform="translate(517.089 398.172) rotate(-30)" fill="aqua"/><path d="M95.14,19.549v-.8H94.4V18.3h.74v-.8h.512v.8h.74v.455h-.74v.8Z" transform="translate(519.426 406.984) rotate(-30)" fill="aqua"/><path d="M95.14,19.549v-.8H94.4V18.3h.74v-.8h.512v.8h.74v.455h-.74v.8Z" transform="translate(519.426 396.984) rotate(-30)" fill="aqua"/><path d="M95.14,19.549v-.8H94.4V18.3h.74v-.8h.512v.8h.74v.455h-.74v.8Z" transform="translate(512.426 400.984) rotate(-30)" fill="aqua"/><path d="M95.14,19.549v-.8H94.4V18.3h.74v-.8h.512v.8h.74v.455h-.74v.8Z" transform="translate(522.426 398.984) rotate(-30)" fill="aqua"/><path d="M95.416,20.313V19.219H94.4v-.625h1.016V17.5h.7v1.094h1.016v.625H96.119v1.094Z" transform="translate(513.913 403.839) rotate(-30)" fill="aqua"/><path d="M95.416,20.313V19.219H94.4v-.625h1.016V17.5h.7v1.094h1.016v.625H96.119v1.094Z" transform="translate(518.913 400.839) rotate(-30)" fill="aqua"/><path d="M95.416,20.313V19.219H94.4v-.625h1.016V17.5h.7v1.094h1.016v.625H96.119v1.094Z" transform="translate(513.913 389.839) rotate(-30)" fill="aqua"/><path d="M95.943,21.774V20.112H94.4v-.95h1.543V17.5h1.068v1.662h1.543v.95H97.012v1.662Z" transform="translate(511.933 395.561) rotate(-30)" fill="aqua"/><path d="M96.646,23.719V21.3H94.4V19.918h2.246V17.5H98.2v2.418h2.246V21.3H98.2v2.418Z" transform="translate(517.628 391.192) rotate(-30)" fill="aqua"/><path d="M97.289,25.5V22.388H94.4V20.611h2.889V17.5h2v3.111h2.889v1.778H99.288V25.5Z" transform="translate(514.434 381.854) rotate(-30)" fill="aqua"/><path d="M827.4,566.1a3.657,3.657,0,0,1-2.1,2.6l-27.9,16.1a9.709,9.709,0,0,1-8.6.4l-29.3-16.9a2.861,2.861,0,0,1-1.5-2v-.4a3.657,3.657,0,0,1,2.1-2.6l8.2-4.7,1.8-1.1,17.8-10.3a9.709,9.709,0,0,1,8.6-.4l18.7,10.8,2,1.1,8.7,5A2.635,2.635,0,0,1,827.4,566.1Z" fill="#0075a1" opacity="0.3"/><path d="M827.4,544.9v-36H758V545a2.666,2.666,0,0,0,1.5,2.2l29.3,16.9c2.2,1.3,6.1,1.1,8.6-.4l27.9-16.1a3.657,3.657,0,0,0,2.1-2.6h0v-.1Z" fill="#0073a1"/><ellipse cx="3.8" cy="6.6" rx="3.8" ry="6.6" transform="matrix(0.863, -0.505, 0.505, 0.863, 768.386, 534.885)" fill="#1245a4" opacity="0.9" stroke-linecap="round" stroke-linejoin="round" stroke-miterlimit="10" stroke-width="3.539" stroke="aqua"/><ellipse cx="3.8" cy="6.6" rx="3.8" ry="6.6" transform="matrix(0.863, -0.505, 0.505, 0.863, 761.278, 539.32)" fill="#1245a4" opacity="0.3" stroke-linecap="round" stroke-linejoin="round" stroke-miterlimit="10" stroke-width="3.539" stroke="aqua"/><ellipse cx="3.8" cy="6.6" rx="3.8" ry="6.6" transform="matrix(0.863, -0.505, 0.505, 0.863, 754.69, 543.89)" fill="#1245a4" opacity="0.2" stroke-linecap="round" stroke-linejoin="round" stroke-miterlimit="10" stroke-width="3.539" stroke="aqua"/><ellipse cx="3.8" cy="6.6" rx="3.8" ry="6.6" transform="matrix(0.863, -0.505, 0.505, 0.863, 747.575, 549.227)" fill="#1245a4" opacity="0.1" stroke-linecap="round" stroke-linejoin="round" stroke-miterlimit="10" stroke-width="3.539" stroke="aqua"/><ellipse cx="6.6" cy="3.8" rx="6.6" ry="3.8" transform="matrix(0.505, -0.863, 0.863, 0.505, 804.043, 542.3)" fill="#1245a4" opacity="0.9" stroke-linecap="round" stroke-linejoin="round" stroke-miterlimit="10" stroke-width="3.539" stroke="aqua"/><ellipse cx="6.6" cy="3.8" rx="6.6" ry="3.8" transform="matrix(0.505, -0.863, 0.863, 0.505, 811.085, 546.664)" fill="#1245a4" opacity="0.3" stroke-linecap="round" stroke-linejoin="round" stroke-miterlimit="10" stroke-width="3.539" stroke="aqua"/><ellipse cx="6.6" cy="3.8" rx="6.6" ry="3.8" transform="matrix(0.505, -0.863, 0.863, 0.505, 817.741, 551.288)" fill="#1245a4" opacity="0.2" stroke-linecap="round" stroke-linejoin="round" stroke-miterlimit="10" stroke-width="3.539" stroke="aqua"/><ellipse cx="6.6" cy="3.8" rx="6.6" ry="3.8" transform="matrix(0.505, -0.863, 0.863, 0.505, 824.772, 556.559)" fill="#1245a4" opacity="0.1" stroke-linecap="round" stroke-linejoin="round" stroke-miterlimit="10" stroke-width="3.539" stroke="aqua"/><path d="M827.4,509.1a3.657,3.657,0,0,1-2.1,2.6l-27.9,16.1a9.709,9.709,0,0,1-8.6.4l-29.3-16.9a2.861,2.861,0,0,1-1.5-2v-.4a3.657,3.657,0,0,1,2.1-2.6l8.2-4.7,1.8-1.1,17.8-10.3a9.709,9.709,0,0,1,8.6-.4l18.7,10.8,2,1.1,8.7,5A2.739,2.739,0,0,1,827.4,509.1Z" fill="url(#ao)"/><path d="M812.8,510.7l-.7.4-16.5,9.5a5.86,5.86,0,0,1-5.3.2l-17-9.8-1.1-.7c-1.4-.8-1.2-2.2.4-3.1l17.2-9.9a5.86,5.86,0,0,1,5.3-.2l18.1,10.5C814.6,508.4,814.4,509.8,812.8,510.7Z" fill="#31cdf3"/><path d="M812.1,511.1l-16.5,9.5a5.86,5.86,0,0,1-5.3.2l-17-9.8,16.5-9.5a5.86,5.86,0,0,1,5.3-.2Z" fill="#6ce1f5"/><path d="M824.2,435.8,819,473.3l-3.8,27.3-1.1,8.3h0a1.606,1.606,0,0,1-.5,1.1,5.548,5.548,0,0,1-.8.6l-.7.4h0l-16.5,9.5a6.51,6.51,0,0,1-2.8.8h-.4a5.091,5.091,0,0,1-2.2-.5l-17-9.8h0l-1.1-.7c-.1-.1-.3-.2-.4-.3a.1.1,0,0,1-.1-.1l-.1-.1a.349.349,0,0,1-.1-.2v-.1c0-.1-.1-.1-.1-.2v-.2h0v-.3l-1.1-8.4-3.4-26.9-4.7-37.3Z" opacity="0.6" fill="url(#ap)"/><path d="M819,473.4l-3.8,27.3-1.1,8.3h0a1.606,1.606,0,0,1-.5,1.1,5.548,5.548,0,0,1-.8.6l-.7.4h0l-16.5,9.5a6.51,6.51,0,0,1-2.8.8h-.4a5.091,5.091,0,0,1-2.2-.5l-17-9.8h0l-1.1-.7c-.1-.1-.3-.2-.4-.3a.1.1,0,0,1-.1-.1l-.1-.1a.349.349,0,0,1-.1-.2v-.1c0-.1-.1-.1-.1-.2v-.2h0v-.3l-1.1-8.4-3.4-26.9Z" fill="url(#aq)"/><g transform="translate(180 119)"><circle cx="0.8" cy="0.8" r="0.8" transform="translate(590.7 360.8)" fill="aqua" opacity="0.3"/><circle cx="0.8" cy="0.8" r="0.8" transform="translate(598.2 363.3)" fill="aqua" opacity="0.3"/><circle cx="0.8" cy="0.8" r="0.8" transform="translate(592.2 369.8)" fill="aqua" opacity="0.3"/><circle cx="0.8" cy="0.8" r="0.8" transform="translate(595.4 381.4)" fill="aqua" opacity="0.3"/><circle cx="0.8" cy="0.8" r="0.8" transform="translate(598.2 374.6)" fill="aqua" opacity="0.3"/><circle cx="0.8" cy="0.8" r="0.8" transform="translate(593.9 354.6)" fill="aqua" opacity="0.3"/><circle cx="0.8" cy="0.8" r="0.8" transform="translate(594.3 340.5)" fill="aqua" opacity="0.3"/><circle cx="0.8" cy="0.8" r="0.8" transform="translate(614 352.7)" fill="aqua" opacity="0.3"/><circle cx="0.8" cy="0.8" r="0.8" transform="translate(622.1 354.1)" fill="aqua" opacity="0.3"/><circle cx="0.8" cy="0.8" r="0.8" transform="translate(616 365.1)" fill="aqua" opacity="0.3"/><circle cx="0.8" cy="0.8" r="0.8" transform="translate(626.1 359.9)" fill="aqua" opacity="0.3"/><circle cx="0.8" cy="0.8" r="0.8" transform="translate(623.2 364.1)" fill="aqua" opacity="0.3"/><circle cx="0.8" cy="0.8" r="0.8" transform="translate(627.3 367.2)" fill="aqua" opacity="0.3"/><circle cx="0.8" cy="0.8" r="0.8" transform="translate(625 376.2)" fill="aqua" opacity="0.3"/><circle cx="0.8" cy="0.8" r="0.8" transform="translate(629.2 359.3)" fill="aqua" opacity="0.3"/><path d="M95.184,19.672v-.845H94.4v-.483h.784V17.5h.543v.845h.784v.483h-.784v.845Z" transform="translate(515.937 404.825) rotate(-25)" fill="aqua"/><path d="M94.972,19.084v-.616H94.4v-.352h.572V17.5h.4v.616h.572v.352h-.572v.616Z" transform="translate(514.32 402.971) rotate(-25)" fill="aqua"/><path d="M94.783,18.561v-.413H94.4v-.236h.383V17.5h.265v.413h.383v.236h-.383v.413Z" transform="translate(516.089 408.172) rotate(-30)" fill="aqua"/><path d="M94.783,18.561v-.413H94.4v-.236h.383V17.5h.265v.413h.383v.236h-.383v.413Z" transform="translate(520.089 404.172) rotate(-30)" fill="aqua"/><path d="M94.783,18.561v-.413H94.4v-.236h.383V17.5h.265v.413h.383v.236h-.383v.413Z" transform="translate(517.089 398.172) rotate(-30)" fill="aqua"/><path d="M95.14,19.549v-.8H94.4V18.3h.74v-.8h.512v.8h.74v.455h-.74v.8Z" transform="translate(519.426 406.984) rotate(-30)" fill="aqua"/><path d="M95.14,19.549v-.8H94.4V18.3h.74v-.8h.512v.8h.74v.455h-.74v.8Z" transform="translate(519.426 396.984) rotate(-30)" fill="aqua"/><path d="M95.14,19.549v-.8H94.4V18.3h.74v-.8h.512v.8h.74v.455h-.74v.8Z" transform="translate(512.426 400.984) rotate(-30)" fill="aqua"/><path d="M95.14,19.549v-.8H94.4V18.3h.74v-.8h.512v.8h.74v.455h-.74v.8Z" transform="translate(522.426 398.984) rotate(-30)" fill="aqua"/><path d="M95.416,20.313V19.219H94.4v-.625h1.016V17.5h.7v1.094h1.016v.625H96.119v1.094Z" transform="translate(513.913 403.839) rotate(-30)" fill="aqua"/><path d="M95.416,20.313V19.219H94.4v-.625h1.016V17.5h.7v1.094h1.016v.625H96.119v1.094Z" transform="translate(518.913 400.839) rotate(-30)" fill="aqua"/><path d="M95.416,20.313V19.219H94.4v-.625h1.016V17.5h.7v1.094h1.016v.625H96.119v1.094Z" transform="translate(513.913 389.839) rotate(-30)" fill="aqua"/><path d="M95.943,21.774V20.112H94.4v-.95h1.543V17.5h1.068v1.662h1.543v.95H97.012v1.662Z" transform="translate(511.933 395.561) rotate(-30)" fill="aqua"/><path d="M96.646,23.719V21.3H94.4V19.918h2.246V17.5H98.2v2.418h2.246V21.3H98.2v2.418Z" transform="translate(517.628 391.192) rotate(-30)" fill="aqua"/><path d="M97.289,25.5V22.388H94.4V20.611h2.889V17.5h2v3.111h2.889v1.778H99.288V25.5Z" transform="translate(514.434 381.854) rotate(-30)" fill="aqua"/></g><path d="M628.1,354.1,593.8,333a7.084,7.084,0,0,1-3-5.7l-.2-53.3c0-3.3,3.3-3.4,5-2.5l34.1,19.9c1.7,1,2.6,3.5,2.6,5.7v53.1C632.3,354.1,630.9,355.5,628.1,354.1Z" fill-rule="evenodd" fill="url(#ar)"/><path d="M628.2,354.2l-34.5-19.9a7.084,7.084,0,0,1-3-5.7V274c0-2.2,1.3-3.2,3-2.3l34.5,19.9a7.084,7.084,0,0,1,3,5.7v54.6C631.2,354.1,629.8,355.1,628.2,354.2Z" fill-rule="evenodd" fill="url(#as)"/><path d="M630,296.2l-37.1-21.4c-.2-.1-.4,0-.4.3v51.2a.842.842,0,0,0,.4.7L630,348.4c.2.1.4,0,.4-.3V296.9A1.27,1.27,0,0,0,630,296.2Z" fill="#0075a1" fill-rule="evenodd"/><path d="M608.2,282.4l5.4,3.1c.1.1.2,0,.2-.2a.764.764,0,0,0-.2-.5l-5.4-3.1c-.1-.1-.2,0-.2.2S608.1,282.4,608.2,282.4Z" fill="#2156c9" fill-rule="evenodd"/><path d="M610.9,339c-.9-.5-1.6-.1-1.6.9a3.383,3.383,0,0,0,1.6,2.7c.9.5,1.6.1,1.6-.9A3.538,3.538,0,0,0,610.9,339Z" fill="#2156c9" fill-rule="evenodd"/></g></svg>