<svg xmlns="http://www.w3.org/2000/svg" width="6.433" height="6.896" viewBox="0 0 6.433 6.896"><g transform="translate(0 0)"><path d="M486.889,520.7l-1.189.951.079.079,1.506.4a.291.291,0,0,0,.238-.079l1.03-.793.079-.079Z" transform="translate(-483.956 -515.231)" fill="#ab9100"/><path d="M489.9,516.71V518.3a.078.078,0,0,0,.079.079l1.268-.951V515.6c-.079,0-.079,0-.079.079l-1.031.793C489.9,516.551,489.9,516.631,489.9,516.71Z" transform="translate(-489.9 -514.173)" fill="#124a61"/><path d="M488.637,516.437l-1.585-.317v-1.665a.17.17,0,0,0-.159-.159l-1.506-.4h-.159v1.744l-1.585-.317h-.158v1.823l1.744.4v1.823l1.744.4v-1.823l1.665.4V516.6C488.8,516.516,488.716,516.437,488.637,516.437Z" transform="translate(-482.296 -513.821)" fill="#94cfe5"/><path d="M483.5,519v1.268l.317.079a.291.291,0,0,0,.238-.079l1.03-.793.079-.079Z" transform="translate(-478.744 -514.878)" fill="#ab9100"/><path d="M489.168,520.223V518.4l-1.268.951v1.664a.078.078,0,0,0,.079.079Z" transform="translate(-486.235 -514.754)" fill="#124a61"/><path d="M489.168,517.9l-1.268.951.079.079,1.585.317,1.268-.951Z" transform="translate(-487.9 -514.65)" fill="#ab9100"/><path d="M489.168,515.623l-1.268-.317v-.4c0-.079.079-.159.079-.238l1.031-.793.079-.079.079,1.823Z" transform="translate(-486.235 -513.8)" fill="#124a61"/></g></svg>