<svg xmlns="http://www.w3.org/2000/svg" width="4.677" height="4.835" viewBox="0 0 4.677 4.835"><g transform="translate(0 0)"><path d="M492.172,522.5l-.872.634.079.079,1.03.238h.159l.713-.555.079-.079Z" transform="translate(-490.032 -518.616)" fill="#ab9100"/><path d="M494.4,519.713V520.9l.872-.634V519h-.079l-.713.555A.276.276,0,0,0,494.4,519.713Z" transform="translate(-494.4 -517.89)" fill="#124a61"/><path d="M493.088,519.423l-1.11-.238V518c0-.079-.079-.079-.079-.159l-1.031-.238h-.079v1.268l-1.11-.238H489.6V519.9l1.189.238V521.4l1.268.317v-1.268l1.189.238V519.5C493.167,519.5,493.167,519.423,493.088,519.423Z" transform="translate(-488.57 -517.6)" fill="#94cfe5"/><path d="M489.7,521.3v.872h.4l.713-.555.079-.079Z" transform="translate(-486.292 -518.367)" fill="#ab9100"/><path d="M493.672,522.168V520.9l-.872.714v1.268Z" transform="translate(-491.532 -518.284)" fill="#124a61"/><path d="M493.672,520.5l-.872.634.079.079,1.11.238.872-.713Z" transform="translate(-492.721 -518.201)" fill="#ab9100"/><path d="M493.672,518.868l-.872-.238v-.317c0-.079,0-.159.079-.159l.713-.555h.079v1.268Z" transform="translate(-491.532 -517.6)" fill="#124a61"/></g></svg>