<svg xmlns="http://www.w3.org/2000/svg" width="4.598" height="4.835" viewBox="0 0 4.598 4.835"><g transform="translate(0 0)"><path d="M852.072,595.3l-.872.634.079.079,1.031.238h.159l.713-.555.079-.079Z" transform="translate(-850.011 -591.416)" fill="#ab9100"/><path d="M854.2,592.413V593.6l.872-.634V591.7h-.079l-.714.555A.245.245,0,0,0,854.2,592.413Z" transform="translate(-854.2 -590.67)" fill="#124a61"/><path d="M852.988,592.223l-1.11-.238V590.8c0-.079-.079-.079-.079-.159l-1.03-.238h-.079v1.268l-1.11-.238H849.5V592.7l1.189.238V594.2l1.268.317v-1.268l1.189.238V592.3A.276.276,0,0,0,852.988,592.223Z" transform="translate(-848.549 -590.4)" fill="#94cfe5"/><path d="M849.6,594v.872h.4l.713-.555.079-.079Z" transform="translate(-846.271 -591.146)" fill="#ab9100"/><path d="M853.572,594.968V593.7l-.872.713v1.268Z" transform="translate(-851.511 -591.084)" fill="#124a61"/><path d="M853.572,593.3l-.872.634.079.079,1.11.238.872-.713Z" transform="translate(-852.7 -591.001)" fill="#ab9100"/><path d="M853.572,591.668l-.872-.238v-.317c0-.079,0-.159.079-.159l.713-.555h.079v1.268Z" transform="translate(-851.511 -590.4)" fill="#124a61"/></g></svg>