<svg xmlns="http://www.w3.org/2000/svg" xmlns:xlink="http://www.w3.org/1999/xlink" width="96.071" height="170.728" viewBox="0 0 96.071 170.728"><defs><clipPath id="a"><path d="M743.306,421.214l-1.11,8.006-6.9-11.573,13-7.847,2.457,4.835-5.469,2.457,1.348,5.866a.75.75,0,0,1-.476.872.944.944,0,0,1-1.268-.4l-.634-2.854Z" transform="translate(-735.3 -409.8)"/></clipPath></defs><g transform="translate(0)"><g transform="translate(0 23.28)"><path d="M779.007,581.632a1.021,1.021,0,0,0,1.03-.872l29.408-145.3a1.088,1.088,0,0,0-2.14-.4L777.9,580.364a1.123,1.123,0,0,0,.872,1.268Z" transform="translate(-777.885 -434.185)" fill="#94cfe5"/><path d="M751.707,581.632a1.021,1.021,0,0,0,1.03-.872l29.408-145.3a1.088,1.088,0,1,0-2.14-.4L750.6,580.364a1.123,1.123,0,0,0,.872,1.268Z" transform="translate(-728.945 -434.185)" fill="#94cfe5"/><path d="M786.41,608.92h21.085a1.11,1.11,0,0,0,0-2.22H786.41a1.11,1.11,0,0,0,0,2.22Z" transform="translate(-782.91 -469.954)" fill="#94cfe5"/><path d="M783.61,594.32h21.085a1.11,1.11,0,1,0,0-2.219H783.61a1.134,1.134,0,0,0-1.11,1.11A1.191,1.191,0,0,0,783.61,594.32Z" transform="translate(-777.891 -466.927)" fill="#94cfe5"/><path d="M780.71,579.72h21.085a1.11,1.11,0,0,0,0-2.22H780.71a1.11,1.11,0,0,0,0,2.22Z" transform="translate(-772.692 -463.899)" fill="#94cfe5"/><path d="M777.91,565.02h21.085a1.11,1.11,0,0,0,0-2.219H777.91a1.134,1.134,0,0,0-1.11,1.11A1.191,1.191,0,0,0,777.91,565.02Z" transform="translate(-767.672 -460.852)" fill="#94cfe5"/><path d="M775.01,550.42h21.085a1.134,1.134,0,0,0,1.11-1.11,1.084,1.084,0,0,0-1.11-1.11H775.01a1.134,1.134,0,0,0-1.11,1.11A1.084,1.084,0,0,0,775.01,550.42Z" transform="translate(-762.474 -457.825)" fill="#94cfe5"/><path d="M772.21,535.719h21.085a1.11,1.11,0,1,0,0-2.219H772.21a1.134,1.134,0,0,0-1.11,1.11A1.191,1.191,0,0,0,772.21,535.719Z" transform="translate(-757.454 -454.777)" fill="#94cfe5"/><path d="M769.31,521.119h21.085a1.11,1.11,0,0,0,0-2.219H769.31a1.134,1.134,0,0,0-1.11,1.11A1.084,1.084,0,0,0,769.31,521.119Z" transform="translate(-752.256 -451.75)" fill="#94cfe5"/><path d="M766.51,506.42h21.085a1.134,1.134,0,0,0,1.11-1.11,1.084,1.084,0,0,0-1.11-1.11H766.51a1.11,1.11,0,1,0,0,2.219Z" transform="translate(-747.236 -448.702)" fill="#94cfe5"/><path d="M763.61,491.82h21.085a1.134,1.134,0,0,0,1.11-1.11,1.084,1.084,0,0,0-1.11-1.11H763.61a1.134,1.134,0,0,0-1.11,1.11A1.084,1.084,0,0,0,763.61,491.82Z" transform="translate(-742.037 -445.675)" fill="#94cfe5"/><path d="M760.81,477.219h19.975a1.11,1.11,0,1,0,0-2.219H760.81a1.134,1.134,0,0,0-1.11,1.11A1.084,1.084,0,0,0,760.81,477.219Z" transform="translate(-735.908 -442.647)" fill="#94cfe5"/><path d="M758.01,462.52h19.975a1.11,1.11,0,0,0,0-2.219H758.01a1.134,1.134,0,0,0-1.11,1.11A1.191,1.191,0,0,0,758.01,462.52Z" transform="translate(-730.889 -439.6)" fill="#94cfe5"/><path d="M755.11,447.92h19.975a1.134,1.134,0,0,0,1.11-1.11,1.084,1.084,0,0,0-1.11-1.11H755.11a1.134,1.134,0,0,0-1.11,1.11A1.084,1.084,0,0,0,755.11,447.92Z" transform="translate(-725.69 -436.572)" fill="#94cfe5"/></g><g transform="translate(29.385 23.336)"><path d="M770.583,581.647h.238a1.068,1.068,0,0,0,.793-1.268l-32.261-145.3a1.057,1.057,0,1,0-2.061.476l32.261,145.3A1.116,1.116,0,0,0,770.583,581.647Z" transform="translate(-737.256 -434.256)" fill="#0075a1"/><path d="M743.283,581.647h.238a1.067,1.067,0,0,0,.793-1.268l-32.261-145.3a1.058,1.058,0,0,0-2.061.476l32.261,145.3A1.205,1.205,0,0,0,743.283,581.647Z" transform="translate(-688.316 -434.256)" fill="#0075a1"/><path d="M713.21,608.92h21.085a1.11,1.11,0,0,0,0-2.22H713.21a1.134,1.134,0,0,0-1.11,1.11A1.191,1.191,0,0,0,713.21,608.92Z" transform="translate(-681.072 -470.01)" fill="#0075a1"/><path d="M716.51,594.32h21.085a1.11,1.11,0,1,0,0-2.219H716.51a1.134,1.134,0,0,0-1.11,1.11A1.084,1.084,0,0,0,716.51,594.32Z" transform="translate(-686.988 -466.983)" fill="#0075a1"/><path d="M719.91,579.72h21.085a1.11,1.11,0,1,0,0-2.22H719.91a1.11,1.11,0,0,0,0,2.22Z" transform="translate(-693.083 -463.955)" fill="#0075a1"/><path d="M723.31,565.02h21.085a1.11,1.11,0,0,0,0-2.219H723.31a1.134,1.134,0,0,0-1.11,1.11A1.191,1.191,0,0,0,723.31,565.02Z" transform="translate(-699.178 -460.908)" fill="#0075a1"/><path d="M726.789,550.42h21.005a1.134,1.134,0,0,0,1.11-1.11,1.084,1.084,0,0,0-1.11-1.11H726.71a1.134,1.134,0,0,0-1.11,1.11A1.152,1.152,0,0,0,726.789,550.42Z" transform="translate(-705.273 -457.881)" fill="#0075a1"/><path d="M730.01,535.719h21.085a1.11,1.11,0,1,0,0-2.219H730.01a1.134,1.134,0,0,0-1.11,1.11A1.191,1.191,0,0,0,730.01,535.719Z" transform="translate(-711.189 -454.833)" fill="#0075a1"/><path d="M733.31,521.119h21.085a1.11,1.11,0,0,0,0-2.219H733.31a1.133,1.133,0,0,0-1.11,1.11A1.084,1.084,0,0,0,733.31,521.119Z" transform="translate(-717.104 -451.806)" fill="#0075a1"/><path d="M736.71,506.42h21.085a1.134,1.134,0,0,0,1.11-1.11,1.084,1.084,0,0,0-1.11-1.11H736.71a1.134,1.134,0,0,0-1.11,1.11A1.084,1.084,0,0,0,736.71,506.42Z" transform="translate(-723.2 -448.758)" fill="#0075a1"/><path d="M740.11,491.82h21.085a1.134,1.134,0,0,0,1.11-1.11,1.084,1.084,0,0,0-1.11-1.11H740.11a1.11,1.11,0,1,0,0,2.219Z" transform="translate(-729.294 -445.731)" fill="#0075a1"/><path d="M743.51,477.219h19.975a1.11,1.11,0,0,0,0-2.219H743.51a1.134,1.134,0,0,0-1.11,1.11A1.191,1.191,0,0,0,743.51,477.219Z" transform="translate(-734.28 -442.703)" fill="#0075a1"/><path d="M746.81,462.52h19.975a1.11,1.11,0,0,0,0-2.219H746.81a1.134,1.134,0,0,0-1.11,1.11A1.084,1.084,0,0,0,746.81,462.52Z" transform="translate(-740.196 -439.656)" fill="#0075a1"/><path d="M750.21,447.92h19.975a1.134,1.134,0,0,0,1.11-1.11,1.084,1.084,0,0,0-1.11-1.11H750.21a1.11,1.11,0,1,0,0,2.219Z" transform="translate(-746.291 -436.628)" fill="#0075a1"/></g><g transform="translate(30.408)"><path d="M746.6,548.1l11.732.079v-4.6l-7.055-.079a4.618,4.618,0,0,0-4.677,4.6Z" transform="translate(-732.369 -433.57)" fill="#ab9100"/><path d="M734.3,546.8l11.731.079v-4.6l-7.055-.079a4.722,4.722,0,0,0-4.677,4.6Z" transform="translate(-710.319 -433.3)" fill="#ab9100"/><g transform="translate(58.87)"><path d="M697.692,410.748a3.37,3.37,0,1,1,4.756-.317A3.381,3.381,0,0,1,697.692,410.748Z" transform="translate(-696.515 -404.815)" fill="#fe9764"/></g><g transform="translate(0 27.293)"><path d="M777.141,440.319a2.928,2.928,0,1,1-4.122-.4A2.907,2.907,0,0,1,777.141,440.319Z" transform="translate(-771.947 -439.247)" fill="#fe9764"/></g><g transform="translate(19.462 3.951)"><path d="M740.017,429.3l-.317,6.817,4.677.476.317-7.134Z" transform="translate(-732.724 -413.843)" fill="#fe9764"/><ellipse cx="6.262" cy="6.262" rx="6.262" ry="6.262" transform="translate(13.1 19.531) rotate(-156.734)" fill="#fe9764"/><path d="M732.883,421.7l1.9.793a.569.569,0,0,1,0,1.03l-1.585.872-.713-.713Z" transform="translate(-717.426 -412.267)" fill="#fe9764"/><g transform="translate(0)"><g clip-path="url(#a)"><path d="M746.859,424.134a6.25,6.25,0,1,1-4.359-7.689A6.236,6.236,0,0,1,746.859,424.134Z" transform="translate(-731.084 -411.134)" fill="#0e1333"/></g></g><path d="M746.636,423.746a1.682,1.682,0,1,1-1.189-2.061A1.716,1.716,0,0,1,746.636,423.746Z" transform="translate(-737.599 -412.253)" fill="#fe9764"/><path d="M744.8,413.816c-1.11,2.219-2.457,1.347-4.835,2.14-3.012,1.03-3.408,3.726-2.457,5.073,0,0,.951,1.348,1.189,1.823.476.793-.476,1.744.317,3.567s3.329.793,3.329.793l-1.427-1.585-1.268-5.39,3.567-2.933,4.756-1.11C751.454,412.706,746.619,410.011,744.8,413.816Z" transform="translate(-735.125 -410.249)" fill="#0e1333"/></g><g transform="translate(19.383 50.481)"><rect width="3.171" height="6.579" transform="translate(12.412 51.85)" fill="#fe9764"/><rect width="3.171" height="6.579" transform="translate(2.457 52.871)" fill="#fe9764"/><path d="M740.661,468.5h9.512l-1.585,55.011h-4.914l-.793-45.42h-3.488l-.793,45.42h-4.914L732.1,468.5Z" transform="translate(-732.1 -468.5)" fill="#124a61"/></g><path d="M704.7,435.279l6.024,6.262,6.817-8.244a5.307,5.307,0,0,1,4.915-3.091l8.323-.951a5.11,5.11,0,0,1,1.585.238c1.348-.634,2.616-1.268,3.963-1.9,1.427-.713,2.854-1.427,4.2-2.14l1.9-1.03a5.546,5.546,0,0,0,1.348-1.03l.317-.317.4-.4.793-.872,1.585-1.744c1.11-1.189,2.14-2.378,3.171-3.567,2.14-2.378,4.2-4.835,6.183-7.293l4.835,4.28c-2.219,2.3-4.36,4.6-6.421,6.975l-3.091,3.567-3.171,3.8a13.281,13.281,0,0,1-2.3,1.982,2.782,2.782,0,0,1-.634.4l-.476.317-1.03.634c-1.347.872-2.695,1.744-3.963,2.616-1.189.793-2.378,1.585-3.567,2.457l-.634,20.054H717.7l-.4-12.366-3.8,4.6a3.3,3.3,0,0,1-2.378,1.189h-.159a3.049,3.049,0,0,1-2.3-.951l-8.561-8.8Z" transform="translate(-698.235 -405.724)" fill="#94cfe5"/></g></g></svg>