<svg xmlns="http://www.w3.org/2000/svg" xmlns:xlink="http://www.w3.org/1999/xlink" width="48.786" height="104.077" viewBox="0 0 48.786 104.077"><defs><clipPath id="a"><path d="M447.21,496.893l3.567,5.866,3.171-9.75L443.326,489.6l-3.726,3.646,4.2.793.555,3.408a.841.841,0,0,0,.713.713h0a.884.884,0,0,0,1.11-.793l.159-1.585Z" transform="translate(-439.6 -489.6)"/></clipPath></defs><g transform="translate(0 0)"><g transform="translate(0 18.701)"><path d="M480.859,525.97a3.559,3.559,0,1,1,6.738,2.3,3.559,3.559,0,1,1-6.738-2.3Z" transform="translate(-480.663 -515.343)" fill="#fe9764"/><g transform="translate(4.872)"><path d="M462.442,529.765l7.451-15.14a2.945,2.945,0,0,1,4.439-.713,3.865,3.865,0,0,1,.555,5.073l-7.451,15.14a6,6,0,0,1-7.451,2.457l-14.664-6.9,2.774-6.579Z" transform="translate(-445.321 -513.193)" fill="#124a61"/></g></g><path d="M428.1,619.373l14.427.079-3.408-5.073-6.658-.079c-2.378,0-4.36,2.219-4.36,5.073Z" transform="translate(-393.741 -515.455)" fill="#ab9100"/><path d="M460,619.473l11.256.079,1.585-5.073-7.768-.079A5.109,5.109,0,0,0,460,619.473Z" transform="translate(-449.341 -515.476)" fill="#ab9100"/><path d="M435.2,585.4l14.189,17.835h6.658L441.858,579.3Z" transform="translate(-412.889 -508.198)" fill="#124a61"/><path d="M454.085,545.017,447.9,566.26a13.872,13.872,0,0,0,3.726,13.317l.555.555,8.8-35.432Z" transform="translate(-427.573 -501.024)" fill="#124a61"/><path d="M451.825,543.3l3.408,3.646,3.409-1.823a5.887,5.887,0,0,1,1.665,7.134l-13.079,43.517-5.945-.079Z" transform="translate(-422.539 -500.734)" fill="#124a61"/><path d="M447.01,510.938l3.25-.713-.951-6.024-3.409.555Z" transform="translate(-415.583 -492.627)" fill="#fe9764"/><path d="M443.258,500.977a6.348,6.348,0,1,0,2.14-8.719A6.347,6.347,0,0,0,443.258,500.977Z" transform="translate(-417.538 -489.959)" fill="#fe9764"/><path d="M457.914,498.3l-1.189,1.03a.582.582,0,0,0,.238,1.031l1.11.238,1.268-.793Z" transform="translate(-433.066 -491.404)" fill="#fe9764"/><path d="M452.706,540.209l-11.177.476a.98.98,0,0,1-1.031-1.11l2.616-25.207a5.689,5.689,0,0,1,6.024-5.073h0a5.588,5.588,0,0,1,5.311,5.866l-.872,24.1A.817.817,0,0,1,452.706,540.209Z" transform="translate(-415.493 -493.68)" fill="#0075a1"/><g transform="translate(25.323 0)"><g clip-path="url(#a)"><path d="M443.258,500.977a6.348,6.348,0,1,0,2.14-8.719A6.347,6.347,0,0,0,443.258,500.977Z" transform="translate(-442.862 -489.959)" fill="#0e1333"/></g></g><path d="M444.937,498.574a1.849,1.849,0,1,0,.634-2.537A1.887,1.887,0,0,0,444.937,498.574Z" transform="translate(-412.718 -490.885)" fill="#fe9764"/></g></svg>