<svg xmlns="http://www.w3.org/2000/svg" width="28.084" height="27.347" viewBox="0 0 28.084 27.347"><g transform="translate(0 0)"><path d="M489.17,521.361l1.506-.159c-.159-1.9-.079-5.311.951-6.5a1.018,1.018,0,0,1,.793-.317,2.113,2.113,0,0,1,1.585.713c1.347,1.506,1.506,4.994,1.427,6.183l1.506.079c0-.238.317-5.073-1.823-7.372a3.55,3.55,0,0,0-2.7-1.189,2.532,2.532,0,0,0-1.9.872C488.695,515.654,489.091,520.806,489.17,521.361Z" transform="translate(-487.025 -512.8)" fill="#0075a1"/><path d="M492.339,522.4H468.084a1.917,1.917,0,0,0-1.9,2.061l.872,9.67a8.579,8.579,0,0,0,8.561,8.006h8.64a8.6,8.6,0,0,0,8.561-7.689l1.427-9.908A1.894,1.894,0,0,0,492.339,522.4Z" transform="translate(-466.177 -514.79)" fill="#124a61"/></g></svg>