<svg xmlns="http://www.w3.org/2000/svg" width="5.39" height="5.787" viewBox="0 0 5.39 5.787"><g transform="translate(0 0)"><path d="M476.93,523.9l-1.03.793.079.079,1.268.317a.291.291,0,0,0,.238-.079l.872-.634.079-.079Z" transform="translate(-474.473 -519.303)" fill="#ab9100"/><path d="M479.6,520.572V522l1.031-.793V519.7a.078.078,0,0,0-.079.079l-.872.714C479.679,520.413,479.6,520.493,479.6,520.572Z" transform="translate(-479.6 -518.432)" fill="#124a61"/><path d="M478.222,520.24l-1.348-.317v-1.348a.277.277,0,0,0-.079-.159l-1.268-.317h-.079v1.506l-1.268-.317H474.1V520.8l1.427.317v1.506l1.427.4v-1.506l1.427.317V520.4A.17.17,0,0,0,478.222,520.24Z" transform="translate(-472.99 -518.1)" fill="#94cfe5"/><path d="M474.1,522.4v1.03h.238a.291.291,0,0,0,.238-.079l.872-.634.079-.079Z" transform="translate(-470.137 -518.992)" fill="#ab9100"/><path d="M478.83,523.506V522l-1.03.793V524.3Z" transform="translate(-476.373 -518.908)" fill="#124a61"/><path d="M478.831,521.5l-1.03.793.079.079,1.348.317,1.03-.793Z" transform="translate(-477.8 -518.805)" fill="#ab9100"/><path d="M478.83,519.627l-1.03-.238v-.317c0-.079,0-.159.079-.159l.872-.634a.078.078,0,0,0,.079-.079v1.427Z" transform="translate(-476.373 -518.121)" fill="#124a61"/></g></svg>