<svg xmlns="http://www.w3.org/2000/svg" width="28.084" height="27.347" viewBox="0 0 28.084 27.347"><g transform="translate(0 0)"><path d="M663.988,592.961l1.665-.159c-.158-1.9-.079-5.311,1.03-6.5a1.018,1.018,0,0,1,.793-.317,2.33,2.33,0,0,1,1.744.713c1.506,1.506,1.585,4.994,1.506,6.183l1.665.079c0-.238.317-5.073-1.982-7.372a4.07,4.07,0,0,0-2.933-1.189,2.878,2.878,0,0,0-2.061.872C663.433,587.254,663.909,592.327,663.988,592.961Z" transform="translate(-660.812 -584.4)" fill="#0075a1"/><path d="M669.239,594H644.984a1.917,1.917,0,0,0-1.9,2.061l.872,9.671a8.579,8.579,0,0,0,8.561,8.006h8.64a8.6,8.6,0,0,0,8.561-7.689l1.427-9.908A1.858,1.858,0,0,0,669.239,594Z" transform="translate(-643.077 -586.39)" fill="#124a61"/></g></svg>