<svg xmlns="http://www.w3.org/2000/svg" width="6.433" height="6.976" viewBox="0 0 6.433 6.976"><g transform="translate(0 0)"><path d="M844.189,596l-1.189.951.079.079,1.506.4a.291.291,0,0,0,.238-.079l1.031-.793.079-.079Z" transform="translate(-841.256 -590.451)" fill="#ab9100"/><path d="M847.2,592.01V593.6a.078.078,0,0,0,.079.079l1.268-.951V590.9c-.079,0-.079,0-.079.079l-1.03.793C847.2,591.851,847.2,591.931,847.2,592.01Z" transform="translate(-847.2 -589.394)" fill="#124a61"/><path d="M845.937,591.637l-1.586-.317v-1.665a.17.17,0,0,0-.158-.159l-1.506-.4h-.159v1.744l-1.585-.317h-.159v1.823l1.744.4v1.823l1.744.4v-1.823l1.665.4v-1.744C846.1,591.8,846.016,591.716,845.937,591.637Z" transform="translate(-839.596 -589.021)" fill="#94cfe5"/><path d="M840.8,594.3v1.268l.317.079a.292.292,0,0,0,.238-.079l1.031-.793.079-.079Z" transform="translate(-836.044 -590.099)" fill="#ab9100"/><path d="M846.468,595.523V593.7l-1.268.951v1.665a.078.078,0,0,0,.079.079Z" transform="translate(-843.535 -589.974)" fill="#124a61"/><path d="M846.469,593.2l-1.268.951.079.079,1.585.317,1.268-.951Z" transform="translate(-845.2 -589.871)" fill="#ab9100"/><path d="M846.468,590.823l-1.268-.317v-.4c0-.079.079-.159.079-.238l1.03-.793.079-.079.079,1.823Z" transform="translate(-843.535 -589)" fill="#124a61"/></g></svg>