<svg xmlns="http://www.w3.org/2000/svg" xmlns:xlink="http://www.w3.org/1999/xlink" width="36.556" height="95.527" viewBox="0 0 36.556 95.527"><defs><clipPath id="a"><path d="M548.942,507.665a6.316,6.316,0,1,1-4.677-7.61A6.3,6.3,0,0,1,548.942,507.665Z" transform="translate(-536.486 -499.886)"/></clipPath></defs><g transform="translate(0 0)"><path d="M553.181,614.27l2.774-4.36-4.835-1.11-2.219,4.122Z" transform="translate(-532.492 -522.468)" fill="#fff"/><path d="M551.256,566.7l.634,17.518v.238a2.136,2.136,0,0,1-.4,1.189l-6.659,15.536L540,600.071l5.786-17.28-.4,1.427-1.982-17.439Z" transform="translate(-521.373 -513.739)" fill="#fe9764"/><path d="M558.154,619.073l-13.079-.317L547.69,614l6.421.238a4.323,4.323,0,0,1,4.043,4.835Z" transform="translate(-531.679 -523.546)" fill="#ab9100"/><path d="M546.229,518.779l-3.329-.4.238-6.183,3.488.159Z" transform="translate(-518.407 -502.439)" fill="#fe9764"/><path d="M551.444,524.28l-2.774,9.274a.73.73,0,0,1-.872.555l-6.738-.793a.69.69,0,0,1-.634-.475l-2.7-8.878a3.623,3.623,0,0,1,3.012-4.914l5.786-.555A4.6,4.6,0,0,1,551.444,524.28Z" transform="translate(-519.104 -503.74)" fill="#0075a1"/><path d="M570.16,614.27l2.7-4.36-4.835-1.11-2.219,4.122Z" transform="translate(-562.788 -522.468)" fill="#fff"/><path d="M567.629,567.6l-1.665,16.8v.238a2.136,2.136,0,0,1-.4,1.189l-9.433,15.536-4.835-1.11,8.64-17.359-.4,1.427.317-16.646Z" transform="translate(-546.068 -513.926)" fill="#fe9764"/><path d="M551.268,537.2s-6.024,6.975-6.5,11.256L537,570.254h25.445l-3.488-32.182Z" transform="translate(-529.549 -507.623)" fill="#124a61"/><g transform="translate(12.04)"><path d="M537.373,505.634,535.946,505l-.793,1.9,1.427.317.951-.555A.644.644,0,0,0,537.373,505.634Z" transform="translate(-515.407 -500.947)" fill="#fe9764"/><g transform="translate(8.638)"><path d="M548.942,507.665a6.316,6.316,0,1,1-4.677-7.61A6.3,6.3,0,0,1,548.942,507.665Z" transform="translate(-536.486 -499.886)" fill="#fe9764"/><g clip-path="url(#a)"><path d="M552.1,497.7l-7.451,15.061-2.854-10.7Z" transform="translate(-543.692 -499.433)" fill="#0e1333"/></g></g><path d="M560.258,512.052a4.822,4.822,0,1,1-2.061-6.5A4.85,4.85,0,0,1,560.258,512.052Z" transform="translate(-551.133 -500.944)" fill="#0e1333"/><path d="M549.251,507.633a1.788,1.788,0,1,1-1.348-2.14A1.8,1.8,0,0,1,549.251,507.633Z" transform="translate(-535.371 -501.043)" fill="#fe9764"/></g><g transform="translate(15.559 15.327)"><path d="M535.488,549.4a3.035,3.035,0,0,0-3.092,2.774,2.626,2.626,0,0,0,2.616,2.933,3.035,3.035,0,0,0,3.091-2.774A2.666,2.666,0,0,0,535.488,549.4Z" transform="translate(-517.121 -525.479)" fill="#fe9764"/><g transform="translate(0)"><path d="M542.547,536.723l3.091-14.189a2.721,2.721,0,1,0-5.311-1.189l-3.091,14.189a5.375,5.375,0,0,0,2.774,5.945l12.128,6.1,2.219-4.994Z" transform="translate(-537.1 -519.223)" fill="#94cfe5"/></g></g><path d="M575.054,619.073l-13.079-.317L564.59,614l6.421.238a4.323,4.323,0,0,1,4.043,4.835Z" transform="translate(-561.975 -523.546)" fill="#ab9100"/></g></svg>