<svg xmlns="http://www.w3.org/2000/svg" width="6.433" height="6.976" viewBox="0 0 6.433 6.976"><g transform="translate(0)"><path d="M508.589,518.2l-1.189.951.079.079,1.506.4a.291.291,0,0,0,.238-.079l1.03-.793.079-.079Z" transform="translate(-505.656 -512.651)" fill="#ab9100"/><path d="M511.6,514.11V515.7a.078.078,0,0,0,.079.079l1.268-.951V513c-.079,0-.079,0-.079.079l-1.031.793C511.6,513.951,511.6,514.031,511.6,514.11Z" transform="translate(-511.6 -511.573)" fill="#124a61"/><path d="M510.337,513.836l-1.585-.317v-1.665a.17.17,0,0,0-.159-.158l-1.506-.4h-.159v1.744l-1.585-.317h-.159v1.823l1.744.4v1.823l1.744.4v-1.823l1.664.4V514C510.5,513.916,510.416,513.836,510.337,513.836Z" transform="translate(-503.995 -511.221)" fill="#94cfe5"/><path d="M505.2,516.4v1.268l.317.079a.291.291,0,0,0,.238-.079l1.03-.793.079-.079Z" transform="translate(-500.444 -512.278)" fill="#ab9100"/><path d="M510.868,517.723V515.9l-1.268.951v1.665a.078.078,0,0,0,.079.079Z" transform="translate(-507.935 -512.174)" fill="#124a61"/><path d="M510.868,515.4l-1.268.951.079.079,1.585.317,1.268-.951Z" transform="translate(-509.6 -512.071)" fill="#ab9100"/><path d="M510.868,513.023l-1.268-.317v-.4c0-.079.079-.158.079-.238l1.03-.793.079-.079.079,1.823Z" transform="translate(-507.935 -511.2)" fill="#124a61"/></g></svg>