<svg xmlns="http://www.w3.org/2000/svg" width="16.963" height="9.195" viewBox="0 0 16.963 9.195"><g transform="translate(0 0)"><g transform="translate(11.573 3.488)"><path d="M651.731,596.6l-1.031.793.079.079,1.268.317a.292.292,0,0,0,.238-.079l.872-.634.079-.079Z" transform="translate(-649.273 -592.082)" fill="#ab9100"/><path d="M654.4,593.272V594.7l1.03-.793V592.4a.078.078,0,0,0-.079.079l-.872.713C654.4,593.113,654.4,593.193,654.4,593.272Z" transform="translate(-654.4 -591.211)" fill="#124a61"/><path d="M653.022,593.04l-1.347-.317v-1.347a.276.276,0,0,0-.079-.159l-1.268-.317h-.079v1.506l-1.268-.317H648.9V593.6l1.427.317v1.506l1.427.4v-1.506l1.427.317V593.2A.171.171,0,0,0,653.022,593.04Z" transform="translate(-647.79 -590.9)" fill="#94cfe5"/><path d="M648.9,595.1v1.03h.238a.291.291,0,0,0,.238-.079l.872-.634.079-.079Z" transform="translate(-644.937 -591.771)" fill="#ab9100"/><path d="M653.63,596.206V594.7l-1.03.793V597Z" transform="translate(-651.173 -591.688)" fill="#124a61"/><path d="M653.631,594.3l-1.031.793.079.079,1.348.317,1.03-.793Z" transform="translate(-652.6 -591.605)" fill="#ab9100"/><path d="M653.63,592.327l-1.03-.238v-.317c0-.079,0-.159.079-.159l.872-.634a.078.078,0,0,0,.079-.079v1.427Z" transform="translate(-651.173 -590.9)" fill="#124a61"/></g><g transform="translate(0 3.091)"><path d="M666.972,595.3l-.872.634.079.079,1.03.238h.158l.714-.555.079-.079Z" transform="translate(-664.832 -591.416)" fill="#ab9100"/><path d="M669.2,592.413V593.6l.872-.634V591.7h-.079l-.713.555A.276.276,0,0,1,669.2,592.413Z" transform="translate(-669.2 -590.67)" fill="#124a61"/><path d="M667.888,592.223l-1.11-.238V590.8c0-.079-.079-.079-.079-.159l-1.031-.238h-.079v1.268l-1.11-.238H664.4V592.7l1.189.238V594.2l1.268.317v-1.268l1.189.238V592.3A.276.276,0,0,1,667.888,592.223Z" transform="translate(-663.37 -590.4)" fill="#94cfe5"/><path d="M664.5,594v.872h.4l.713-.555.079-.079Z" transform="translate(-661.092 -591.146)" fill="#ab9100"/><path d="M668.472,594.968V593.7l-.872.713v1.268Z" transform="translate(-666.332 -591.084)" fill="#124a61"/><path d="M668.572,593.3l-.872.634.079.079,1.11.238.872-.713Z" transform="translate(-667.7 -591.001)" fill="#ab9100"/><path d="M668.472,591.668l-.872-.238v-.317c0-.079,0-.159.079-.159l.713-.555h.079v1.268Z" transform="translate(-666.332 -590.4)" fill="#124a61"/></g><g transform="translate(3.012 0)"><path d="M661.689,593.5l-1.189.951.079.079,1.506.4a.291.291,0,0,0,.238-.079l1.03-.793.079-.079Z" transform="translate(-658.677 -587.951)" fill="#ab9100"/><path d="M664.8,589.41V591a.078.078,0,0,0,.079.079l1.268-.951V588.3c-.079,0-.079,0-.079.079l-1.031.793Q664.8,589.291,664.8,589.41Z" transform="translate(-664.8 -586.873)" fill="#124a61"/><path d="M663.477,589.137l-1.585-.317v-1.665a.17.17,0,0,0-.159-.159l-1.506-.4h-.159v1.744l-1.585-.317h-.158v1.823l1.744.4v1.823l1.744.4v-1.823l1.665.4v-1.744C663.557,589.216,663.557,589.137,663.477,589.137Z" transform="translate(-657.057 -586.521)" fill="#94cfe5"/><path d="M658.3,591.7v1.268l.317.079a.291.291,0,0,0,.238-.079l1.03-.793.079-.079Z" transform="translate(-653.465 -587.578)" fill="#ab9100"/><path d="M663.968,593.023V591.2l-1.268.951v1.665a.078.078,0,0,0,.079.079Z" transform="translate(-660.956 -587.474)" fill="#124a61"/><path d="M664.068,590.7l-1.268.951.079.079,1.585.317,1.268-.951Z" transform="translate(-662.8 -587.371)" fill="#ab9100"/><path d="M663.968,588.323l-1.268-.317v-.4c0-.079.079-.159.079-.238l1.031-.793.079-.079.079,1.823Z" transform="translate(-660.956 -586.5)" fill="#124a61"/></g><g transform="translate(5.073 1.982)"><path d="M659.089,596l-1.189.951.079.079,1.506.4a.291.291,0,0,0,.238-.079l1.03-.793.079-.079Z" transform="translate(-656.077 -590.451)" fill="#ab9100"/><path d="M662.2,592.01V593.6a.078.078,0,0,0,.079.079l1.268-.951V590.9c-.079,0-.079,0-.079.079l-1.03.793Q662.2,591.891,662.2,592.01Z" transform="translate(-662.2 -589.394)" fill="#124a61"/><path d="M660.937,591.637l-1.586-.317v-1.665a.17.17,0,0,0-.158-.159l-1.506-.4h-.159v1.744l-1.585-.317h-.159v1.823l1.744.4v1.823l1.744.4v-1.823l1.664.4v-1.744C661.1,591.8,661.016,591.716,660.937,591.637Z" transform="translate(-654.596 -589.021)" fill="#94cfe5"/><path d="M655.8,594.3v1.268l.317.079a.291.291,0,0,0,.238-.079l1.031-.793.079-.079Z" transform="translate(-651.044 -590.099)" fill="#ab9100"/><path d="M661.368,595.523V593.7l-1.268.951v1.665a.078.078,0,0,0,.079.079Z" transform="translate(-658.356 -589.974)" fill="#124a61"/><path d="M661.468,593.2l-1.268.951.079.079,1.585.317,1.268-.951Z" transform="translate(-660.2 -589.871)" fill="#ab9100"/><path d="M661.368,590.823l-1.268-.317v-.4c0-.079.079-.159.079-.238l1.03-.793.079-.079.079,1.823Z" transform="translate(-658.356 -589)" fill="#124a61"/></g></g></svg>