<svg xmlns="http://www.w3.org/2000/svg" width="6.433" height="6.975" viewBox="0 0 6.433 6.975"><g transform="translate(0 0)"><path d="M484.289,523.3l-1.189.951.079.079,1.506.4a.291.291,0,0,0,.238-.079l1.03-.793.079-.079Z" transform="translate(-481.277 -517.751)" fill="#ab9100"/><path d="M487.4,519.21v1.585a.078.078,0,0,0,.079.079l1.268-.951V518.1c-.079,0-.079,0-.079.079l-1.03.793Q487.4,519.091,487.4,519.21Z" transform="translate(-487.4 -516.673)" fill="#124a61"/><path d="M486.137,518.937l-1.585-.317v-1.665a.171.171,0,0,0-.159-.159l-1.506-.4h-.159v1.744l-1.585-.317h-.159v1.823l1.744.4v1.823l1.744.4v-1.823l1.665.4V519.1C486.3,519.016,486.216,518.937,486.137,518.937Z" transform="translate(-479.795 -516.321)" fill="#94cfe5"/><path d="M481,521.5v1.268l.317.079a.291.291,0,0,0,.238-.079l1.03-.793.079-.079Z" transform="translate(-476.244 -517.378)" fill="#ab9100"/><path d="M486.568,522.823V521l-1.268.951v1.664a.078.078,0,0,0,.079.079Z" transform="translate(-483.556 -517.274)" fill="#124a61"/><path d="M486.668,520.5l-1.268.951.079.079,1.585.317,1.268-.951Z" transform="translate(-485.4 -517.171)" fill="#ab9100"/><path d="M486.568,518.123l-1.268-.317v-.4c0-.079.079-.159.079-.238l1.031-.793.079-.079.079,1.823Z" transform="translate(-483.556 -516.3)" fill="#124a61"/></g></svg>