<svg xmlns="http://www.w3.org/2000/svg" width="5.39" height="5.707" viewBox="0 0 5.39 5.707"><g transform="translate(0)"><path d="M836.731,596.6l-1.031.793.079.079,1.268.317a.292.292,0,0,0,.238-.079l.872-.634.079-.079Z" transform="translate(-834.273 -592.082)" fill="#ab9100"/><path d="M839.4,593.272V594.7l1.03-.793V592.4a.078.078,0,0,0-.079.079l-.872.713C839.4,593.113,839.4,593.193,839.4,593.272Z" transform="translate(-839.4 -591.211)" fill="#124a61"/><path d="M838.021,593.04l-1.348-.317v-1.347a.276.276,0,0,0-.079-.159l-1.268-.317h-.079v1.506l-1.268-.317H833.9V593.6l1.427.317v1.506l1.427.4v-1.506l1.427.317V593.2C838.1,593.12,838.1,593.04,838.021,593.04Z" transform="translate(-832.79 -590.9)" fill="#94cfe5"/><path d="M834,595.1v1.03h.238a.291.291,0,0,0,.238-.079l.872-.634.079-.079Z" transform="translate(-830.116 -591.771)" fill="#ab9100"/><path d="M838.63,596.206V594.7l-1.03.793V597Z" transform="translate(-836.173 -591.688)" fill="#124a61"/><path d="M838.631,594.3l-1.031.793.079.079,1.347.317,1.031-.793Z" transform="translate(-837.6 -591.605)" fill="#ab9100"/><path d="M838.63,592.327l-1.03-.238v-.317c0-.079,0-.159.079-.159l.872-.634a.078.078,0,0,0,.079-.079v1.427Z" transform="translate(-836.173 -590.9)" fill="#124a61"/></g></svg>