<svg xmlns="http://www.w3.org/2000/svg" width="6.433" height="6.976" viewBox="0 0 6.433 6.976"><g transform="translate(0 0)"><path d="M846.689,593.5l-1.189.951.079.079,1.506.4a.291.291,0,0,0,.238-.079l1.031-.793.079-.079Z" transform="translate(-843.677 -587.951)" fill="#ab9100"/><path d="M849.8,589.41V591a.078.078,0,0,0,.079.079l1.268-.951V588.3c-.079,0-.079,0-.079.079l-1.031.793Q849.8,589.291,849.8,589.41Z" transform="translate(-849.8 -586.873)" fill="#124a61"/><path d="M848.537,589.137l-1.585-.317v-1.665a.17.17,0,0,0-.158-.159l-1.506-.4h-.159v1.744l-1.585-.317h-.159v1.823l1.744.4v1.823l1.744.4v-1.823l1.665.4v-1.744C848.7,589.216,848.616,589.137,848.537,589.137Z" transform="translate(-842.196 -586.521)" fill="#94cfe5"/><path d="M843.4,591.7v1.268l.317.079a.292.292,0,0,0,.238-.079l1.03-.793.079-.079Z" transform="translate(-838.644 -587.578)" fill="#ab9100"/><path d="M848.968,593.023V591.2l-1.268.951v1.665a.078.078,0,0,0,.079.079Z" transform="translate(-845.956 -587.474)" fill="#124a61"/><path d="M849.069,590.7l-1.268.951.079.079,1.585.317,1.268-.951Z" transform="translate(-847.8 -587.371)" fill="#ab9100"/><path d="M848.968,588.323l-1.268-.317v-.4c0-.079.079-.159.079-.238l1.031-.793.079-.079.079,1.823Z" transform="translate(-845.956 -586.5)" fill="#124a61"/></g></svg>